<svg xmlns="http://www.w3.org/2000/svg" width="132.702" height="132.702" viewBox="0 0 132.702 132.702">
  <g id="commodity" transform="translate(-1 -1)">
    <path id="Path_38" data-name="Path 38" d="M58.544,52.088A23.544,23.544,0,1,0,35,28.544,23.572,23.572,0,0,0,58.544,52.088Zm0-42.807A19.263,19.263,0,1,1,39.281,28.544,19.287,19.287,0,0,1,58.544,9.281Z" transform="translate(38.772 4.561)" fill="#3a648b"/>
    <path id="Path_39" data-name="Path 39" d="M49.421,30.4a2.144,2.144,0,0,1-2.14-2.14H43a6.412,6.412,0,0,0,4.281,6.027v4.675h4.281V34.29a6.406,6.406,0,0,0-2.14-12.448,2.14,2.14,0,1,1,2.14-2.14h4.281a6.412,6.412,0,0,0-4.281-6.027V9H47.281v4.675a6.406,6.406,0,0,0,2.14,12.448,2.14,2.14,0,0,1,0,4.281Z" transform="translate(47.895 9.123)" fill="#3a648b"/>
    <path id="Path_40" data-name="Path 40" d="M123,52.281a32.105,32.105,0,1,0-51.377,0c-6.922,2.746-10.7,6.517-10.7,10.79v3.217L42.489,38.009a6.093,6.093,0,0,0-10.205,0L6.91,76.918A36.3,36.3,0,0,0,1,96.794v.522a36.334,36.334,0,0,0,63.665,23.993c6.331,5.3,19.77,8.112,32.651,8.112,17.639,0,36.386-5.25,36.386-14.983V63.07C133.7,58.8,129.927,55.027,123,52.281Zm-25.689-47A27.825,27.825,0,1,1,69.491,33.105,27.857,27.857,0,0,1,97.316,5.281ZM74.588,55.757a32.048,32.048,0,0,0,45.457,0c5.8,2.05,9.377,4.8,9.377,7.314,0,5.051-13.73,10.7-32.105,10.7s-32.105-5.651-32.105-10.7C65.211,60.553,68.787,57.807,74.588,55.757Zm-37.2,73.665A32.142,32.142,0,0,1,5.281,97.316v-.522a32.024,32.024,0,0,1,5.214-17.538l25.374-38.91a1.88,1.88,0,0,1,3.035,0L60.93,74.123v40.316a7.531,7.531,0,0,0,.931,3.579A31.846,31.846,0,0,1,37.386,129.421Zm59.93-4.281c-18.375,0-32.105-5.651-32.105-10.7v-9.818c6.535,5.017,19.582,7.677,32.105,7.677s25.571-2.66,32.105-7.677v9.818C129.421,119.49,115.691,125.141,97.316,125.141Zm0-17.123c-18.375,0-32.105-5.651-32.105-10.7V87.5c6.535,5.017,19.582,7.677,32.105,7.677s25.571-2.66,32.105-7.677v9.818C129.421,102.367,115.691,108.018,97.316,108.018Zm0-17.123c-18.375,0-32.105-5.651-32.105-10.7V70.375c6.535,5.017,19.582,7.677,32.105,7.677s25.571-2.66,32.105-7.677v9.818C129.421,85.244,115.691,90.9,97.316,90.9Z" transform="translate(0 0)" fill="#3a648b"/>
    <path id="Path_41" data-name="Path 41" d="M10.3,43.028,6.238,41.686a28.008,28.008,0,0,0-1.1,4.638l4.236.627A23.294,23.294,0,0,1,10.3,43.028Z" transform="translate(4.721 46.397)" fill="#3a648b"/>
    <path id="Path_42" data-name="Path 42" d="M9.281,46H5A27.857,27.857,0,0,0,32.825,73.825V69.544A23.572,23.572,0,0,1,9.281,46Z" transform="translate(4.561 51.316)" fill="#3a648b"/>
  </g>
</svg>
