<svg width="121" height="121" viewBox="0 0 121 121" fill="none" xmlns="http://www.w3.org/2000/svg">
<path d="M73.3133 29.8036C76.8017 27.0921 77.4315 22.0661 74.72 18.5777C72.0085 15.0893 66.9824 14.4595 63.494 17.171C60.0056 19.8825 59.3758 24.9085 62.0873 28.3969C64.7988 31.8853 69.8249 32.5151 73.3133 29.8036Z" stroke="white" stroke-width="6"/>
<path d="M102.031 48.0113C104.865 45.8082 105.377 41.7245 103.174 38.8902C100.971 36.0559 96.8872 35.5442 94.0529 37.7473C91.2186 39.9504 90.7069 44.034 92.91 46.8683C95.1131 49.7027 99.1967 50.2144 102.031 48.0113Z" stroke="white" stroke-width="6"/>
<path d="M49.6668 62.1161C52.5011 59.913 53.0128 55.8294 50.8097 52.9951C48.6066 50.1607 44.523 49.649 41.6886 51.8521C38.8543 54.0552 38.3426 58.1389 40.5457 60.9732C42.7488 63.8075 46.8324 64.3192 49.6668 62.1161Z" stroke="white" stroke-width="6"/>
<path d="M34.1554 20.9774C37.4258 18.4353 38.0162 13.7235 35.4742 10.4531C32.9321 7.18271 28.2202 6.59227 24.9499 9.1343C21.6795 11.6763 21.089 16.3882 23.6311 19.6586C26.1731 22.929 30.885 23.5194 34.1554 20.9774Z" stroke="white" stroke-width="6"/>
<path d="M62.239 106.806C64.4193 105.111 64.8129 101.97 63.1182 99.7894C61.4235 97.6092 58.2822 97.2156 56.102 98.9103C53.9217 100.605 53.5281 103.746 55.2228 105.926C56.9175 108.107 60.0587 108.5 62.239 106.806Z" stroke="white" stroke-width="4"/>
<path d="M79.9207 76.5966C84.0632 73.3767 84.8111 67.4083 81.5912 63.2658C78.3712 59.1234 72.4029 58.3755 68.2604 61.5954C64.1179 64.8153 63.37 70.7837 66.5899 74.9262C69.8098 79.0686 75.7782 79.8165 79.9207 76.5966Z" stroke="white" stroke-width="6"/>
<path d="M95.4486 60.7262C96.5387 59.8788 96.7355 58.3082 95.8882 57.2181C95.0409 56.128 93.4702 55.9311 92.3801 56.7785C91.29 57.6258 91.0932 59.1965 91.9405 60.2866C92.7878 61.3767 94.3585 61.5735 95.4486 60.7262Z" fill="white"/>
<path d="M79.6683 38.7953C80.7585 37.9479 80.9553 36.3773 80.1079 35.2872C79.2606 34.1971 77.6899 34.0002 76.5998 34.8476C75.5097 35.6949 75.3129 37.2656 76.1602 38.3557C77.0076 39.4458 78.5782 39.6426 79.6683 38.7953Z" fill="white"/>
<path d="M90.2631 96.4219C91.3532 95.5745 91.55 94.0039 90.7026 92.9138C89.8553 91.8236 88.2847 91.6268 87.1945 92.4742C86.1044 93.3215 85.9076 94.8921 86.755 95.9823C87.6023 97.0724 89.1729 97.2692 90.2631 96.4219Z" fill="white"/>
<path d="M73.0726 97.1168C74.1628 96.2695 74.3596 94.6988 73.5122 93.6087C72.6649 92.5186 71.0942 92.3218 70.0041 93.1691C68.914 94.0165 68.7172 95.5871 69.5645 96.6772C70.4119 97.7673 71.9825 97.9642 73.0726 97.1168Z" fill="white"/>
<path d="M12.2201 48.1594C13.3102 47.3121 13.507 45.7414 12.6597 44.6513C11.8123 43.5612 10.2417 43.3644 9.15158 44.2117C8.06146 45.0591 7.86464 46.6297 8.71199 47.7198C9.55933 48.8099 11.13 49.0068 12.2201 48.1594Z" fill="white"/>
<path d="M86.6019 23.2735C87.692 22.4262 87.8889 20.8556 87.0415 19.7654C86.1942 18.6753 84.6235 18.4785 83.5334 19.3259C82.4433 20.1732 82.2465 21.7438 83.0938 22.834C83.9412 23.9241 85.5118 24.1209 86.6019 23.2735Z" fill="white"/>
<path d="M109.697 74.9832C111.441 73.6275 111.756 71.1144 110.4 69.3702C109.044 67.626 106.531 67.3111 104.787 68.6669C103.043 70.0227 102.728 72.5357 104.084 74.2799C105.439 76.0241 107.952 76.339 109.697 74.9832Z" fill="white"/>
<path d="M57.9496 78.4752C59.6938 77.1194 60.0087 74.6064 58.6529 72.8622C57.2972 71.118 54.7842 70.8031 53.04 72.1588C51.2958 73.5146 50.9809 76.0276 52.3366 77.7718C53.6924 79.516 56.2054 79.8309 57.9496 78.4752Z" fill="white"/>
<path d="M23.6644 50.6625C25.4086 49.3068 25.7235 46.7938 24.3678 45.0496C23.012 43.3054 20.499 42.9905 18.7548 44.3462C17.0106 45.702 16.6957 48.215 18.0515 49.9592C19.4072 51.7034 21.9202 52.0183 23.6644 50.6625Z" fill="white"/>
<path d="M12.3559 32.8548C14.1001 31.499 14.415 28.986 13.0592 27.2418C11.7034 25.4976 9.19044 25.1827 7.44624 26.5385C5.70204 27.8942 5.38714 30.4072 6.74289 32.1514C8.09864 33.8956 10.6116 34.2105 12.3559 32.8548Z" fill="white"/>
<path d="M32.1635 79.5202C33.9077 78.1644 34.2226 75.6514 32.8668 73.9072C31.5111 72.163 28.9981 71.8481 27.2539 73.2039C25.5097 74.5596 25.1948 77.0726 26.5505 78.8168C27.9063 80.561 30.4193 80.8759 32.1635 79.5202Z" fill="white"/>
<path d="M43.9105 99.5212C45.6547 98.1654 45.9696 95.6524 44.6139 93.9082C43.2581 92.164 40.7451 91.8491 39.0009 93.2049C37.2567 94.5606 36.9418 97.0736 38.2976 98.8178C39.6533 100.562 42.1663 100.877 43.9105 99.5212Z" fill="white"/>
<path d="M47.8853 5.23832C68.8317 0.431017 91.6211 7.73262 105.678 25.8181C124.998 50.6729 120.51 86.483 95.6561 105.803C70.8008 125.122 34.9904 120.635 15.671 95.78C8.25793 86.243 4.35003 75.093 3.75293 63.8805" stroke="white" stroke-width="6" stroke-linecap="round"/>
<path d="M46.7891 5.45715C49.7111 10.5742 52.5903 21.7196 40.7313 25.3646C41.3726 31.6211 39.8839 43.5019 28.7986 40.9726C30.0392 47.1855 29.3192 59.5664 16.5142 59.3871C15.0805 63.2457 10.5296 69.6118 3.79541 64.207" stroke="white" stroke-width="6" stroke-linecap="round"/>
</svg>
