<?xml version="1.0" encoding="UTF-8" standalone="no"?><!DOCTYPE svg PUBLIC "-//W3C//DTD SVG 1.1//EN" "http://www.w3.org/Graphics/SVG/1.1/DTD/svg11.dtd"><svg width="100%" height="100%" viewBox="0 0 1538 1538" version="1.1" xmlns="http://www.w3.org/2000/svg" xmlns:xlink="http://www.w3.org/1999/xlink" xml:space="preserve" style="fill-rule:evenodd;clip-rule:evenodd;stroke-linejoin:round;stroke-miterlimit:1.41421;"><g><path d="M1277.12,260.384c-130.288,-130.292 -310.292,-210.884 -509.117,-210.884c-198.826,0 -378.83,80.592 -509.122,210.884c-130.291,130.291 -210.879,310.291 -210.879,509.117c0,198.825 80.588,378.825 210.879,509.121c130.292,130.287 310.296,210.879 509.122,210.879c198.825,0 378.829,-80.592 509.117,-210.879c130.296,-130.296 210.887,-310.296 210.887,-509.121c0,-198.826 -80.591,-378.826 -210.887,-509.117l0,0Zm-509.117,-258.884c212.075,0 404.075,85.963 543.058,224.946c138.98,138.979 224.942,330.979 224.942,543.055c0,212.075 -85.962,404.075 -224.942,543.054c-138.983,138.984 -330.983,224.946 -543.058,224.946c-212.076,0 -404.076,-85.962 -543.059,-224.946c-138.984,-138.979 -224.942,-330.979 -224.942,-543.054c0,-212.076 85.958,-404.076 224.942,-543.055c138.983,-138.983 330.983,-224.946 543.059,-224.946l0,0Z" style="fill:#3a648b;fill-rule:nonzero;"/><path d="M1198.1,339.404c-110.071,-110.07 -262.134,-178.154 -430.1,-178.154c-167.967,0 -320.03,68.084 -430.101,178.154c-110.071,110.067 -178.154,262.13 -178.154,430.097c0,167.966 68.083,320.033 178.154,430.1c110.071,110.071 262.134,178.15 430.101,178.15c167.966,0 320.029,-68.079 430.1,-178.15c110.067,-110.067 178.15,-262.134 178.15,-430.1c0,-167.967 -68.083,-320.03 -178.15,-430.097l0,0Zm-430.1,-226.154c181.216,0 345.279,73.458 464.037,192.217c118.759,118.754 192.217,282.817 192.217,464.034c0,181.216 -73.458,345.283 -192.217,464.037c-118.758,118.759 -282.821,192.213 -464.037,192.213c-181.217,0 -345.28,-73.454 -464.038,-192.213c-118.759,-118.754 -192.217,-282.821 -192.217,-464.037c0,-181.217 73.458,-345.28 192.217,-464.034c118.758,-118.759 282.821,-192.217 464.038,-192.217l0,0Z" style="fill:#3a648b;fill-rule:nonzero;"/><path d="M652.495,1064.46l209.999,0c36.11,0 61.43,-1.256 76.151,-3.768c25.511,-4.127 47.102,-11.124 64.375,-20.992c17.273,-9.868 31.399,-24.216 42.582,-43.055c11.188,-18.839 16.689,-40.544 16.689,-65.119c0,-28.887 -8.053,-53.821 -24.339,-75.171c-16.095,-21.346 -38.465,-36.243 -67.122,-44.85c-28.455,-8.612 -69.669,-12.918 -123.254,-12.918l-195.081,0l0,265.873Zm0,-356.29l182.323,0c49.463,0 84.99,-3.05 106.373,-8.971c28.461,-7.71 49.856,-20.628 64.184,-38.57c14.323,-17.942 21.586,-40.369 21.586,-67.456c0,-25.657 -6.668,-48.259 -20.212,-67.636c-13.347,-19.552 -32.582,-33.008 -57.505,-40.185c-24.927,-7.177 -67.711,-10.765 -128.16,-10.765l-168.589,0l0,233.583Zm-111.875,446.712l0,-0.056l-66.697,0l0,-89.438l66.697,0l0,-23.807l0,-544.157l0,-23.811l-66.697,0l0,-89.443l66.697,0l1.392,-105.193l110.264,0l0,105.193l65.502,0l1.392,-105.193l113.048,2.783l-2.784,102.41l27.569,0c64.369,0 115.986,7.715 155.046,23.325c38.858,15.604 69.276,39.646 91.254,72.116c22.185,32.29 33.172,66.2 33.172,101.72c0,32.834 -9.814,63.868 -29.241,92.934c-19.432,29.061 -48.868,52.559 -88.315,70.501c51.022,13.636 90.278,36.955 117.556,69.968c27.479,32.829 41.219,71.763 41.219,116.612c0,36.238 -8.44,69.784 -25.124,100.824c-16.684,31.034 -37.288,54.897 -61.823,71.762c-24.536,16.681 -55.346,29.42 -92.242,38.032c-37.097,8.612 -82.432,12.918 -136.208,12.918l-32.863,0l0,98.177c-52.144,-0.521 -89.261,-0.517 -111.656,0l0,-98.177l-65.502,0l0,92.61l-110.264,-1.392l-1.392,-91.218l0,0Z" style="fill:#3a648b;"/></g></svg>