<svg xmlns="http://www.w3.org/2000/svg" width="131.659" height="123.448" viewBox="0 0 131.659 123.448">
  <g id="outline" transform="translate(-23.721 -39.995)">
    <path id="Path_43" data-name="Path 43" d="M106.428,98.875v-3.1a8.209,8.209,0,0,0,2.856-1.573,6.994,6.994,0,0,0,2.509-5.286v-.394a7.1,7.1,0,0,0-3.379-5.932l-6.438-4.135a1.755,1.755,0,0,1-.913-1.418v-.394a1.628,1.628,0,0,1,.633-1.211,3.168,3.168,0,0,1,2.046-.7h.009a3.166,3.166,0,0,1,2.046.7,1.627,1.627,0,0,1,.634,1.211,2.683,2.683,0,1,0,5.365,0,6.994,6.994,0,0,0-2.509-5.286,8.209,8.209,0,0,0-2.856-1.573v-3.1a2.683,2.683,0,1,0-5.365,0v3.1a8.211,8.211,0,0,0-2.856,1.572A6.993,6.993,0,0,0,95.7,76.642v.394a7.1,7.1,0,0,0,3.379,5.932l6.438,4.135a1.755,1.755,0,0,1,.913,1.418v.394a1.628,1.628,0,0,1-.633,1.211,3.169,3.169,0,0,1-2.049.7h0a3.165,3.165,0,0,1-2.046-.7,1.627,1.627,0,0,1-.634-1.211,2.683,2.683,0,1,0-5.365,0A6.993,6.993,0,0,0,98.205,94.2a8.21,8.21,0,0,0,2.856,1.573v3.1a2.683,2.683,0,1,0,5.365,0Z" transform="translate(-52.683 -19.242)" fill="#3a648b"/>
    <path id="Path_44" data-name="Path 44" d="M91.26,355.565l-2.644,2.644a2.017,2.017,0,0,1-2.538.251l-1.643-1.1a7.311,7.311,0,0,0-2.008-.93v-1.656h2.683a2.683,2.683,0,1,0,0-5.365H82.427v-5.365a2.683,2.683,0,1,1,5.365,0,2.683,2.683,0,0,0,5.365,0,8.048,8.048,0,1,0-16.1,0v5.365H74.379a2.683,2.683,0,1,0,0,5.365h2.683V356.9a7.32,7.32,0,0,0-1.936,1.383l-2.644,2.644a2.683,2.683,0,0,0,3.794,3.794l2.644-2.644a2.016,2.016,0,0,1,2.538-.251l1.643,1.1A7.4,7.4,0,0,0,92.41,362l2.644-2.644a2.683,2.683,0,0,0-3.794-3.794Z" transform="translate(-36.728 -211.458)" fill="#3a648b"/>
    <path id="Path_45" data-name="Path 45" d="M358.124,345.054h-2.741a2.683,2.683,0,0,0,0,5.365h2.012v3.353h-2.012a2.683,2.683,0,1,0,0,5.365h2.743a13.434,13.434,0,0,0,12.682,9.054,2.683,2.683,0,0,0,0-5.365,8.048,8.048,0,0,1-6.76-3.689h3.407a2.683,2.683,0,1,0,0-5.365H362.76v-3.353h4.695a2.683,2.683,0,0,0,0-5.365h-3.408a8.048,8.048,0,0,1,6.762-3.689,2.683,2.683,0,0,0,0-5.365A13.434,13.434,0,0,0,358.124,345.054Z" transform="translate(-233.336 -212.8)" fill="#3a648b"/>
    <path id="Path_46" data-name="Path 46" d="M373.942,80.786l-8.832,8.834-8.835-8.834a2.683,2.683,0,0,0-3.794,3.794l6.151,6.151h-1.57a2.683,2.683,0,1,0,0,5.365h5.365v2.683h-5.365a2.683,2.683,0,1,0,0,5.365h5.365v2.683a2.683,2.683,0,1,0,5.365,0v-2.683h5.365a2.683,2.683,0,0,0,0-5.365h-5.365V96.1h5.365a2.683,2.683,0,0,0,0-5.365h-1.572l6.151-6.151a2.683,2.683,0,1,0-3.794-3.794Z" transform="translate(-235.35 -29.876)" fill="#3a648b"/>
    <path id="Path_47" data-name="Path 47" d="M152.942,107.541h.087a2.319,2.319,0,0,0,2.307-2.244c.029-.8.044-1.609.044-2.414A65.07,65.07,0,0,0,149.5,75.7a23.446,23.446,0,0,0-.683-25.868,23.036,23.036,0,0,0-41.613,9.531,46,46,0,0,0-33.007,0,23.241,23.241,0,0,0-1.24-4.511A50.151,50.151,0,0,1,90.7,51.642a2.329,2.329,0,0,0,0-4.658,54.7,54.7,0,0,0-19.86,3.7,23,23,0,0,0-26.79-9.459,23.331,23.331,0,0,0,3.489,45.018,47.133,47.133,0,0,0-.918,30.621,22.834,22.834,0,0,0-13.187,4.317,60.934,60.934,0,0,1-2.791-18.3,2.31,2.31,0,1,0-4.62,0,65.531,65.531,0,0,0,3.657,21.661,23.436,23.436,0,0,0-3.16,26.728A23.037,23.037,0,0,0,69.537,144.3a45.912,45.912,0,0,0,40.224,1.026,23.231,23.231,0,0,0,1.486,4.438A49.978,49.978,0,0,1,90.7,154.124a2.329,2.329,0,0,0,0,4.658,54.528,54.528,0,0,0,22.886-4.974,22.98,22.98,0,0,0,27.32,7.937,23.327,23.327,0,0,0-6.167-44.755,47.118,47.118,0,0,0-.879-30.75A22.994,22.994,0,0,0,146.243,79.8a60.463,60.463,0,0,1,4.516,23.083c0,.748-.014,1.5-.04,2.244a2.321,2.321,0,0,0,2.223,2.414ZM129.005,86.556a41.718,41.718,0,0,1,3.21,14H106.851a131.272,131.272,0,0,0-1.242-16.3h14.3a22.783,22.783,0,0,0,9.1,2.3Zm-6.788,32.631h-16.3a134.027,134.027,0,0,0,.936-13.975h25.363a41.951,41.951,0,0,1-2.345,11.773,22.767,22.767,0,0,0-7.651,2.2ZM90.7,144.808c-1.957,0-4.98-2.978-7.6-11.334a75.713,75.713,0,0,1-2.271-9.628h19.733a75.709,75.709,0,0,1-2.269,9.628C95.68,141.83,92.657,144.808,90.7,144.808ZM63.289,123.845H76.149A81.678,81.678,0,0,0,78.7,134.877a37.64,37.64,0,0,0,4.051,9.156,41.171,41.171,0,0,1-12.862-4.854,23.3,23.3,0,0,0-6.6-15.333Zm-1.794-39.6h14.3a131.272,131.272,0,0,0-1.242,16.3H49.186a41.763,41.763,0,0,1,3.209-14,22.785,22.785,0,0,0,9.1-2.3ZM74.508,64.26a40.784,40.784,0,0,1,8.252-2.541A37.6,37.6,0,0,0,78.7,70.889a77.59,77.59,0,0,0-2.14,8.7H67.907a23.3,23.3,0,0,0,6.6-15.332ZM98.3,72.292a71.49,71.49,0,0,1,1.832,7.3H81.268a71.572,71.572,0,0,1,1.834-7.3c2.617-8.356,5.64-11.334,7.6-11.334s4.979,2.978,7.6,11.334Zm2.645,11.958a125.635,125.635,0,0,1,1.285,16.3H79.171a125.587,125.587,0,0,1,1.285-16.3ZM51.678,117.382a41.951,41.951,0,0,1-2.491-12.17H74.55a134.029,134.029,0,0,0,.935,13.975H56.92l-.04,0a22.79,22.79,0,0,0-5.2-1.807Zm28.459,1.805a128.6,128.6,0,0,1-.966-13.975H102.23a128.738,128.738,0,0,1-.966,13.975Zm24.7-39.6a77.656,77.656,0,0,0-2.138-8.7,37.6,37.6,0,0,0-4.059-9.168,40.855,40.855,0,0,1,8.25,2.538,23.3,23.3,0,0,0,6.6,15.332Zm-71.887-16.3A18.48,18.48,0,1,1,51.434,81.921,18.557,18.557,0,0,1,32.954,63.288Zm13.859,95.495a18.634,18.634,0,1,1,18.479-18.633A18.557,18.557,0,0,1,46.814,158.783Zm51.828-14.735a37.589,37.589,0,0,0,4.061-9.171,81.681,81.681,0,0,0,2.549-11.031H115.8a23.312,23.312,0,0,0-6.622,16.3c0,.1.006.194.007.291a40.75,40.75,0,0,1-10.546,3.607Zm52.117-3.9a18.48,18.48,0,1,1-18.479-18.633A18.557,18.557,0,0,1,150.759,140.149ZM129.97,81.921a18.634,18.634,0,1,1,18.479-18.633A18.557,18.557,0,0,1,129.97,81.921Z" transform="translate(0 0)" fill="#3a648b"/>
  </g>
</svg>
