<svg xmlns="http://www.w3.org/2000/svg" width="145.75" height="144.017" viewBox="0 0 145.75 144.017">
  <g id="idea" transform="translate(0 -1.932)">
    <path id="Path_58" data-name="Path 58" d="M109.7,68.95h-.124A42.8,42.8,0,0,0,79.466,81.2a42.176,42.176,0,0,0,2.551,62.334c1.48,1.2,3.963,5.027,3.963,17.162v19.526a2.691,2.691,0,0,0,2.691,2.691H130.6a2.691,2.691,0,0,0,2.691-2.691V160.7c0-.022,0-.042,0-.063s0-.042,0-.063c0-12.246,2.483-16.087,3.965-17.288a40.526,40.526,0,0,0,15.088-32.089A41.718,41.718,0,0,0,139.811,81.2,42.8,42.8,0,0,0,109.7,68.95Zm18.214,108.581H91.362V163.387h25.462a2.672,2.672,0,0,0,.362.027,2.6,2.6,0,0,0,.362-.027h10.367v14.144Zm-23.536-57.087h10.574c-.252,10.172-.425,27.488-.453,37.561h-9.671C104.8,148.679,104.634,130.9,104.378,120.445ZM133.87,139.1c-3.691,2.993-5.631,9.2-5.915,18.9H119.88c.03-11.041.226-28,.454-37.561h5.754a9.241,9.241,0,0,0,8.9-9.326,9.127,9.127,0,0,0-8.9-9.113c-4.424,0-9.582,2.77-10.792,10.545-.06.385-.117,1.258-.172,2.512H104.208c-.057-1.306-.117-2.217-.179-2.62-.8-5.149-4.049-10.652-10.789-10.652a9.337,9.337,0,0,0,0,18.653h5.755c.229,9.612.424,26.547.453,37.561H91.316c-.3-9.549-2.236-15.671-5.908-18.65a35.965,35.965,0,0,1-13.1-28.162A36.373,36.373,0,0,1,83.238,85.039a37.9,37.9,0,0,1,52.8,0,36.374,36.374,0,0,1,10.927,26.154A35.236,35.236,0,0,1,133.87,139.1Zm-13.37-24.04c.038-.853.076-1.433.113-1.688.811-5.211,3.777-5.989,5.474-5.989a3.723,3.723,0,0,1,3.515,3.731,3.9,3.9,0,0,1-3.515,3.945H120.5Zm-21.671,0H93.24a3.972,3.972,0,0,1,0-7.89c3.94,0,5.119,3.817,5.471,6.094C98.75,113.532,98.79,114.151,98.83,115.063Z" transform="translate(-36.914 -36.963)" fill="#3a648b"/>
    <path id="Path_59" data-name="Path 59" d="M202.651,29.06a2.688,2.688,0,0,0,3.533-1.414l9.263-21.614a2.691,2.691,0,1,0-4.946-2.12l-9.263,21.614A2.69,2.69,0,0,0,202.651,29.06Z" transform="translate(-110.871 -0.192)" fill="#3a648b"/>
    <path id="Path_60" data-name="Path 60" d="M101.1,27.458a2.691,2.691,0,0,0,5-2L97.367,3.625a2.691,2.691,0,0,0-5,2Z" transform="translate(-50.839 0)" fill="#3a648b"/>
    <path id="Path_61" data-name="Path 61" d="M1.99,98.409,23.6,107.677a2.691,2.691,0,0,0,2.122-4.946L4.111,93.463A2.691,2.691,0,1,0,1.99,98.409Z" transform="translate(-0.198 -50.362)" fill="#3a648b"/>
    <path id="Path_62" data-name="Path 62" d="M23.526,203.461,1.692,212.2a2.691,2.691,0,1,0,2,5l21.835-8.739a2.69,2.69,0,1,0-2-5Z" transform="translate(0 -111.045)" fill="#3a648b"/>
    <path id="Path_63" data-name="Path 63" d="M289.8,212.423l-21.62-9.262a2.691,2.691,0,1,0-2.12,4.947l21.62,9.262a2.691,2.691,0,0,0,2.12-4.947Z" transform="translate(-145.844 -110.865)" fill="#3a648b"/>
    <path id="Path_64" data-name="Path 64" d="M266.992,108.217a2.683,2.683,0,0,0,1-.194l21.84-8.741a2.691,2.691,0,0,0-2-5l-21.84,8.741a2.691,2.691,0,0,0,1,5.19Z" transform="translate(-145.772 -50.83)" fill="#3a648b"/>
  </g>
</svg>
