<svg xmlns="http://www.w3.org/2000/svg" width="133.97" height="133.97" viewBox="0 0 133.97 133.97">
  <g id="performance" transform="translate(-1 -1)">
    <path id="Path_48" data-name="Path 48" d="M28.126,52.074a16.789,16.789,0,0,0-4.955-11.96l-1.528-1.528-1.528,1.528a16.793,16.793,0,0,0-4.955,11.96V68.4A8.561,8.561,0,0,0,13,74.053,8.643,8.643,0,1,0,28.126,68.4Zm-6.482-7.059A12.511,12.511,0,0,1,23.8,52.076V65.719a8.417,8.417,0,0,0-2.161-.309,8.512,8.512,0,0,0-2.161.307V52.074A12.51,12.51,0,0,1,21.643,45.014Zm0,33.361a4.322,4.322,0,1,1,4.322-4.322A4.326,4.326,0,0,1,21.643,78.375Z" transform="translate(13.93 43.63)" fill="#3a648b"/>
    <path id="Path_49" data-name="Path 49" d="M131.545,74.559l-9.54-3.576V19H104.719V68.7H96.075V42.769H78.789V68.7H70.146V29.8H52.859v19.8a34.316,34.316,0,0,0-8.643-3.539V19H26.93V46.068A34.552,34.552,0,1,0,68.393,90.307h47.52l15.631-5.862a5.279,5.279,0,0,0,0-9.886ZM78.789,73.02h34.573v4.322H78.789Zm0,8.643h34.573v4.322H78.789ZM109.04,23.322h8.643v46.04l-1.77-.663H109.04ZM83.111,47.09h8.643V68.7H83.111ZM12.547,67.625,8.556,65.972A30.287,30.287,0,0,1,12.74,59.72L15.8,62.782a25.978,25.978,0,0,0-3.254,4.842Zm-1.651,4a25.731,25.731,0,0,0-1.163,5.722h-4.3a30.047,30.047,0,0,1,1.456-7.383Zm7.96-11.889-3.064-3.064a30.316,30.316,0,0,1,6.251-4.183l1.649,3.98A25.851,25.851,0,0,0,18.857,59.731Zm8.831-4.912-1.657-4a30.03,30.03,0,0,1,7.381-1.456v4.315A25.728,25.728,0,0,0,27.688,54.82Zm10.046-5.458a30.03,30.03,0,0,1,7.381,1.456l-1.657,4a25.728,25.728,0,0,0-5.724-1.143ZM49.1,52.484a30.286,30.286,0,0,1,6.251,4.183l-3.064,3.064a26.027,26.027,0,0,0-4.836-3.267Zm9.3,7.239a30.315,30.315,0,0,1,4.183,6.251L58.6,67.627a25.986,25.986,0,0,0-3.252-4.84Zm5.849,10.236a30.027,30.027,0,0,1,1.456,7.383h-4.3a25.612,25.612,0,0,0-1.165-5.722ZM57.181,34.126h8.643V62.8a34.783,34.783,0,0,0-8.643-10.244Zm-25.93-10.8h8.643V45.23a34.362,34.362,0,0,0-4.322-.3,34.362,34.362,0,0,0-4.322.3Zm4.322,86.432A30.267,30.267,0,0,1,5.432,81.663h8.533V79.5a21.608,21.608,0,1,1,43.216,0v2.161h8.533a30.267,30.267,0,0,1-30.141,28.09ZM69.515,73.02h4.953V85.985H69.515a33.615,33.615,0,0,0,0-12.965ZM130.026,80.4l-12.342,4.628V73.977l12.34,4.626a.958.958,0,0,1,0,1.8Z" transform="translate(0 20.894)" fill="#3a648b"/>
    <path id="Path_50" data-name="Path 50" d="M57.643,22.286A8.643,8.643,0,1,0,49,13.643,8.652,8.652,0,0,0,57.643,22.286Zm0-12.965a4.322,4.322,0,1,1-4.322,4.322A4.326,4.326,0,0,1,57.643,9.322Z" transform="translate(55.719 4.643)" fill="#3a648b"/>
    <path id="Path_51" data-name="Path 51" d="M11.8,50.7a10.816,10.816,0,0,0,10.8-10.8,10.691,10.691,0,0,0-.739-3.844l5.951-3.788a10.719,10.719,0,0,0,17.066-2.113l3.82,1.275a12.829,12.829,0,0,0-.169,1.988,12.948,12.948,0,0,0,22.388,8.879L79.3,47.876a8.5,8.5,0,0,0-.514,2.822,8.643,8.643,0,1,0,17.286,0,8.564,8.564,0,0,0-1.748-5.158L104.351,33.01a17.264,17.264,0,1,0-3.38-2.695L90.963,42.829a8.481,8.481,0,0,0-9.263,1.45L73.329,38.7A12.956,12.956,0,0,0,50.063,27.323L46.247,26.05a10.462,10.462,0,0,0,.13-1.281,10.8,10.8,0,1,0-21.608,0,10.682,10.682,0,0,0,.739,3.844L19.557,32.4A10.8,10.8,0,1,0,11.8,50.7ZM113.362,5.322A12.965,12.965,0,1,1,100.4,18.286,12.978,12.978,0,0,1,113.362,5.322ZM87.432,46.377A4.322,4.322,0,1,1,83.111,50.7,4.326,4.326,0,0,1,87.432,46.377ZM61.5,24.769a8.643,8.643,0,1,1-8.643,8.643A8.652,8.652,0,0,1,61.5,24.769Zm-25.93-6.482a6.482,6.482,0,1,1-6.482,6.482A6.49,6.49,0,0,1,35.573,18.286ZM11.8,33.412a6.482,6.482,0,1,1-6.482,6.482A6.49,6.49,0,0,1,11.8,33.412Z" transform="translate(0 0)" fill="#3a648b"/>
  </g>
</svg>
