<svg xmlns="http://www.w3.org/2000/svg" width="104.807" height="119.247" viewBox="0 0 104.807 119.247">
  <path id="Path_52" data-name="Path 52" d="M95.631,119.247H36.24a5.246,5.246,0,0,1-5.24-5.24V26.6a5.246,5.246,0,0,1,5.24-5.24h10.04a1.747,1.747,0,0,1,0,3.494H36.24A1.749,1.749,0,0,0,34.494,26.6v87.409a1.749,1.749,0,0,0,1.747,1.747h59.39a1.749,1.749,0,0,0,1.747-1.747V73.365H57.2a5.246,5.246,0,0,1-5.24-5.24V5.24A5.246,5.246,0,0,1,57.2,0h52.4a5.246,5.246,0,0,1,5.24,5.24V22.708a1.747,1.747,0,1,1-3.494,0V5.24A1.749,1.749,0,0,0,109.6,3.494H57.2A1.749,1.749,0,0,0,55.455,5.24V68.124A1.749,1.749,0,0,0,57.2,69.871h52.4a1.749,1.749,0,0,0,1.747-1.747V29.7a1.747,1.747,0,0,1,1.747-1.747h10.481a1.747,1.747,0,0,1,0,3.494h-8.734v6.987h8.734a1.747,1.747,0,0,1,0,3.494h-8.734V48.91h8.734a1.747,1.747,0,0,1,0,3.494h-8.734V59.39h8.734a1.747,1.747,0,0,1,0,3.494h-8.734v5.24a5.219,5.219,0,0,1-.3,1.747h9.033a1.747,1.747,0,0,1,0,3.494H100.871v6.987h22.708a1.747,1.747,0,0,1,0,3.494H100.871V94.792h29.7a1.749,1.749,0,0,0,1.747-1.747V16.117a1.749,1.749,0,0,0-1.747-1.747H120.086a1.747,1.747,0,1,1,0-3.494h10.481a5.246,5.246,0,0,1,5.24,5.24V93.045a5.246,5.246,0,0,1-5.24,5.24h-29.7v10.481h19.215a1.749,1.749,0,0,0,1.747-1.747v-3.494a1.747,1.747,0,1,1,3.494,0v3.494a5.246,5.246,0,0,1-5.24,5.24H100.871v1.747A5.246,5.246,0,0,1,95.631,119.247Zm10.481-52.869H60.7a1.747,1.747,0,0,1-1.747-1.747V58.563c0-8.976,5.934-11.03,10.268-12.529,3.576-1.238,5.607-2.071,5.965-4.761A14.608,14.608,0,0,1,68.791,29.2V22a14.613,14.613,0,0,1,29.225,0v7.2a14.608,14.608,0,0,1-6.39,12.074c.358,2.69,2.389,3.524,5.965,4.761,4.333,1.5,10.268,3.553,10.268,12.529v6.068a1.747,1.747,0,0,1-1.747,1.747ZM62.442,62.884h41.923V58.563c0-6.488-3.669-7.758-7.917-9.228-3.137-1.086-6.919-2.395-8.043-6.406a14.626,14.626,0,0,1-10,0c-1.124,4.011-4.906,5.32-8.043,6.406-4.248,1.47-7.917,2.74-7.917,9.228ZM83.4,10.877A11.132,11.132,0,0,0,72.284,22v7.2a11.119,11.119,0,0,0,22.238,0V22A11.132,11.132,0,0,0,83.4,10.877Z" transform="translate(-31)" fill="#3a648b"/>
</svg>
