<svg version="1.2" baseProfile="tiny-ps" xmlns="http://www.w3.org/2000/svg" viewBox="0 0 5156 4355" width="5156" height="4355">
	<title>Page 1</title>
	<style>
		tspan { white-space:pre }
		.shp0 { fill: #bcbcbc } 
		.shp1 { fill: #fbb08f } 
		.shp2 { fill: #c26a4d } 
		.shp3 { fill: #fa885d } 
		.shp4 { fill: #fcb08f } 
		.shp5 { fill: #2d515c } 
		.shp6 { fill: #83683a } 
		.shp7 { fill: #5fb4e2 } 
		.shp8 { fill: #41807f } 
		.shp9 { fill: #4ba1a4 } 
		.shp10 { fill: #ff9965 } 
		.shp11 { fill: #2a485d } 
		.shp12 { fill: #415b77 } 
	</style>
	<g id="Page 1">
		<path id="Path 1" class="shp0" d="M5132.2 4318.59L17.35 4318.59C8.4 4318.59 0.61 4325.79 0.03 4335.3C-0.6 4345.74 7.13 4354.41 16.77 4354.41L5132.2 4354.41C5141.47 4354.41 5149 4346.38 5149 4336.5C5149 4326.59 5141.47 4318.59 5132.2 4318.59Z" />
		<path id="Path 2" class="shp1" d="M585.67 3018.15C585.67 3018.15 582.44 3002.34 581.78 2997.04C581 2990.77 580.1 2971.88 580.1 2971.88C580.1 2971.88 580.07 2905.91 584.97 2906.3C589.84 2906.69 596.15 2918.02 597.59 2922.07C598.99 2926.16 601.06 2930.76 602.5 2934.84C603.94 2938.89 608.15 2941.23 613.33 2939.79C618.51 2938.39 616.36 2920.9 614.38 2915.02C608.3 2896.68 582.13 2850.92 579.6 2845.93C576.56 2840.09 597.59 2725.63 601.68 2685.86L601.72 2685.86C610.33 2620.94 622.48 2554.65 623.41 2547.76L739.04 2292.23L661.85 2213.44C661.85 2213.44 529.55 2495.22 524.57 2510.06C522.19 2517.15 513.82 2669.15 513.9 2669.15C514.48 2744.24 515.22 2810.45 514.99 2823.15C514.99 2823.15 504.08 2861 495.71 2884.72C487.37 2908.4 489.2 2933.56 487.88 2940.61C487.68 2941.62 481.8 2965.53 485.81 2995.48C489.32 3021.34 497.93 2995.09 497.93 2995.09C497.93 2995.09 500.15 2945.98 504 2946.8C507 2947.42 504.2 2974.18 507.74 3002.8C508.64 3010.17 509.57 3017.41 510.47 3024.07C512.84 3041.56 524.33 3044.95 524.8 3026.25C524.96 3019.63 524.96 3008.65 523.83 3000.82C522.62 2992.37 524.26 2984.19 524.33 2976.95C524.53 2962.5 524.45 2951.98 525.03 2952.29C525.81 2952.72 527.88 2949.84 529.08 2957.63C530.53 2966.98 529.2 2987.58 532.43 3001.17C534.26 3008.84 537.07 3025.2 537.07 3025.2C537.07 3025.2 544.59 3051.14 546.14 3051.06C554.71 3050.67 554.71 3030.53 550.86 3020.45C551.75 3012.7 548.29 2995.6 548.29 2995.6C548.29 2995.6 549.1 2959.38 554.24 2959.38C558.49 2959.34 573.37 3046.27 581.93 3045.3C588.94 3044.48 585.67 3018.15 585.67 3018.15Z" />
		<path id="Path 3" class="shp2" d="M692.04 2440.27C692.04 2440.27 644.05 2431.97 618.58 2422.47C584.66 2409.85 562.35 2398.79 562.35 2398.79C562.35 2398.79 599.58 2239.34 646.08 2142.52C665.28 2102.49 684.71 2083.17 711.82 2078.57C711.98 2078.54 768.95 2116.08 766.69 2206.47C766.15 2227.7 692.04 2440.27 692.04 2440.27Z" />
		<path id="Path 4" class="shp1" d="M839.56 2976.09L901.76 3548.21C901.76 3548.21 871.34 3669.21 875 3703.56C878.67 3737.95 942.62 4188.83 942.62 4188.83L939.93 4214.11L939.85 4288.81L1177.11 4288.81C1177.11 4288.81 1126.75 4265.6 1056.3 4219.68C1051.12 4216.29 1039.08 4205.46 1036.16 4183.89C1017.35 4044.93 1054.59 3581.35 1054.59 3581.35L1083.91 2977.96L839.56 2976.09ZM648.88 3096.43C635.49 3099.94 614.84 3591.87 603.74 3613.64C533.41 3751.86 516.66 4172.09 516.66 4172.09L496.21 4231.95L474.33 4305.32C474.33 4305.32 544.59 4324.56 581.43 4303.61L577.34 4231.28L573.6 4165.11L751.12 3641.56L848.25 3107.57L648.88 3096.43Z" />
		<path id="Path 5" class="shp3" d="M1001.89 2143.54C973.27 2103.27 855.1 1986.54 842.02 1986.78C803.73 1987.48 678.17 1987.52 653.6 2000.37L653.75 2027.87C654.41 2150.74 670.11 2273.11 700.99 2392.05C722.57 2474.97 742.98 2563.49 740.45 2595.27L741.07 2595.86C813.7 2668.1 928.32 2662.42 994.76 2583.32C994.76 2583.32 994.49 2495.18 1004.73 2414.8C1020.74 2288.88 1073.05 2243.63 1001.89 2143.54Z" />
		<path id="Path 6" class="shp1" d="M803.5 1861.72C803.5 1861.72 806.81 1943.7 799.64 1974.78C792.52 2005.86 782.97 2008.2 844.35 2017.66C868.5 2021.36 891.75 2026.89 891.75 2026.89C891.75 2026.89 885.44 1981.29 884.51 1962.01C882.91 1930.27 891.6 1832.32 891.6 1832.32L803.5 1861.72Z" />
		<path id="Path 7" class="shp3" d="M850.27 1902.5C862.89 1909.55 874.69 1913.68 885.56 1915.43C887.66 1876.72 891.6 1832.32 891.6 1832.32L807.55 1860.36C817.32 1877.15 831.19 1891.9 850.27 1902.5Z" />
		<path id="Path 8" class="shp1" d="M823.01 1632.15C823.01 1632.15 787.92 1644.53 768.56 1683.16C749.17 1721.79 741.96 1830.41 818.3 1872.9C856.08 1893.93 899.66 1897.9 920.18 1879.4C941.1 1860.55 938.56 1818.61 936.46 1783.75C932.29 1714.7 917.11 1610.19 823.01 1632.15ZM766.73 1768.49C771.1 1786.63 765.29 1804.12 753.84 1807.59C742.35 1811.01 729.54 1799.14 725.22 1780.99C720.89 1762.88 726.66 1745.35 738.15 1741.92C749.6 1738.46 762.41 1750.34 766.73 1768.49Z" />
		<path id="Path 9" class="shp3" d="M577.34 4230.97C544.94 4245.85 510.23 4236.66 496.21 4231.91L473.7 4305.59C473.7 4305.59 544.47 4326.55 581.31 4305.59L577.34 4230.97ZM937.4 4307.35L1184.08 4307.35C1193.19 4306.49 1195.41 4298.82 1192.26 4294.1C1185.72 4284.37 1156.97 4277.2 1124.61 4261.7C1067.86 4267.85 948.81 4227.54 939.85 4213.99C934.71 4241.1 932.33 4306.18 937.4 4307.35Z" />
		<path id="Path 10" class="shp4" d="M1432.87 2329.93C1437.62 2323.27 1453.63 2290.79 1453.63 2290.79C1453.63 2290.79 1470.22 2235.14 1466.79 2235.84C1464.73 2236.27 1457.91 2244.17 1449.81 2261C1444.86 2271.32 1439.45 2289.31 1434.31 2298.23C1425.35 2313.85 1415.3 2320.39 1417.8 2314.35C1419.59 2309.95 1425.74 2306.33 1431.16 2296.98C1444.36 2274.2 1456 2236.93 1450.94 2237.67C1446.46 2238.33 1433.73 2264.04 1419.63 2283.98C1413.44 2292.7 1395.99 2303.61 1385 2310.54C1385.12 2305.59 1386.48 2300.65 1387.22 2298.31C1388.63 2293.95 1408.22 2267.97 1400.54 2264.7C1392.87 2261.43 1346.25 2317.7 1346.25 2317.7L1327.09 2350.34L1325.42 2351.59L1325.34 2351.59C1325.34 2351.59 1092.67 2442.8 1084.89 2440.31C1066.58 2434.54 1004.07 2253.33 1004.07 2253.33L873.91 2276.77C872.01 2275.76 1010.73 2546.51 1036.59 2559.79C1059.34 2571.44 1301.15 2445.45 1346.56 2418.5C1409.15 2394.43 1433.57 2365.76 1443.73 2351.12C1449.19 2343.25 1470.14 2308.98 1470.14 2308.98C1470.14 2308.98 1474.62 2261.54 1471.23 2261.11C1459.74 2259.71 1456.59 2304.42 1456.59 2304.42C1456.59 2304.42 1441.05 2325.57 1438.36 2328.34C1431.66 2335.19 1432.87 2329.93 1432.87 2329.93Z" />
		<path id="Path 11" class="shp2" d="M789.87 2095.4C772.11 2170.72 866.86 2338.58 866.86 2338.58C866.86 2338.58 1001.85 2273.03 1025.57 2244.76C1025.57 2244.76 932.49 2091.11 926.69 2081.07C914.22 2059.41 870.53 2014.59 841.04 2022.8C822.27 2028.06 789.87 2095.4 789.87 2095.4Z" />
		<path id="Path 12" class="shp5" d="M811.33 1909.74C821.42 1840.65 935.99 1699.9 891.75 1641.1C855.96 1593.51 793.53 1607.75 753.77 1621.43C573.37 1683.47 583.76 1910.21 526.83 1945.69C423.58 2009.95 360.1 2049.99 352.66 2194.83C343.82 2366.62 489.71 2454.33 665.12 2412.3C759.49 2389.72 784.49 2358.83 822.31 2269.76C839.37 2229.61 873.76 2104.36 864.33 2043.17C855.92 1988.38 803.23 1965.4 811.33 1909.74Z" />
		<path id="Path 13" class="shp1" d="M879.91 1783.13C879.91 1803.58 872.47 1820.17 863.32 1820.17C854.17 1820.17 846.73 1803.58 846.73 1783.13C846.73 1762.68 854.17 1746.09 863.32 1746.09C872.47 1746.09 879.91 1762.68 879.91 1783.13Z" />
		<path id="Path 14" class="shp6" d="M1106.07 3348.26L1114.48 3008.84C1115.96 2912.92 1096.96 2817.85 1058.91 2730.49L994.76 2583.32C968.83 2591.81 944.37 2599.05 917.11 2602.21C857.79 2609.06 799.45 2602.24 740.45 2595.27C740.29 2597.57 740.02 2599.6 739.63 2601.27C728.96 2651.28 669.33 2762.7 644.21 2915.02C615.7 3087.9 605.03 3346.47 608.61 3366.76C881.2 3379.14 946.16 3389 1106.07 3348.26Z" />
		<path id="Path 15" fill-rule="evenodd" class="shp7" d="M4182.21 3339.64C3459.74 3448.69 3612.17 4408.97 4327.37 4300.99C5039.8 4193.43 4893.82 3232.18 4182.21 3339.64ZM4475.98 3017.46C4419.06 2953.2 4378.98 2848.81 4366 2762.9C4340.92 2596.72 4368.97 2449.7 4525.45 2250.23C4807.3 1890.91 5242.04 1559.22 5140.72 888C5029.61 152.04 4438.35 -84.59 3702.6 26.49C3343.55 80.7 2989.7 217.52 2705.92 451.07L2838.32 1327.94C2964.59 1177.84 3104.61 1058.91 3258.22 971.08C3498.75 833.67 3841.22 718.06 4070.36 873.8C4157.45 932.98 4220.62 1030.13 4239.53 1155.18C4314.49 1651.65 3794.45 1869.55 3632.32 2323.97C3536.13 2593.2 3588.61 2920.16 3709.78 3133.12L4475.98 3017.46Z" />
		<path id="Path 16" class="shp4" d="M1532.92 2172.4C1535.92 2183.49 1537.67 2187.16 1541.49 2194.6C1566.18 2242.58 1623.51 2311.04 1623.51 2311.04L1667.83 2204.45C1667.83 2204.45 1660.62 2170.96 1648.09 2123.13C1605.24 2135.05 1564.47 2141.98 1532.92 2172.4Z" />
		<path id="Path 17" class="shp8" d="M1787.08 2079.94C1787.08 2079.94 1539.81 2193.58 1531.83 2191.4C1526.69 2190 1430.42 2018.01 1429.4 1856.31C1428.9 1781.61 1501.61 1691.72 1582.69 1709.52C1623.51 1718.44 1622.89 1730.59 1683.29 1824.26C1743.7 1917.92 1787.08 2079.94 1787.08 2079.94Z" />
		<path id="Path 18" class="shp1" d="M1998.17 4117.4L1992.29 4221.27C1990.11 4234.4 1981.62 4266.92 1981.62 4278.88C1981.62 4323.82 2181.57 4240.75 2136.74 4220.81C2132.69 4219.02 2111.47 4205.38 2110.1 4190.08C2108.08 4166.52 2102.86 4118.85 2102.86 4118.85L1998.17 4117.4Z" />
		<path id="Path 19" class="shp9" d="M2136.28 4220.42C2136.28 4220.42 2089.31 4234.13 2065.28 4237.59C2041.25 4241.02 2009.54 4212.08 1992.52 4219.91C1973.83 4228.52 1974.53 4305.94 1974.53 4305.94C1974.53 4305.94 2226.28 4327.99 2297.08 4305.16C2325.12 4296.17 2232.24 4252.43 2136.28 4220.42Z" />
		<path id="Path 20" class="shp1" d="M1589.16 4117.4L1583.24 4221.27C1581.1 4234.4 1572.61 4266.92 1572.61 4278.88C1572.61 4323.82 1772.55 4240.75 1727.73 4220.81C1723.68 4219.02 1696.15 4195.22 1694.78 4179.91C1692.75 4156.35 1693.85 4118.85 1693.85 4118.85L1589.16 4117.4Z" />
		<path id="Path 21" class="shp9" d="M1727.22 4220.42C1727.22 4220.42 1680.29 4234.13 1656.26 4237.59C1632.23 4241.02 1600.53 4212.08 1583.51 4219.91C1564.78 4228.52 1564.04 4305.94 1564.04 4305.94C1564.04 4305.94 1816.92 4331.65 1888.03 4305.16C1915.68 4294.92 1823.23 4252.43 1727.22 4220.42Z" />
		<path id="Path 22" class="shp1" d="M1650.27 2229.84L1826.34 1966.57C1827.08 1964.23 1828.72 1959.52 1831.13 1952.31C1840.01 1926.22 1858.47 1871.85 1874.56 1817.75L1874.71 1817.17C1879.78 1798.28 1890.49 1765.29 1900.85 1733.39C1912.33 1697.91 1926.63 1653.94 1927.14 1646.44C1926.67 1645.15 1925.85 1642.86 1924.76 1639.8C1918.29 1621.9 1909.57 1579.31 1906.49 1560.79C1904.51 1548.99 1902.56 1520.32 1915.68 1520.32C1936.36 1520.32 1926.51 1548.95 1936.01 1566.84C1939.52 1554.88 1946.61 1531.18 1950.35 1507.17L1953.77 1451.2C1954.47 1446.98 1950.27 1416.1 1964.76 1416.1L1965.42 1416.12C1978.43 1417.14 1978.15 1449.97 1983.57 1505.49C1985.28 1499.11 1986.99 1491.4 1988.28 1484.32C1988.12 1480.52 1990.73 1463.83 1992.68 1455.02C1990.07 1439.54 1991.59 1415.14 2007.01 1417.44C2014.76 1418.6 2014.14 1452.65 2014.14 1452.65C2014.06 1457.33 2013.59 1493.33 2013.83 1500.45C2015.42 1488.37 2021.62 1436.84 2033.73 1436.84C2043.78 1436.84 2044.56 1450.71 2044.36 1461.68C2044.25 1468.18 2037.94 1524.01 2037.58 1530.49C2042.3 1522.02 2047.91 1472.83 2052.58 1472.83C2072.17 1472.83 2065.08 1542.78 2057.92 1561C2057.21 1562.87 2056.51 1566.53 2055.7 1570.76C2053.24 1583.23 2049.15 1604.09 2038.87 1622.81C2026.6 1645.26 2009.62 1680.97 2007.05 1686.43C2005.14 1697.6 1999.26 1737.68 1991.82 1788.11C1988.67 1809.73 1985.2 1833.37 1981.54 1857.91L1981.39 1857.87C1980.69 1863.16 1977.02 1880.07 1963.12 1943.35C1944.04 2029.97 1942.05 2033.71 1941.23 2035.31C1932.94 2050.92 1743.07 2326.12 1734.97 2337.84L1730.22 2344.73L1650.27 2229.84Z" />
		<path id="Path 23" class="shp3" d="M1977.8 1615.78C1977.8 1615.78 1963.51 1576.77 1938.08 1576.7C1938.08 1576.7 1952.29 1571.22 1964.48 1581.53C1976.67 1591.83 1977.8 1615.78 1977.8 1615.78Z" />
		<path id="Path 24" class="shp1" d="M1607.7 1540.41L1585.03 1693.44C1585.03 1693.44 1671.41 1767.43 1721.77 1751.82C1764.03 1738.73 1735.05 1679.77 1735.05 1679.77C1735.05 1679.77 1712.54 1598.09 1719.43 1555.28C1726.37 1512.46 1607.7 1540.41 1607.7 1540.41Z" />
		<path id="Path 25" class="shp10" d="M1623.98 1586.67C1645.63 1597.58 1688.43 1612.47 1721.77 1616.07C1718.58 1594.66 1716.75 1572.01 1719.43 1555.28C1722.63 1535.52 1699.07 1530.84 1672.78 1531.53C1638.39 1534.68 1607.7 1540.41 1607.7 1540.41L1603.37 1569.81C1609.88 1577.18 1616.77 1583.03 1623.98 1586.67Z" />
		<path id="Path 26" class="shp1" d="M1498.69 1363.92C1495.14 1363.94 1532.84 1534.86 1591.22 1564.26C1649.57 1593.67 1736.61 1578.34 1752.93 1532.3C1771 1481.38 1705.1 1307 1623 1284.85C1540.95 1262.7 1498.69 1363.92 1498.69 1363.92Z" />
		<path id="Path 27" class="shp11" d="M1566.22 1206.87C1519.64 1235.56 1498.22 1278.12 1491.02 1295.55C1469.17 1306.63 1442.68 1330.59 1429.99 1395.17C1414.33 1474.57 1469.91 1535.77 1528.79 1554.19C1587.68 1572.6 1597.65 1614.19 1597.65 1614.19L1603.45 1569.43C1603.45 1569.43 1590.37 1530.45 1570.66 1510.95C1550.95 1491.45 1580.01 1463.02 1582.54 1439.83C1584.53 1421.98 1572.18 1387.31 1574.87 1358.02C1574.87 1358.02 1607.58 1305.09 1639.83 1292.01C1694.82 1269.71 1626.04 1170.05 1566.22 1206.87Z" />
		<path id="Path 28" class="shp1" d="M1591.03 1469.59C1598.66 1489.34 1595.55 1508.93 1584.06 1513.37C1572.61 1517.81 1557.11 1505.4 1549.51 1485.66C1541.88 1465.91 1544.99 1446.31 1556.44 1441.88C1567.93 1437.44 1583.4 1449.85 1591.03 1469.59Z" />
		<path id="Path 29" class="shp4" d="M1808.43 2234.05L2148.12 2174.97C2148.12 2174.97 2109.44 2071.14 2095.65 2071.14C2081.83 2071.14 1838.8 2184.35 1838.8 2184.35L1819.45 2225.79L1808.43 2234.05Z" />
		<path id="Path 30" class="shp5" d="M1634.41 2482.64C1634.41 2482.64 1600.53 2657.47 1614.36 2790C1628.14 2922.58 1629.23 3393.51 1629.23 3393.51L1576.54 4146.97L1701.59 4149.89C1701.59 4149.89 1849.86 3396.79 1847.1 3416.1C1844.33 3435.42 1896.8 2885.85 1896.8 2885.85L1720.05 2466.05L1634.41 2482.64Z" />
		<path id="Path 31" class="shp12" d="M1667.56 2474.35C1667.56 2474.35 1645.48 2631.77 1673.09 2700.82C1700.7 2769.87 1909.96 3447.3 1912.72 3502.52C1915.49 3557.75 1985.09 4168.27 1985.09 4168.27L2130.47 4163.91L2161.94 3485.15L2096.08 2632.04L2032.13 2416.35L1667.56 2474.35Z" />
		<path id="Path 32" class="shp1" d="M1585.03 1693.44C1585.03 1693.44 1620.9 1718.52 1654.32 1715.6C1687.77 1712.71 1735.05 1679.77 1735.05 1679.77L1728.47 1656C1728.47 1656 1641.97 1642.56 1639.79 1644.01C1637.61 1645.46 1585.03 1693.44 1585.03 1693.44Z" />
		<path id="Path 33" class="shp4" d="M1967.17 2065.99C1967.17 2065.99 2095.65 2195.41 2153.64 2173.29C2211.64 2151.21 2235.63 2075.69 2094.14 1965.2C1967.48 1866.32 1967.17 2065.99 1967.17 2065.99Z" />
		<path id="Path 34" class="shp9" d="M2054.22 2225.79C2035.13 2114.95 1896.8 1770.08 1885.73 1706.56C1880.36 1675.68 1805.77 1674.98 1734.7 1679.03C1659.61 1683.27 1585.03 1693.44 1585.03 1693.44C1585.03 1693.44 1518.59 1705.08 1489.34 1734.29C1460.09 1763.54 1452.34 1844.43 1494.36 1997.92C1527.55 2119.12 1568.67 2185.64 1589.04 2273.89C1593.17 2303.53 1596.71 2332.74 1601.39 2366.85C1608.87 2498.84 1601.27 2673.17 1601.27 2673.17C1601.27 2673.17 1963.08 2753.28 2098.42 2631.77C2098.42 2631.77 2073.77 2339.32 2054.22 2225.79Z" />
		<path id="Path 35" class="shp8" d="M2146.48 1987.48C2146.48 1987.48 2004.52 2112.54 1996.23 2112.54C1990.89 2112.54 1793.63 1957.69 1748.1 1830.49C1722.94 1760.15 1775.71 1681.44 1836.04 1681.71C1877.83 1681.91 1896.41 1693.4 1979.28 1767.94C2062.12 1842.53 2146.48 1987.48 2146.48 1987.48Z" />
	</g>
</svg>