<svg xmlns="http://www.w3.org/2000/svg" width="143.905" height="133.412" viewBox="0 0 143.905 133.412">
  <g id="solid" transform="translate(-16 -32)" style="isolation: isolate">
    <path id="Path_35" data-name="Path 35" d="M34.4,163.359a2.391,2.391,0,0,0,.943-.194L45.9,158.64a7.191,7.191,0,0,0,12.483-4.874c0-.1,0-.195-.007-.292l11.392-4.557a7.19,7.19,0,0,0,12.6-4.745c0-.1,0-.195-.008-.292l11.392-4.557a7.183,7.183,0,0,0,11.207-.5l10.993,3.3a7.2,7.2,0,1,0,13.769-3.249L143.18,126.2a7.19,7.19,0,0,0,10.184-9.585l8.148-7.668v1.644a2.4,2.4,0,0,0,4.8,0v-7.2a2.4,2.4,0,0,0-2.4-2.4h-7.2a2.4,2.4,0,0,0,0,4.8h1.148l-8.157,7.677a7.193,7.193,0,0,0-9.444,8.888l-13.832,13.018a7.18,7.18,0,0,0-9.1,2.148l-10.993-3.3a7.2,7.2,0,0,0-14.381.348c0,.1,0,.2.007.292l-11.392,4.557a7.19,7.19,0,0,0-12.6,4.745c0,.1,0,.195.007.292L56.59,149.02a7.19,7.19,0,0,0-12.6,4.745c0,.157.007.312.017.467l-10.555,4.523a2.4,2.4,0,0,0,.945,4.6Z" transform="translate(-11.201 -48.314)" fill="#3a648b"/>
    <path id="Path_36" data-name="Path 36" d="M215.247,72.667a2.388,2.388,0,0,0-.724-.112h-11.59a77.7,77.7,0,0,0,.857-9.375h13.9A28.531,28.531,0,0,1,215.247,72.667ZM213.8,46.172a28.579,28.579,0,0,1,3.892,12.21h-13.9a77.886,77.886,0,0,0-1.346-12.21Zm-3.552-4.8h-8.882a77.749,77.749,0,0,0-2.373-7.59,28.879,28.879,0,0,1,11.255,7.59Zm-25.471-9.063a28.878,28.878,0,0,1,8.472,0,72.9,72.9,0,0,1,3.154,9.063h-14.78a72.828,72.828,0,0,1,3.154-9.063Zm-4.3,13.86h17.081a73.059,73.059,0,0,1,1.437,12.21H179.035a73.091,73.091,0,0,1,1.438-12.21Zm18.519,17.007a73.016,73.016,0,0,1-.914,9.375H179.948a72.949,72.949,0,0,1-.914-9.375ZM179.034,33.785a77.638,77.638,0,0,0-2.375,7.59h-8.882A28.879,28.879,0,0,1,179.034,33.785Zm-14.81,12.387h11.358a77.848,77.848,0,0,0-1.344,12.21h-13.9a28.579,28.579,0,0,1,3.892-12.21Zm-1.431,26.489a28.7,28.7,0,0,1-2.461-9.482h13.9a77.824,77.824,0,0,0,.858,9.375H163.5a2.4,2.4,0,0,0-.709.107Z" transform="translate(-101.06 0)" fill="#3a648b"/>
    <path id="Path_37" data-name="Path 37" d="M157.506,298.554H140.717V229h-9.594v69.554h-14.39V248.187H107.14v50.367H92.749V240.992H83.156v57.562H68.765V250.586H59.171v47.968H44.781V260.179H35.187v38.375H18.4a2.4,2.4,0,0,0,0,4.8H157.506a2.4,2.4,0,0,0,0-4.8Z" transform="translate(0 -137.939)" fill="#3a648b"/>
  </g>
</svg>
