<svg id="support" xmlns="http://www.w3.org/2000/svg" width="136.428" height="136.428" viewBox="0 0 136.428 136.428">
  <g id="Group_58" data-name="Group 58" transform="translate(11.369)">
    <g id="Group_57" data-name="Group 57">
      <path id="Path_53" data-name="Path 53" d="M74.107,0A34.107,34.107,0,0,0,40,34.107V59.119A15.935,15.935,0,0,0,55.917,75.035H58.19V70.488H55.917A11.383,11.383,0,0,1,44.548,59.119V34.107a29.559,29.559,0,1,1,59.119,0V59.119A11.383,11.383,0,0,1,92.3,70.488H90.023v4.548H92.3a15.935,15.935,0,0,0,15.917-15.917V34.107A34.107,34.107,0,0,0,74.107,0Z" transform="translate(-40)" fill="#3a648b"/>
    </g>
  </g>
  <g id="Group_60" data-name="Group 60" transform="translate(11.37 102.107)">
    <g id="Group_59" data-name="Group 59">
      <path id="Path_54" data-name="Path 54" d="M47.371,364.3l1.662-2.617-3.84-2.437-1.662,2.619a22.665,22.665,0,0,0,.939,25.655v6.046h4.548v-6.821a2.273,2.273,0,0,0-.5-1.421A18.115,18.115,0,0,1,47.371,364.3Z" transform="translate(-40.003 -359.248)" fill="#3a648b"/>
    </g>
  </g>
  <g id="Group_62" data-name="Group 62" transform="translate(84.13)">
    <g id="Group_61" data-name="Group 61">
      <path id="Path_55" data-name="Path 55" d="M336.928,0H307.369A11.383,11.383,0,0,0,296,11.369V34.107a11.383,11.383,0,0,0,11.369,11.369h4.548v9.1a2.274,2.274,0,0,0,1.4,2.1,2.245,2.245,0,0,0,.871.173,2.274,2.274,0,0,0,1.608-.666l10.7-10.7h10.428A11.383,11.383,0,0,0,348.3,34.107V11.369A11.383,11.383,0,0,0,336.928,0Zm6.821,34.107a6.821,6.821,0,0,1-6.821,6.821H325.559a2.273,2.273,0,0,0-1.608.666l-7.488,7.488V43.2a2.274,2.274,0,0,0-2.274-2.274h-6.821a6.821,6.821,0,0,1-6.821-6.821V11.369a6.821,6.821,0,0,1,6.821-6.821h29.559a6.821,6.821,0,0,1,6.821,6.821Z" transform="translate(-296)" fill="#3a648b"/>
    </g>
  </g>
  <g id="Group_64" data-name="Group 64" transform="translate(95.274 11.636)">
    <g id="Group_63" data-name="Group 63" transform="translate(0 0)">
      <rect id="Rectangle_12" data-name="Rectangle 12" width="16" height="4.364" fill="#3a648b"/>
    </g>
  </g>
  <g id="Group_66" data-name="Group 66" transform="translate(115.637 11.636)">
    <g id="Group_65" data-name="Group 65" transform="translate(0 0)">
      <rect id="Rectangle_13" data-name="Rectangle 13" width="9.455" height="4.364" fill="#3a648b"/>
    </g>
  </g>
  <g id="Group_68" data-name="Group 68" transform="translate(95.274 20.364)">
    <g id="Group_67" data-name="Group 67" transform="translate(0 0)">
      <rect id="Rectangle_14" data-name="Rectangle 14" width="29.818" height="4.364" fill="#3a648b"/>
    </g>
  </g>
  <g id="Group_70" data-name="Group 70" transform="translate(95.274 29.818)">
    <g id="Group_69" data-name="Group 69" transform="translate(0 0)">
      <rect id="Rectangle_15" data-name="Rectangle 15" width="16" height="4.364" fill="#3a648b"/>
    </g>
  </g>
  <g id="Group_72" data-name="Group 72" transform="translate(70.551 102.107)">
    <g id="Group_71" data-name="Group 71">
      <path id="Path_56" data-name="Path 56" d="M253.727,361.867l-1.662-2.619-3.84,2.438,1.662,2.619a18.111,18.111,0,0,1-1.148,21.021,2.273,2.273,0,0,0-.5,1.421v6.821h4.548v-6.046A22.665,22.665,0,0,0,253.727,361.867Z" transform="translate(-248.224 -359.248)" fill="#3a648b"/>
    </g>
  </g>
  <g id="Group_74" data-name="Group 74" transform="translate(0 19.852)">
    <g id="Group_73" data-name="Group 73">
      <path id="Path_57" data-name="Path 57" d="M134.154,127.3H113.69a15.916,15.916,0,0,0-15.885,15.269L90.952,154.91v-9.416a15.935,15.935,0,0,0-15.917-15.917H66.725l-.061-.048-.041.048h-5.23a4.547,4.547,0,0,1-4.548-4.548v-5.35a22.738,22.738,0,0,0,11.369-19.662V81.828a22.785,22.785,0,0,0-2.729-10.791,2.274,2.274,0,0,0-2.956-.978L24.043,88.167a2.274,2.274,0,0,0-1.305,2.058v9.793A22.738,22.738,0,0,0,34.107,119.68v5.35a4.547,4.547,0,0,1-4.548,4.548H15.917A15.935,15.935,0,0,0,0,145.494v40.928H4.548V145.494a11.383,11.383,0,0,1,11.369-11.369h7.235l20.476,28.609a2.274,2.274,0,0,0,1.819.95h.03a2.274,2.274,0,0,0,1.819-.91l21.6-28.65h6.139A11.383,11.383,0,0,1,86.4,145.494v18.19a2.274,2.274,0,0,0,4.261,1.1l10.719-19.293H114.42L92.25,186.422h5.173L119.6,145.494h.91a15.935,15.935,0,0,0,15.917-15.917A2.274,2.274,0,0,0,134.154,127.3ZM27.286,100.018V91.669L62.4,75.147a18.19,18.19,0,0,1,1.271,6.68v18.19a18.19,18.19,0,1,1-36.381,0Zm18.238,57.554-7.017-9.8H52.913Zm10.83-14.352H35.244l-6.51-9.1h.825a9.1,9.1,0,0,0,9.1-9.1v-3.322a22.721,22.721,0,0,0,13.643,0v3.322a9.1,9.1,0,0,0,9.1,9.1h1.819Zm64.157-2.274H102.548a11.387,11.387,0,0,1,11.142-9.1h17.963A11.387,11.387,0,0,1,120.511,140.946Z" transform="translate(0 -69.847)" fill="#3a648b"/>
    </g>
  </g>
</svg>
