<svg width="439" height="206" viewBox="0 0 439 206" fill="none" xmlns="http://www.w3.org/2000/svg">
<path d="M66 133.5C63.5 145 59 152.5 54 163C51.1783 167.67 52.4849 176 50 178.5C48.5 181.5 38.0917 180 32.5 180C26.5618 180 21.2865 178.969 17 175.5C13.7077 172.835 15.8423 167.226 13.5 163C8.25571 153.538 1 142.982 1 131C1 110 15.5 98.5 32.5 97.5C50 98.5 66 111.5 66 133.5Z" fill="#F9F648"/>
<path d="M342 15.0838L431.5 1L430.5 5.08374L438.5 2.08374L405 56.5837L382 41.0837C382 41.0837 365.872 55.4973 364.5 55.0837C363.128 54.6702 362.872 53.4973 362.872 53.4973L363.372 28.9973L360.872 26.4973L342 16.9973V15.0838Z" fill="white"/>
<path d="M24.9286 201.349C26.1609 203.468 28.5862 204.527 32.2026 204.527C39.5745 204.527 40.7208 203.546 44.0259 200.79C47.331 198.035 23.3447 202.011 21.5191 197.3C20.827 195.512 47.0014 197.896 47.3383 194.867C47.6213 192.318 20.5605 195.402 20.415 192.846C20.2923 190.707 47.8694 192.116 47.7961 189.559C47.7256 187.075 19.7878 190.552 19.6844 187.952C19.5736 185.162 48.0159 187.221 48.0287 184.678C48.0387 182.834 19.5086 184.8 19.4472 184.188C19.3859 183.575 20.4571 181.867 19.4784 180.398C18.4987 178.929 24.068 180.153 46.8046 180.086C49.3754 180.078 50.7213 179.107 51.2724 175.249C51.8236 171.392 52.0067 167.167 54.0264 161.84C56.0461 156.514 68.7154 140.166 65.5934 124.738C62.4723 109.309 47.906 97.7372 33.3406 97.7372C18.7743 97.7372 3.70904 108.622 1.5154 122.717C-1.27152 140.619 7.97181 153.605 11.8281 160.218C15.6834 166.831 15.1323 170.994 16.1732 174.239C17.2133 177.484 25.5676 178.004 29.3012 177.698C33.0339 177.392 40.3784 178.555 39.277 168.759C38.1756 158.963 30.5253 167.596 28.566 163.371C27.0105 160.014 21.8038 138.483 20.1202 132.697C18.604 127.484 32.7281 137.228 31.5654 147.758C30.4026 158.289 26.5464 127.922 32.7894 128.105C39.0316 128.289 38.5629 150.056 36.3701 149.81C33.878 149.529 36.198 141.202 39.9197 135.851C43.0994 131.277 47.8208 129.03 45.7334 134.136C42.5006 142.047 42.7606 151.74 39.84 159.043C38.4411 162.543 33.1932 163.767 30.9199 160.967C28.6457 158.167 31.0948 153.968 34.4182 155.018C37.7416 156.068 56.9552 166.384 78.8367 164.438C121.207 160.669 142.376 110.513 124.55 108.842C104.46 106.957 115.891 153.665 145.161 142.278C175.243 130.575 157.41 57.6217 206.438 93.4233C241.013 118.671 259.719 39.2974 285.578 83.7478C299.262 107.269 265.88 121.271 270.723 100.969C276.572 76.449 329.549 102.439 359.886 67.6563C362.644 64.4937 366.591 56.3212 369.828 48.9903C373.797 40.0035 380.596 32.5637 389.194 27.8147L437.26 1.2665C437.708 1.01921 438.191 1.52753 437.923 1.96259L405.285 54.7587C404.803 55.5381 403.77 55.7606 403.011 55.2487L382.163 41.1988C381.562 40.793 380.765 40.8388 380.214 41.3096L365.449 53.9142C364.4 54.8081 362.786 54.0635 362.786 52.686V29.3736C362.786 28.7077 363.195 28.1097 363.817 27.8688L430.605 1.96075C431.157 1.74643 430.938 0.919377 430.352 1.00639L342.952 14.0332C341.384 14.2668 341.057 16.3843 342.48 17.0813L360.338 25.819" stroke="black" stroke-width="1.5" stroke-linecap="round" stroke-linejoin="round"/>
</svg>
