<svg version="1.2" baseProfile="tiny-ps" xmlns="http://www.w3.org/2000/svg" viewBox="0 0 3674 3070" width="3674" height="3070">
	<title>Page 1</title>
	<defs>
		<linearGradient id="grd1" gradientUnits="userSpaceOnUse"  x1="1135.143" y1="2032.854" x2="1222.708" y2="3018.317">
			<stop offset="0" stop-color="#604d6e"  />
			<stop offset="1" stop-color="#d787ab"  />
		</linearGradient>
	</defs>
	<style>
		tspan { white-space:pre }
		.shp0 { fill: #83b5df } 
		.shp1 { fill: #b2c6e5 } 
		.shp2 { fill: #8ba2d4 } 
		.shp3 { fill: #604d6d } 
		.shp4 { fill: url(#grd1) } 
		.shp5 { fill: #7fa1d1 } 
		.shp6 { fill: #dae7f5 } 
		.shp7 { fill: #434f61 } 
		.shp8 { fill: #82a3d5 } 
		.shp9 { fill: #e6eef8 } 
		.shp10 { fill: #bfcee1 } 
		.shp11 { fill: #ffffff } 
		.shp12 { fill: #edf5fb } 
		.shp13 { fill: #d5e6f1 } 
		.shp14 { fill: #f36769 } 
		.shp15 { fill: #b2cbe2 } 
		.shp16 { fill: #ffae89 } 
		.shp17 { fill: #524851 } 
		.shp18 { fill: #645a69 } 
		.shp19 { fill: #ffcf57 } 
		.shp20 { fill: #4f4460 } 
		.shp21 { fill: #252e45 } 
		.shp22 { fill: #f4a485 } 
		.shp23 { fill: #644d46 } 
		.shp24 { fill: #e07151 } 
		.shp25 { fill: #fe9d78 } 
		.shp26 { fill: #f4aa41 } 
		.shp27 { fill: #f7a585 } 
	</style>
	<g id="Page 1">
		<path id="Path 2" class="shp0" d="M2654.48 2987.56C2654.52 2986.48 2654.54 2985.42 2654.54 2984.33C2654.54 2942.21 2624.86 2908.06 2588.23 2908.06L1140.79 2908.06C1108.23 2908.06 1081.16 2935.06 1075.55 2970.65C736.71 2959.4 418.69 2774.48 210.32 2466.9C10.31 2171.62 -116.91 1767.69 162.26 1324.82C611.43 612.25 1001.08 0.44 1560.11 0.44C1703.84 0.44 1858.76 40.87 2028.8 130.44C2541.62 400.6 2636.64 488.96 2774.07 488.96C2859.43 488.96 2961.14 454.89 3189.49 409.13C3202.63 406.5 3215.58 405.21 3228.28 405.21C3791.95 405.21 3921.99 2938.1 3016.95 2977.04C2902.2 2981.98 2780.14 2985.37 2654.48 2987.56Z" />
		<path id="Path 3" class="shp1" d="M2976.27 3060.58L1311.75 3060.58C1269.65 3060.58 1235.5 3026.44 1235.5 2984.33C1235.5 2979.65 1235.92 2975.08 1236.73 2970.65C1237.6 2970.67 1238.46 2970.69 1239.35 2970.71C1586.42 2980.04 2095.15 2990.73 2603.23 2990.73C2754.46 2990.73 2905.67 2989.77 3052.46 2987.56C3050.77 3028.17 3017.31 3060.58 2976.27 3060.58Z" />
		<path id="Path 4" class="shp2" d="M2603.23 2990.73C2095.15 2990.73 1586.42 2980.04 1239.35 2970.71C1238.46 2970.69 1237.6 2970.67 1236.73 2970.65C1243.19 2935.06 1274.31 2908.06 1311.75 2908.06L2976.27 2908.06C3018.4 2908.06 3052.52 2942.21 3052.52 2984.33C3052.52 2985.42 3052.5 2986.48 3052.46 2987.56C2905.67 2989.77 2754.46 2990.73 2603.23 2990.73Z" />
		<path id="Path 5" class="shp3" d="M1611.1 2493.6C1607.37 2493.6 1603.96 2491.17 1602.85 2487.44L1474.21 2047.33C1472.87 2042.79 1475.48 2038.02 1480.02 2036.69C1484.56 2035.35 1489.33 2037.98 1490.67 2042.52L1619.33 2482.6C1620.67 2487.17 1618.06 2491.94 1613.52 2493.25C1612.71 2493.5 1611.9 2493.6 1611.1 2493.6ZM731.9 2108.29C730.49 2108.29 729.04 2107.94 727.72 2107.19L487.67 1972.94C483.53 1970.62 482.05 1965.4 484.36 1961.25C486.69 1957.12 491.92 1955.65 496.05 1957.96L736.1 2092.21C740.24 2094.52 741.72 2099.75 739.4 2103.9C737.83 2106.71 734.91 2108.29 731.9 2108.29Z" />
		<path id="Path 6" class="shp4" d="M1516.48 2065.29C1516.48 2065.29 1528 1987.54 1560.46 1924.65C1592.92 1861.75 1673.46 1695.65 1620.31 1563.98C1567.15 1432.33 1302.02 1058.54 787.71 1007.29C787.71 1007.29 889.31 1167.34 892.96 1240.86C897.39 1329.66 886.61 1646.13 946.14 1747.77C1005.67 1849.42 1168.71 1943.58 1310.19 1988.58C1451.65 2033.58 1516.48 2065.29 1516.48 2065.29Z" />
		<path id="Path 7" class="shp3" d="M1517.19 2073.83C1516.56 2073.9 1515.94 2073.87 1515.35 2073.79C1511.44 2073.27 1508.27 2070.1 1507.92 2066C1507.81 2064.69 1495.62 1932.02 1403.21 1741.48C1317.9 1565.59 1144.83 1303 804.74 1050.92C800.94 1048.1 800.13 1042.72 802.96 1038.91C805.79 1035.1 811.15 1034.31 814.97 1037.13C1158.29 1291.6 1333 1557.04 1419.1 1734.9C1512.62 1928.08 1524.56 2059.08 1525.02 2064.56C1525.42 2069.29 1521.92 2073.44 1517.19 2073.83ZM1451.71 1841.35C1451.31 1841.31 1450.9 1841.23 1450.5 1841.12C1445.94 1839.83 1443.27 1835.1 1444.54 1830.54L1534.73 1508.94C1536.02 1504.37 1540.75 1501.7 1545.31 1502.99C1549.87 1504.27 1552.54 1509 1551.27 1513.56L1461.08 1835.17C1459.92 1839.33 1455.87 1841.92 1451.71 1841.35ZM1460.17 1863.29C1459.73 1863.23 1459.29 1863.15 1458.85 1863.02C1454.48 1861.75 1349.71 1829.15 1152.22 1612.12C1149.03 1608.63 1149.29 1603.19 1152.79 1600C1156.29 1596.81 1161.73 1597.04 1164.91 1600.56C1358.29 1813.08 1462.69 1846.25 1463.73 1846.56C1468.25 1847.92 1470.83 1852.69 1469.48 1857.23C1468.27 1861.31 1464.27 1863.83 1460.17 1863.29ZM1318.19 1583.46C1314.31 1582.96 1311.17 1579.85 1310.77 1575.79L1279.9 1264.34C1279.44 1259.61 1282.87 1255.41 1287.58 1254.94C1292.33 1254.49 1296.52 1257.92 1296.98 1262.64L1327.85 1574.1C1328.31 1578.84 1324.87 1583.02 1320.17 1583.5C1319.48 1583.56 1318.83 1583.54 1318.19 1583.46ZM1204.94 1427.13C1204.21 1427.03 1203.48 1426.84 1202.75 1426.54L986.11 1336.57C981.73 1334.75 979.65 1329.73 981.47 1325.35C983.29 1320.97 988.3 1318.9 992.69 1320.72L1209.33 1410.69C1213.71 1412.51 1215.79 1417.53 1213.98 1421.91C1212.46 1425.57 1208.69 1427.62 1204.94 1427.13ZM1056.93 1264.21C1054.31 1263.87 1051.89 1262.33 1050.52 1259.84L953.92 1084.31C951.64 1080.15 953.15 1074.94 957.31 1072.65C961.45 1070.36 966.68 1071.87 968.96 1076.03L1065.55 1251.56C1067.84 1255.72 1066.33 1260.94 1062.17 1263.22C1060.51 1264.14 1058.68 1264.44 1056.93 1264.21ZM2903.15 2517.31C2902.6 2517.42 2902.08 2517.46 2901.54 2517.46C2897.5 2517.46 2893.9 2514.58 2893.12 2510.44L2787.21 1943.77C2786.33 1939.1 2789.42 1934.62 2794.06 1933.75C2798.71 1932.87 2803.21 1935.94 2804.08 1940.6L2910 2507.29C2910.87 2511.96 2907.79 2516.44 2903.15 2517.31Z" />
		<path id="Path 8" class="shp5" d="M2944.29 244.5C2944.29 169.06 2890.65 107.9 2824.48 107.9L1607.25 107.9C1541.06 107.9 1487.44 169.06 1487.44 244.5L1487.44 1682.37L1487.44 2699.92L1487.44 2849.15C1487.44 2924.6 1541.06 2985.75 1607.25 2985.75L2824.48 2985.75C2890.65 2985.75 2944.29 2924.6 2944.29 2849.15L2944.29 244.5Z" />
		<path id="Path 9" class="shp6" d="M2730.73 2985.75L1513.5 2985.75C1447.33 2985.75 1393.67 2924.6 1393.67 2849.15L1393.67 244.5C1393.67 169.06 1447.33 107.9 1513.5 107.9L2730.73 107.9C2796.9 107.9 2850.54 169.06 2850.54 244.5L2850.54 2849.15C2850.54 2924.6 2796.9 2985.75 2730.73 2985.75Z" />
		<path id="Path 10" class="shp7" d="M2850.54 2793.42L1393.67 2793.42L1393.67 350.69L2850.54 350.69L2850.54 2793.42Z" />
		<path id="Path 11" class="shp8" d="M2374.4 269.75L1944.23 269.75C1934.65 269.75 1926.87 260.78 1926.87 249.72C1926.87 238.65 1934.65 229.69 1944.23 229.69L2374.37 229.69C2383.96 229.69 2391.73 238.65 2391.73 249.72C2391.73 260.78 2383.96 269.75 2374.4 269.75Z" />
		<path id="Path 12" class="shp9" d="M1513.5 133.15L2730.73 133.15C2796.9 133.15 2850.54 194.31 2850.56 269.75L2850.56 244.5C2850.54 169.06 2796.9 107.9 2730.73 107.9L1513.5 107.9C1447.33 107.9 1393.67 169.06 1393.67 244.5L1393.67 269.75C1393.67 194.31 1447.33 133.15 1513.5 133.15Z" />
		<path id="Path 13" class="shp10" d="M2730.73 2960.5L1513.5 2960.5C1447.33 2960.5 1393.69 2899.35 1393.67 2823.9L1393.67 2849.15C1393.69 2924.6 1447.33 2985.75 1513.5 2985.75L2730.73 2985.75C2796.9 2985.75 2850.56 2924.6 2850.56 2849.15L2850.56 2823.9C2850.56 2899.35 2796.9 2960.5 2730.73 2960.5Z" />
		<path id="Path 14" class="shp11" d="M2850.54 1280.6L2944.29 1236.19L2944.29 1308.97L2850.54 1349.68L2850.54 1280.6ZM2850.54 837.76L2944.29 798.28L2944.29 821.72L2850.54 862.43L2850.54 837.76Z" />
		<path id="Path 15" class="shp12" d="M802.02 2175.77L2637.17 2180.15L2637.17 627.86L802.02 627.86L802.02 2175.77Z" />
		<path id="Path 16" class="shp13" d="M2344.77 1393.28L1094.81 1393.28C1060.36 1393.28 1032.43 1365.35 1032.43 1330.9L1032.43 1277.03C1032.43 1242.58 1060.36 1214.65 1094.81 1214.65L2344.77 1214.65C2379.23 1214.65 2407.15 1242.58 2407.15 1277.03L2407.15 1330.9C2407.15 1365.35 2379.23 1393.28 2344.77 1393.28ZM2344.77 1715.5L1094.81 1715.5C1060.36 1715.5 1032.43 1687.58 1032.43 1653.12L1032.43 1599.25C1032.43 1564.81 1060.36 1536.87 1094.81 1536.87L2344.77 1536.87C2379.23 1536.87 2407.15 1564.81 2407.15 1599.25L2407.15 1653.12C2407.15 1687.58 2379.23 1715.5 2344.77 1715.5Z" />
		<path id="Path 17" class="shp14" d="M2344.77 2037.73L1094.81 2037.73C1060.36 2037.73 1032.43 2009.81 1032.43 1975.35L1032.43 1921.48C1032.43 1887.02 1060.36 1859.1 1094.81 1859.1L2344.77 1859.1C2379.23 1859.1 2407.15 1887.02 2407.15 1921.48L2407.15 1975.35C2407.15 2009.81 2379.23 2037.73 2344.77 2037.73Z" />
		<path id="Path 18" fill-rule="evenodd" class="shp11" d="M1603.96 1924.69L1609.54 1924.69L1609.54 1972.62L1639.08 1972.62L1639.08 1977.46L1603.96 1977.46L1603.96 1924.69ZM1656.15 1974.4C1651.9 1972.06 1648.58 1968.85 1646.21 1964.79C1643.81 1960.71 1642.62 1956.15 1642.62 1951.06C1642.62 1946 1643.81 1941.44 1646.21 1937.35C1648.58 1933.29 1651.9 1930.08 1656.15 1927.75C1660.4 1925.42 1665.12 1924.25 1670.35 1924.25C1675.58 1924.25 1680.29 1925.4 1684.48 1927.71C1688.69 1930.02 1691.98 1933.23 1694.4 1937.31C1696.81 1941.42 1698.02 1946 1698.02 1951.06C1698.02 1956.15 1696.81 1960.73 1694.4 1964.83C1691.98 1968.92 1688.69 1972.12 1684.48 1974.44C1680.29 1976.75 1675.58 1977.9 1670.35 1977.9C1665.12 1977.9 1660.4 1976.73 1656.15 1974.4ZM1681.67 1970.1C1685.02 1968.21 1687.67 1965.6 1689.56 1962.27C1691.48 1958.92 1692.44 1955.19 1692.44 1951.06C1692.44 1946.96 1691.48 1943.23 1689.56 1939.88C1687.67 1936.54 1685.02 1933.94 1681.67 1932.04C1678.29 1930.17 1674.52 1929.21 1670.35 1929.21C1666.19 1929.21 1662.4 1930.17 1659.02 1932.04C1655.62 1933.94 1652.96 1936.54 1651.02 1939.88C1649.08 1943.23 1648.12 1946.96 1648.12 1951.06C1648.12 1955.19 1649.08 1958.92 1651.02 1962.27C1652.96 1965.6 1655.62 1968.21 1659.02 1970.1C1662.4 1971.98 1666.19 1972.94 1670.35 1972.94C1674.52 1972.94 1678.29 1971.98 1681.67 1970.1ZM1747.67 1951.06L1753.02 1951.06L1753.02 1971.19C1750.56 1973.35 1747.65 1975.02 1744.29 1976.17C1740.92 1977.33 1737.37 1977.9 1733.67 1977.9C1728.38 1977.9 1723.62 1976.75 1719.42 1974.44C1715.19 1972.12 1711.87 1968.92 1709.46 1964.83C1707.06 1960.73 1705.85 1956.15 1705.85 1951.06C1705.85 1946 1707.06 1941.42 1709.46 1937.31C1711.87 1933.23 1715.19 1930.02 1719.42 1927.71C1723.62 1925.4 1728.42 1924.25 1733.73 1924.25C1737.75 1924.25 1741.44 1924.87 1744.81 1926.17C1748.17 1927.46 1751.02 1929.35 1753.33 1931.85L1749.85 1935.4C1745.69 1931.27 1740.4 1929.21 1733.96 1929.21C1729.69 1929.21 1725.83 1930.17 1722.4 1932.04C1718.96 1933.94 1716.25 1936.54 1714.29 1939.88C1712.33 1943.23 1711.35 1946.96 1711.35 1951.06C1711.35 1955.19 1712.33 1958.92 1714.29 1962.23C1716.25 1965.54 1718.94 1968.15 1722.35 1970.06C1725.77 1971.98 1729.6 1972.94 1733.88 1972.94C1739.31 1972.94 1743.9 1971.56 1747.67 1968.85L1747.67 1951.06ZM1768.77 1924.69L1774.35 1924.69L1774.35 1977.46L1768.77 1977.46L1768.77 1924.69ZM1835.62 1924.69L1835.62 1977.46L1831.02 1977.46L1797.1 1934.65L1797.1 1977.46L1791.52 1977.46L1791.52 1924.69L1796.12 1924.69L1830.1 1967.5L1830.1 1924.69L1835.62 1924.69Z" />
		<path id="Path 19" class="shp15" d="M2030.75 1322.26L1096.84 1322.26L1096.84 1284.02L2030.75 1284.02L2030.75 1322.26ZM1161.25 1630.21C1161.25 1648 1146.83 1662.42 1129.04 1662.42C1111.26 1662.42 1096.84 1648 1096.84 1630.21C1096.84 1612.44 1111.26 1598.02 1129.04 1598.02C1146.83 1598.02 1161.25 1612.44 1161.25 1630.21ZM1269.94 1630.21C1269.94 1648 1255.52 1662.42 1237.73 1662.42C1219.94 1662.42 1205.52 1648 1205.52 1630.21C1205.52 1612.44 1219.94 1598.02 1237.73 1598.02C1255.52 1598.02 1269.94 1612.44 1269.94 1630.21ZM1378.63 1630.21C1378.63 1648 1364.21 1662.42 1346.42 1662.42C1328.62 1662.42 1314.21 1648 1314.21 1630.21C1314.21 1612.44 1328.62 1598.02 1346.42 1598.02C1364.21 1598.02 1378.63 1612.44 1378.63 1630.21ZM1487.31 1630.21C1487.31 1648 1472.9 1662.42 1455.1 1662.42C1437.33 1662.42 1422.9 1648 1422.9 1630.21C1422.9 1612.44 1437.33 1598.02 1455.1 1598.02C1472.9 1598.02 1487.31 1612.44 1487.31 1630.21ZM1596 1630.21C1596 1648 1581.58 1662.42 1563.79 1662.42C1546.02 1662.42 1531.6 1648 1531.6 1630.21C1531.6 1612.44 1546.02 1598.02 1563.79 1598.02C1581.58 1598.02 1596 1612.44 1596 1630.21ZM1704.69 1630.21C1704.69 1648 1690.27 1662.42 1672.48 1662.42C1654.71 1662.42 1640.29 1648 1640.29 1630.21C1640.29 1612.44 1654.71 1598.02 1672.48 1598.02C1690.27 1598.02 1704.69 1612.44 1704.69 1630.21ZM1813.37 1630.21C1813.37 1648 1798.96 1662.42 1781.19 1662.42C1763.4 1662.42 1748.98 1648 1748.98 1630.21C1748.98 1612.44 1763.4 1598.02 1781.19 1598.02C1798.96 1598.02 1813.37 1612.44 1813.37 1630.21ZM1922.06 1630.21C1922.06 1648 1907.65 1662.42 1889.87 1662.42C1872.08 1662.42 1857.67 1648 1857.67 1630.21C1857.67 1612.44 1872.08 1598.02 1889.87 1598.02C1907.65 1598.02 1922.06 1612.44 1922.06 1630.21ZM2030.75 1630.21C2030.75 1648 2016.33 1662.42 1998.56 1662.42C1980.77 1662.42 1966.35 1648 1966.35 1630.21C1966.35 1612.44 1980.77 1598.02 1998.56 1598.02C2016.33 1598.02 2030.75 1612.44 2030.75 1630.21Z" />
		<path id="Path 20" class="shp13" d="M1922.06 913.67C1922.06 1025.95 1831.06 1116.96 1718.79 1116.96C1606.5 1116.96 1515.5 1025.95 1515.5 913.67C1515.5 801.4 1606.5 710.39 1718.79 710.39C1831.06 710.39 1922.06 801.4 1922.06 913.67Z" />
		<path id="Path 21" class="shp15" d="M1764.67 973.45C1796.19 956.91 1817.71 923.88 1817.71 885.8C1817.71 831.16 1773.42 786.87 1718.79 786.87C1664.15 786.87 1619.85 831.16 1619.85 885.8C1619.85 923.88 1641.37 956.91 1672.9 973.45C1629.67 986.4 1594.15 1017.17 1574.85 1057.24C1611.67 1094.13 1662.56 1116.96 1718.79 1116.96C1775.02 1116.96 1825.9 1094.13 1862.71 1057.24C1843.42 1017.17 1807.9 986.4 1764.67 973.45Z" />
		<path id="Path 22" class="shp16" d="M446.22 2927.12L407.54 3006.08L342.09 2985.04L367.74 2895.92L446.22 2927.12Z" />
		<path id="Path 23" class="shp17" d="M913.72 2118.52C913.59 2076.37 910.47 2034.21 904.39 1992.33L884.96 1858.52L840.95 1835.85C806.96 1818.35 766.82 1817.35 732.02 1833.19C697.21 1849.02 671.57 1879.9 662.42 1917.02L742.87 2478.4L743.08 2479.87C743.08 2526.69 781.75 2563.15 829.1 2563.15C876.44 2563.15 914.82 2525.21 914.82 2478.4L913.72 2118.52Z" />
		<path id="Path 24" class="shp18" d="M878.89 2119.75C856.04 2119.75 835.25 2103.92 829.98 2080.81L819.27 2033.94C818.58 2030.87 820.48 2027.85 823.52 2027.17C826.57 2026.48 829.6 2028.37 830.29 2031.42L841 2078.29C845.7 2098.9 866.34 2112.04 887.01 2107.56L896.34 2105.56C899.38 2104.9 902.4 2106.83 903.06 2109.87C903.72 2112.94 901.78 2115.94 898.73 2116.6L889.4 2118.63C885.88 2119.37 882.36 2119.75 878.89 2119.75Z" />
		<path id="Path 25" class="shp16" d="M761.92 1367.74L772.86 1369.4L765.8 1406.12L731.72 1415.66L641.13 1434.55L612.52 1385.81L616.33 1365.6L631.86 1362.56L761.92 1367.74ZM753.44 1261.93L761.73 1362.67C761.85 1366.04 761.61 1369.41 761.01 1372.73L750.09 1432.83C747.52 1446.97 738.61 1459.14 725.9 1465.86C695.1 1482.15 639.67 1511.37 638.65 1511.37C637.24 1511.37 594.86 1483.11 592.39 1479.94C589.91 1476.76 574.37 1438.26 574.37 1435.08C574.37 1432.63 605.82 1399.79 620.26 1384.83C625.04 1379.89 633.2 1374.48 635.42 1367.97C641.89 1348.98 643.77 1321.9 657.45 1263.3C662.52 1241.59 690.08 1208.45 712.37 1209.1L712.37 1209.1C737.05 1209.81 752.55 1237.26 753.44 1261.93ZM441.92 1716.44L485.03 1459.72C485.35 1456.82 485.82 1453.9 486.5 1450.98C495.55 1412.28 534.25 1388.24 572.96 1397.29C611.66 1406.34 635.7 1445.05 626.65 1483.75C626.35 1485.03 626.01 1486.3 625.65 1487.55L558.11 1743.58L558.1 1743.58C550.6 1775.67 518.51 1795.6 486.43 1788.1C454.35 1780.6 434.42 1748.52 441.92 1716.44Z" />
		<path id="Path 26" class="shp19" d="M649.55 1488.87L596.63 1669.81C596.63 1669.81 521.95 1706.67 436.25 1640.92L465.65 1448.15C473.95 1393.74 526.85 1357.94 580.44 1370.47C633.18 1382.8 664.75 1436.89 649.55 1488.87Z" />
		<path id="Path 27" class="shp20" d="M290.21 1455.46L360.97 1469.7C370.55 1471.63 375.4 1464.52 371.8 1453.82L329.01 1326.84C325.41 1316.14 314.72 1305.9 305.13 1303.97L234.37 1289.73C224.79 1287.8 219.94 1294.91 223.54 1305.61L266.33 1432.6C269.93 1443.29 280.62 1453.53 290.21 1455.46Z" />
		<path id="Path 28" class="shp16" d="M368.95 1467.9L368.97 1467.88L549.39 1719.12C550.83 1720.92 552.21 1722.79 553.46 1724.79C570.95 1752.73 562.49 1789.54 534.57 1807.02C506.64 1824.5 469.83 1816.04 452.34 1788.12L452.33 1788.12L294.71 1519.9C293.76 1518.67 292.87 1517.4 292.04 1516.06C278.73 1494.82 285.17 1466.82 306.41 1453.52C327.65 1440.22 355.65 1446.66 368.95 1467.9ZM381.31 1485.05L337.26 1412.8L327.01 1349.22L318.12 1349.22L318.12 1403.23L311.28 1401.63L303.08 1328.85L295.39 1328.85L293.17 1372.81L288.67 1400.07L280.97 1398.44L278.01 1330.54L269.58 1328.85L263.89 1399.58L258.19 1399.81L251.12 1348.31L244.52 1348.77L243.15 1401.86C243.15 1401.86 252.71 1466.05 287.47 1506.42L381.31 1485.05Z" />
		<path id="Path 29" class="shp17" d="M653.41 1280.57L645.71 1319.68C645.71 1319.68 706.91 1339.65 737.07 1278.05L653.41 1280.57ZM707.35 1863.92C680.69 1841.65 645.18 1833.08 611.3 1840.73C577.42 1848.4 549.04 1871.4 534.55 1902.98L398.55 2482.67C398.01 2484.69 397.52 2486.73 397.12 2488.81L396.13 2495.19L395.9 2496.75C390.89 2544.87 425.82 2587.94 473.94 2592.96C522.05 2597.98 562.31 2563.65 572.54 2516.62L577.39 2505.33C646.24 2387.1 716.01 2157.71 781.86 1926.19L707.35 1863.92ZM569.44 2511.17C569.87 2462.79 531 2423.23 482.62 2422.81C434.25 2422.37 394.69 2461.25 394.27 2509.62L393.93 2513.12L340.69 2938.6C405.46 2963.42 372.35 2948.83 448.06 2969.23C513.69 2769.79 544.54 2628.81 567.35 2519.44L569.44 2511.17Z" />
		<path id="Path 30" class="shp16" d="M1103.79 2825.25L1138.86 2886.79L1083.72 2928.19L1037.54 2865.08L1103.79 2825.25Z" />
		<path id="Path 31" class="shp21" d="M1059.29 2895.31L1044.17 2959.19C1044.17 2959.19 1018.79 2996.06 1011.36 3010.62C1003.94 3025.19 1019.74 3027.94 1019.74 3027.94L1033.57 3030.73C1041.87 3032.42 1050.47 3030.06 1056.76 3024.4L1092.86 2991.87L1101.05 2980.1L1122.55 2960.27C1126.91 2955.92 1166.3 2928.29 1170.35 2921.12C1174.41 2913.98 1161.62 2894.46 1161.62 2894.46L1124.88 2861.81C1105.47 2898.98 1059.29 2895.31 1059.29 2895.31ZM1055.05 2886.84L1039.93 2950.71C1039.93 2950.71 1014.55 2987.59 1007.12 3002.15C999.7 3016.71 1015.5 3019.46 1015.5 3019.46L1029.34 3022.25C1037.63 3023.94 1046.23 3021.59 1052.52 3015.92L1088.62 2983.4L1096.81 2971.63L1118.31 2951.8C1122.68 2947.44 1162.07 2919.82 1166.12 2912.65C1170.17 2905.5 1157.38 2885.98 1157.38 2885.98L1120.64 2853.34C1101.23 2890.5 1055.05 2886.84 1055.05 2886.84Z" />
		<path id="Path 32" class="shp17" d="M902.49 2436.42C879.32 2395.75 827.19 2381.77 786.05 2405.21C744.91 2428.65 728.63 2479.21 751.8 2519.87L753.09 2521.54L755.74 2524.96C758.52 2529.31 761.65 2533.29 765.06 2536.96L1035.9 2883.69C1090.22 2856.15 1066.91 2862.98 1120.94 2833.85C1031.79 2637.79 960.22 2501.87 902.49 2436.42Z" />
		<path id="Path 33" class="shp19" d="M877.76 1820.75C870.7 1797.46 854.1 1660.77 862.92 1583.06L854.21 1370.57L777.25 1367.04L770.4 1366.95C763.81 1396.19 720.23 1417.86 689 1417.86C657.06 1417.86 621.87 1394.48 616.04 1364.25L554.73 1369.77C554.73 1369.77 497.99 1398.35 499.87 1488.77C501.76 1579.19 506.56 1836.29 506.56 1836.29C506.56 1836.29 504.23 1926.48 500.03 1963.58C498.86 1973.96 504.15 1984.02 513.37 1988.92C543.19 2004.81 608.5 2033.75 675.27 2025.12C720.96 2019.23 779.62 2024.31 818.66 2015.96C859.61 2007.19 883.33 1992.29 901.57 1974.96C910.93 1966.04 914.62 1952.71 911.18 1940.25C901.58 1905.5 881.77 1834 877.76 1820.75Z" />
		<path id="Path 34" class="shp22" d="M656.27 1178.25C658.38 1194.49 646.92 1209.38 630.67 1211.49C614.42 1213.6 599.54 1202.14 597.43 1185.89C595.32 1169.65 606.78 1154.76 623.03 1152.65C639.27 1150.54 654.16 1162 656.27 1178.25Z" />
		<path id="Path 35" class="shp23" d="M645.76 1097.4C648.14 1115.71 635.23 1132.49 616.91 1134.86C598.6 1137.24 581.83 1124.33 579.45 1106.02C577.07 1087.7 589.99 1070.93 608.3 1068.55C626.61 1066.17 643.38 1079.09 645.76 1097.4ZM653.81 1130.07C656.19 1148.38 643.27 1165.15 624.96 1167.54C606.65 1169.91 589.87 1157 587.5 1138.69C585.12 1120.38 598.03 1103.6 616.34 1101.22C634.65 1098.84 651.43 1111.76 653.81 1130.07ZM667.07 1065.42C669.45 1083.74 656.54 1100.51 638.22 1102.89C619.91 1105.27 603.14 1092.35 600.76 1074.04C598.38 1055.73 611.3 1038.96 629.61 1036.58C647.92 1034.2 664.69 1047.11 667.07 1065.42ZM706.93 1049.2C709.31 1067.52 696.4 1084.29 678.09 1086.67C659.77 1089.05 643 1076.13 640.62 1057.82C638.24 1039.51 651.15 1022.74 669.47 1020.36C687.78 1017.98 704.55 1030.89 706.93 1049.2ZM792.39 1112.06C794.76 1130.37 781.85 1147.15 763.54 1149.52C745.23 1151.91 728.45 1138.99 726.07 1120.68C723.69 1102.37 736.61 1085.59 754.92 1083.21C773.23 1080.84 790.01 1093.75 792.39 1112.06ZM778.5 1082.86C781.71 1107.49 764.33 1130.05 739.7 1133.25C715.07 1136.45 692.51 1119.08 689.31 1094.45C686.11 1069.82 703.48 1047.26 728.11 1044.06C752.74 1040.86 775.3 1058.23 778.5 1082.86Z" />
		<path id="Path 36" class="shp16" d="M778.8 1165.59C786.9 1227.87 753.04 1289.42 699.27 1296.41C645.49 1303.39 623.56 1249.46 615.46 1187.17C607.37 1124.89 613.01 1072.45 666.78 1065.46C720.56 1058.47 770.71 1103.3 778.8 1165.59ZM796.24 1170.92C798.35 1187.17 786.89 1202.05 770.64 1204.16C754.39 1206.27 739.51 1194.81 737.4 1178.57C735.28 1162.32 746.74 1147.43 762.99 1145.32C779.24 1143.21 794.12 1154.67 796.24 1170.92Z" />
		<path id="Path 37" class="shp24" d="M777.67 1173.33C778.25 1177.78 775.11 1181.86 770.66 1182.43C766.21 1183.01 762.14 1179.87 761.56 1175.43C760.99 1170.98 764.12 1166.9 768.57 1166.32C773.02 1165.75 777.09 1168.88 777.67 1173.33Z" />
		<path id="Path 38" class="shp23" d="M613.34 1166.98C613.34 1166.98 627.71 1073.17 682.65 1064.89L679.18 1038.21L640.46 1050.68L591.33 1101.5L613.34 1166.98ZM682.65 1064.89C682.65 1064.89 745.43 1107.29 749.07 1160.75L774.13 1143.98L753.37 1071.31L707.39 1052.71L682.65 1064.89ZM745.22 1062.29C747.6 1080.6 734.68 1097.38 716.37 1099.76C698.06 1102.14 681.28 1089.22 678.9 1070.91C676.52 1052.6 689.44 1035.82 707.75 1033.45C726.06 1031.06 742.84 1043.98 745.22 1062.29ZM649.03 1087.83C650.95 1102.6 640.54 1116.13 625.77 1118.04C611.01 1119.96 597.48 1109.55 595.56 1094.78C593.64 1080.02 604.06 1066.49 618.82 1064.57C633.59 1062.65 647.11 1073.07 649.03 1087.83ZM688.96 1067.37C690.88 1082.13 680.46 1095.66 665.7 1097.58C650.94 1099.5 637.41 1089.08 635.49 1074.31C633.57 1059.55 643.99 1046.02 658.75 1044.11C673.52 1042.19 687.04 1052.6 688.96 1067.37ZM631.82 1115.24C633.41 1127.49 624.77 1138.71 612.52 1140.3C600.27 1141.9 589.05 1133.25 587.45 1121C585.86 1108.75 594.5 1097.53 606.75 1095.94C619 1094.35 630.22 1102.99 631.82 1115.24ZM743.23 1069.06C745.61 1087.37 732.69 1104.15 714.38 1106.53C696.07 1108.91 679.3 1095.99 676.92 1077.68C674.54 1059.37 687.45 1042.6 705.76 1040.22C724.07 1037.84 740.85 1050.75 743.23 1069.06ZM780.25 1094.52C782.63 1112.84 769.72 1129.61 751.41 1131.99C733.09 1134.37 716.32 1121.45 713.94 1103.14C711.56 1084.83 724.48 1068.06 742.79 1065.68C761.1 1063.3 777.87 1076.21 780.25 1094.52ZM788.49 1138.39C790.48 1153.73 779.66 1167.79 764.31 1169.78C748.97 1171.77 734.91 1160.95 732.92 1145.61C730.92 1130.26 741.75 1116.2 757.09 1114.21C772.44 1112.22 786.5 1123.04 788.49 1138.39ZM641.15 1162.76C641.88 1168.35 638.85 1173.35 634.38 1173.93C629.91 1174.51 625.71 1170.45 624.98 1164.87C624.25 1159.28 627.29 1154.28 631.75 1153.7C636.22 1153.12 640.43 1157.18 641.15 1162.76ZM699.86 1155.32C700.59 1160.91 697.67 1165.89 693.35 1166.45C689.04 1167.01 684.94 1162.94 684.22 1157.35C683.49 1151.77 686.41 1146.79 690.73 1146.22C695.05 1145.66 699.14 1149.74 699.86 1155.32Z" />
		<path id="Path 39" class="shp25" d="M664.67 1160.15C665.93 1163.94 667.03 1167.64 668.07 1171.45C669.11 1175.25 670.06 1179.09 670.86 1183.02C671.65 1186.96 672.37 1190.96 672.77 1195.19C673.15 1199.43 673.41 1203.79 672.76 1208.86L672.61 1210.07C671.79 1216.42 665.99 1220.91 659.63 1220.1C653.28 1219.29 648.78 1213.49 649.59 1207.13C649.78 1205.67 650.25 1204.27 650.91 1203.05C652.15 1200.77 653.16 1197.56 653.96 1194.25C654.77 1190.92 655.33 1187.33 655.8 1183.71C656.28 1180.08 656.6 1176.37 656.84 1172.64C657.07 1168.93 657.21 1165.11 657.24 1161.43L657.24 1161.32C657.26 1159.22 658.98 1157.53 661.08 1157.54C662.75 1157.56 664.16 1158.65 664.67 1160.15Z" />
		<path id="Path 40" class="shp23" d="M716.91 1131.96L681.17 1139.69L679.92 1130L716.05 1125.31L716.91 1131.96ZM608.69 1146.02L645.22 1144.36L643.96 1134.67L607.82 1139.37L608.69 1146.02Z" />
		<path id="Path 41" class="shp11" d="M684.47 1230.69C685.8 1240.93 678.58 1250.31 668.34 1251.64C658.1 1252.97 648.72 1245.75 647.39 1235.51L684.47 1230.69Z" />
		<path id="Path 42" class="shp18" d="M696.01 2157.12C693.25 2157.12 690.83 2155.08 690.42 2152.27L674.09 2038.29C673.65 2035.21 675.79 2032.33 678.88 2031.9C681.99 2031.46 684.84 2033.6 685.28 2036.69L701.61 2150.67C702.05 2153.75 699.91 2156.62 696.82 2157.06C696.55 2157.1 696.28 2157.12 696.01 2157.12Z" />
		<path id="Path 43" class="shp26" d="M501.22 1558.71C499.67 1558.71 498.4 1557.46 498.39 1555.92L497.86 1471.45C503.36 1399 570.63 1368.51 571.31 1368.21C572.74 1367.58 574.4 1368.22 575.04 1369.65C575.67 1371.08 575.02 1372.75 573.59 1373.38C572.95 1373.66 508.73 1402.86 503.5 1471.65L504.04 1555.87C504.05 1557.44 502.8 1558.71 501.24 1558.71L501.22 1558.71ZM838.2 1890.92C836.64 1890.92 835.38 1889.67 835.38 1888.1C835.38 1886.54 836.64 1885.27 838.2 1885.27C858.75 1885.27 882.55 1857 882.79 1856.71C883.79 1855.52 885.57 1855.35 886.77 1856.35C887.97 1857.35 888.13 1859.12 887.14 1860.33C886.09 1861.58 861.39 1890.92 838.2 1890.92ZM842.51 1677.56C842.51 1677.56 897.42 1750.5 989.9 1660.02L954.78 1588.79L872.66 1615.54L842.51 1677.56Z" />
		<path id="Path 44" class="shp16" d="M981.4 1704.92L962.28 1445.31C962.24 1442.39 962.04 1439.44 961.63 1436.47C956.21 1397.1 919.9 1369.58 880.52 1375C841.15 1380.42 813.62 1416.73 819.04 1456.1C819.22 1457.41 819.44 1458.7 819.69 1459.98L863.19 1721.19L863.21 1721.19C867.7 1753.81 897.8 1776.65 930.44 1772.15C963.08 1767.65 985.9 1737.54 981.4 1704.92Z" />
		<path id="Path 45" class="shp19" d="M989.9 1660.02L982.58 1464.21C982.79 1459.25 982.61 1454.22 982.02 1449.15L981.8 1443.17L981.16 1443.27C972.2 1393.26 925.29 1358.81 874.5 1365.8C822.65 1372.94 786.35 1420.57 793.08 1472.38L793.06 1472.39L793.1 1472.53C793.12 1472.72 793.14 1472.91 793.16 1473.1C794.08 1479.77 795.68 1486.17 797.86 1492.26L842.51 1677.56C869.45 1638.79 933.92 1623.75 989.9 1660.02Z" />
		<path id="Path 46" class="shp26" d="M842.39 1680.13C841.27 1680.08 840.29 1679.31 840.01 1678.17L793.24 1486.07C775.15 1413.04 837.78 1375.9 838.42 1375.54C839.64 1374.82 841.21 1375.24 841.93 1376.47C842.64 1377.7 842.22 1379.28 840.99 1379.99C838.54 1381.41 781.09 1415.61 798.24 1484.84L845.01 1676.96C845.34 1678.33 844.5 1679.73 843.12 1680.06C842.87 1680.13 842.63 1680.15 842.39 1680.13Z" />
		<path id="Path 47" class="shp16" d="M931 2036.75L931.03 2036.75L980.56 1731.44C981.05 1729.19 981.45 1726.9 981.68 1724.54C984.89 1691.75 960.91 1662.56 928.12 1659.35C895.33 1656.15 866.14 1680.13 862.94 1712.92L862.92 1712.92L841.37 2023.29C841.06 2024.81 840.83 2026.35 840.68 2027.92C838.24 2052.85 856.48 2075.04 881.42 2077.5C906.36 2079.94 928.56 2061.69 931 2036.75ZM931 2038.81L946.93 2096.69L939.22 2101.83L925.71 2077.71L931 2038.81ZM840.46 2036.23L856.64 2153.58L925.71 2153.58L931 2036.75L840.46 2036.23Z" />
		<path id="Path 48" class="shp27" d="M866.23 2153.58L866.23 2085.67L875.66 2153.58L866.23 2153.58ZM887.88 2153.71L886.76 2077.71L897.31 2153.71L887.88 2153.71ZM909.1 2153.71L909.1 2085.79L918.53 2153.71L909.1 2153.71Z" />
		<path id="Path 49" class="shp21" d="M344.25 2972.85L291.22 3011.56C291.22 3011.56 247.97 3023.04 232.86 3029.29C217.74 3035.52 227.96 3047.87 227.96 3047.87L236.65 3059C241.86 3065.69 249.92 3069.48 258.38 3069.27L306.96 3068.04L320.84 3064.42L350.06 3063.35C356.22 3062.87 404.1 3067.5 411.83 3064.71C419.56 3061.92 422.55 3038.77 422.55 3038.77L415.87 2990.06C376.95 3005.67 344.25 2972.85 344.25 2972.85Z" />
	</g>
</svg>