<svg version="1.2" baseProfile="tiny-ps" xmlns="http://www.w3.org/2000/svg" viewBox="0 0 1440 1396" width="1440" height="1396">
	<title>Analysis</title>
	<defs>
		<clipPath clipPathUnits="userSpaceOnUse" id="cp1">
			<path d="M631.88 744.31L569.71 780.21L531.49 802.25C530.26 802.88 529.06 803.58 527.89 804.34C513.65 813.12 503.61 828.75 503.61 847.92L503.57 1026.57C503.57 1043.94 495.3 1058.47 483.08 1067.56C474.27 1074.16 463.4 1077.95 452.16 1077.95C443.63 1077.95 434.89 1075.77 426.61 1071C378.99 1043.5 349.65 992.68 349.65 937.7L349.65 752.38C349.65 724.88 342.32 698.41 329.02 675.42C315.73 652.4 296.49 632.82 272.68 619.08L554.91 456.13C578.75 469.9 597.99 489.54 611.28 512.53C624.58 535.56 631.9 561.99 631.9 589.5L631.9 670.22C631.9 685.61 631.9 710.31 631.88 744.31Z" />
		</clipPath>
	</defs>
	<style>
		tspan { white-space:pre }
		.shp0 { fill: #f0f0f0 } 
		.shp1 { fill: #e0e0e0 } 
		.shp2 { fill: #37474f } 
		.shp3 { fill: #263238 } 
		.shp4 { fill: #27debf } 
		.shp5 { fill: #000000 } 
		.shp6 { fill: #0873aa;stroke: #ffffff;stroke-width: 3 } 
		.shp7 { fill: #455a64 } 
		.shp8 { fill: #ffffff } 
		.shp9 { fill: #ffa8a7 } 
		.shp10 { fill: #f28f8f } 
		.shp11 { fill: #e6e6e6 } 
		.shp12 { fill: #309dd5 } 
		.shp13 { opacity: 0.251;fill: #000000 } 
		.shp14 { opacity: 0.2;fill: #000000 } 
		.shp15 { fill: #f5f5f5 } 
		.shp16 { fill: #fafafa } 
		.shp17 { opacity: 0.149;fill: #000000 } 
		.shp18 { fill: #0873aa } 
		.shp19 { opacity: 0.4;fill: #000000 } 
		.shp20 { fill: #3590be } 
		.shp21 { opacity: 0.702;fill: #ffffff } 
		.shp22 { opacity: 0.149;fill: #0873aa } 
		.shp23 { opacity: 0.502;fill: #3590be } 
		.shp24 { opacity: 0.702;fill: #3590be } 
		.shp25 { opacity: 0.149;fill: #ffffff } 
		.shp26 { opacity: 0.502;fill: #ffffff } 
		.shp27 { fill: none;stroke: #ffffff;stroke-linecap:round;stroke-linejoin:round;stroke-width: 3.158 } 
		.shp28 { opacity: 0.502;fill: #000000 } 
	</style>
	<g id="Floor">
		<path id="Floor 1 " class="shp0" d="M1228.6 686.35C1509.49 848.53 1509.49 1111.46 1228.6 1273.63C947.71 1435.81 492.29 1435.81 211.4 1273.63C-69.49 1111.46 -69.49 848.53 211.4 686.35C492.29 524.18 947.71 524.18 1228.6 686.35Z" />
	</g>
	<g id="Shadows">
		<path id="Shadow 2 " class="shp1" d="M1057.27 919.52C1006.2 949 1006.21 996.8 1057.27 1026.29C1108.34 1055.77 1191.14 1055.77 1242.21 1026.29C1293.28 996.81 1293.28 949 1242.21 919.52C1191.14 890.03 1108.34 890.03 1057.27 919.52Z" />
		<path id="Shadow 11 " class="shp1" d="M315 1026.42L899.94 1364.14L1168.03 1209.36L582.98 871.56L315 1026.42Z" />
		<path id="Shadow 18 " class="shp1" d="M211.02 1093.03L89.96 1023.13C86.37 1021.06 86.37 1017.7 89.96 1015.63L515.67 769.85C519.26 767.78 525.08 767.78 528.66 769.85L649.72 839.74C653.3 841.81 653.3 845.17 649.72 847.24L224.01 1093.03C220.42 1095.1 214.61 1095.1 211.02 1093.03Z" />
	</g>
	<g id="Device">
		<g id="Device 3 ">
			<g id="Device 10 ">
				<g id="&lt;Group&gt;">
					<path id="&lt;Compound Path&gt;" fill-rule="evenodd" class="shp2" d="M606.77 34.53L606.77 844.84C606.77 853.17 600.91 863.31 593.72 867.49L234.4 1074.91C227.21 1079.09 221.35 1075.7 221.35 1067.37L221.35 257.06C221.35 248.73 227.21 238.59 234.4 234.41L593.72 26.99C600.91 22.81 606.77 26.2 606.77 34.53ZM587.96 131.23C587.96 124.11 582.96 121.2 576.76 124.79L250.06 313.37C243.89 316.97 238.85 325.64 238.85 332.8L238.85 967.55C238.85 974.71 243.89 977.59 250.06 974.02L576.76 785.41C582.96 781.85 587.96 777.3 587.96 770.18L587.96 131.23Z" />
				</g>
				<g id="&lt;Group&gt;">
					<path id="&lt;Path&gt;" class="shp3" d="M232.77 1075.73C225.53 1079.06 214.98 1078.77 208.25 1074.92L193.31 1066.28C186.06 1062.11 180.21 1052.02 180.21 1043.64L180.21 233.38C180.21 230.21 181.05 226.84 182.47 223.61C182.92 222.54 183.44 221.51 184.02 220.47C184.04 220.47 184.05 220.46 184.05 220.44L225.17 244.18L225.2 244.18C224.33 245.74 223.55 247.35 222.94 248.97C221.94 251.69 221.35 254.47 221.35 257.06L221.35 1067.38C221.35 1075.05 226.34 1078.54 232.77 1075.73Z" />
				</g>
				<path id="&lt;Path&gt;" class="shp4" d="M417.16 899.99C428.56 893.41 437.79 898.74 437.79 911.9C437.79 925.05 428.56 941.05 417.16 947.63C405.77 954.21 396.54 948.87 396.54 935.72C396.54 922.56 405.77 906.57 417.16 899.99Z" />
				<g id="&lt;Group&gt;">
					<path id="&lt;Path&gt;" class="shp5" d="M414.06 148.18C418.9 145.38 422.82 147.65 422.82 153.23C422.82 158.82 418.9 165.61 414.06 168.41C409.22 171.2 405.3 168.94 405.3 163.35C405.3 157.76 409.22 150.97 414.06 148.18Z" />
					<path id="&lt;Path&gt;" class="shp5" d="M380.24 201.46L447.87 162.41C451.91 160.08 455.18 161.74 455.18 166.11C455.18 170.48 451.91 175.91 447.88 178.24L380.24 217.29C376.21 219.62 372.94 217.96 372.94 213.59C372.94 209.22 376.21 203.79 380.24 201.46Z" />
				</g>
				<path id="&lt;Path&gt;" class="shp6" d="M587.96 769.51C587.96 776.64 582.96 781.18 576.76 784.74L250.06 973.36C243.89 976.92 238.85 974.04 238.85 966.88L238.85 332.13C238.85 324.97 243.89 316.3 250.06 312.71L576.76 124.13C582.96 120.53 587.96 123.44 587.96 130.57L587.96 769.51Z" />
				<g id="&lt;Group&gt;">
					<path id="&lt;Path&gt;" class="shp7" d="M606.64 32.45C605.7 25.66 600.27 23.2 593.73 26.99L234.39 234.41C230.8 236.48 227.53 240.07 225.17 244.18L184.05 220.44C186.45 216.33 189.68 212.8 193.31 210.73L552.58 3.27C559.76 -0.9 571.47 -0.9 578.72 3.27L593.73 11.88C600.33 15.73 605.8 24.56 606.64 32.45Z" />
				</g>
			</g>
			<g id="&lt;Group&gt;">
				<path id="&lt;Compound Path&gt;" fill-rule="evenodd" class="shp8" d="M336.24 417.95C339.98 415.79 343.4 414.67 346.49 414.6C349.58 414.53 352.25 415.39 354.5 417.17C356.75 418.97 358.52 421.64 359.79 425.21C361.07 428.77 361.78 433.05 361.94 438.05C362 439.77 362.03 441.37 362.03 442.83C362.03 444.29 362.03 445.69 362.03 447.02C362.03 448.36 362.03 449.74 362.03 451.16C362.03 452.58 362 454.14 361.94 455.84C361.78 461.11 361.08 466.23 359.83 471.22C358.58 476.19 356.86 480.87 354.67 485.22C352.47 489.58 349.85 493.49 346.81 496.96C343.78 500.42 340.39 503.23 336.64 505.39L314.68 518.08C314.08 518.42 313.57 518.38 313.13 517.97C312.7 517.55 312.48 516.88 312.48 515.96L312.48 435.05C312.48 434.13 312.7 433.21 313.13 432.29C313.57 431.37 314.08 430.74 314.68 430.4L336.24 417.95ZM346.9 446.24C346.57 436.83 342.88 434.15 335.83 438.23L327.54 443.02L327.54 490.61L336.24 485.59C343.07 481.64 346.63 474.79 346.9 465.03C346.95 463.25 346.98 461.58 346.98 460.04C346.98 458.49 346.98 456.99 346.98 455.53C346.98 454.06 346.98 452.58 346.98 451.08C346.98 449.58 346.95 447.97 346.9 446.24Z" />
				<path id="&lt;Compound Path&gt;" fill-rule="evenodd" class="shp8" d="M398.94 381.17C400.02 380.55 400.85 380.53 401.42 381.12C401.99 381.71 402.38 382.4 402.6 383.19L420.34 451.86C420.55 452.57 420.66 453.14 420.66 453.56C420.66 454.31 420.48 455.06 420.13 455.8C419.78 456.55 419.36 457.06 418.87 457.34L408.62 463.26C407.54 463.89 406.76 463.98 406.3 463.54C405.84 463.09 405.56 462.57 405.45 461.96L403.17 452.88L381.53 465.38L379.25 477.09C379.14 477.82 378.86 478.67 378.4 479.65C377.93 480.63 377.16 481.42 376.08 482.05L365.83 487.97C365.34 488.25 364.92 488.22 364.57 487.88C364.21 487.55 364.04 487 364.04 486.24C364.04 485.83 364.15 485.14 364.36 484.18L382.1 395.03C382.31 393.99 382.71 392.84 383.28 391.59C383.85 390.34 384.68 389.41 385.76 388.78L398.94 381.17ZM385.76 443.52L398.94 435.91L392.35 409.65L385.76 443.52Z" />
				<path id="&lt;Compound Path&gt;" class="shp8" d="M464.38 343.97C464.97 343.63 465.49 343.66 465.92 344.08C466.35 344.5 466.57 345.17 466.57 346.08L466.57 359.36C466.57 360.28 466.35 361.2 465.92 362.12C465.49 363.04 464.97 363.67 464.38 364.01L450.06 372.28L450.06 436.53C450.06 437.45 449.84 438.37 449.4 439.29C448.97 440.21 448.46 440.84 447.86 441.19L437.2 447.34C436.6 447.68 436.09 447.65 435.66 447.23C435.22 446.81 435.01 446.14 435.01 445.22L435.01 380.97L420.69 389.24C420.09 389.58 419.57 389.54 419.14 389.13C418.7 388.71 418.49 388.04 418.49 387.12L418.49 373.84C418.49 372.92 418.7 372.01 419.14 371.09C419.57 370.17 420.09 369.54 420.69 369.19L464.38 343.97Z" />
				<path id="&lt;Compound Path&gt;" fill-rule="evenodd" class="shp8" d="M498.3 324.38C499.39 323.76 500.21 323.74 500.78 324.33C501.35 324.92 501.74 325.61 501.96 326.4L519.7 395.07C519.91 395.78 520.02 396.35 520.02 396.77C520.02 397.52 519.85 398.27 519.49 399.01C519.14 399.76 518.72 400.27 518.23 400.55L507.98 406.47C506.9 407.1 506.12 407.19 505.66 406.75C505.2 406.31 504.92 405.78 504.81 405.17L502.53 396.09L480.89 408.59L478.61 420.3C478.51 421.03 478.22 421.88 477.76 422.86C477.3 423.84 476.52 424.63 475.44 425.26L465.19 431.18C464.7 431.46 464.28 431.44 463.93 431.09C463.58 430.76 463.4 430.21 463.4 429.46C463.4 429.04 463.51 428.35 463.72 427.39L481.46 338.24C481.68 337.2 482.07 336.05 482.64 334.8C483.21 333.56 484.04 332.62 485.12 331.99L498.3 324.38ZM485.12 386.73L498.3 379.12L491.71 352.86L485.12 386.73Z" />
			</g>
		</g>
	</g>
	<g id="Character">
		<g id="Character 4 ">
			<g id="&lt;Group&gt;">
				<g id="&lt;Group&gt;">
					<path id="&lt;Path&gt;" class="shp9" d="M1132.18 335.36C1113.13 336.25 1106.6 339.88 1096.62 351.63C1090.13 359.28 1071.22 392.13 1039.89 450.19C1045.77 466.67 1055.14 474.21 1068 472.81L1104.09 414.63L1132.18 335.36Z" />
				</g>
			</g>
			<path id="&lt;Path&gt;" class="shp1" d="M1134.71 335.39C1125.58 334.2 1117.77 334.79 1111.26 337.14C1101.5 340.67 1096.62 347.74 1089.9 358C1086.43 363.3 1078.62 376.94 1066.48 398.92C1072.39 415.38 1083.77 423.61 1100.59 423.61L1134.71 335.39Z" />
			<g id="Character 22 ">
				<g id="&lt;Group&gt;">
					<path id="&lt;Path&gt;" class="shp3" d="M1199.99 954.72L1199.99 950.59C1198.36 955.44 1190.81 976.29 1179.35 986.74C1170.24 995.05 1157.82 1004.64 1154.66 1013.9C1151.37 1023.53 1171.95 1026.77 1180.46 1025.26C1190.34 1023.51 1203.14 1017.9 1210.1 1009.35C1214.99 1003.33 1218.11 996.21 1221.61 991.48C1225.1 986.75 1233.16 981.47 1235.05 975.99C1236.09 972.98 1234.86 966.4 1233.4 960.83C1232.06 955.73 1230.61 950.11 1228.86 950.59C1228.86 951.01 1228.86 952.06 1228.86 953.74C1226.77 956.06 1220.97 958.37 1214.43 958.62C1210.2 958.78 1199.95 957.95 1199.99 954.72Z" />
					<path id="&lt;Path&gt;" class="shp9" d="M1171.11 994.05C1173.93 991.52 1176.77 989.06 1179.35 986.71C1187.36 979.41 1193.46 967.03 1196.96 958.58C1198.96 953.75 1199.99 948.6 1199.99 943.38L1199.99 926.93L1228.86 926.93L1228.86 953.71L1228.86 953.71L1228.86 953.72L1228.86 954.43L1228.72 954.5C1227.33 960.51 1214.08 976.47 1206.55 986.87C1201.5 993.85 1191.91 1002.72 1180.46 1004.25C1169.6 1005.7 1164.05 1002.28 1171.11 994.05Z" />
					<path id="&lt;Path&gt;" class="shp3" d="M1098.07 926.26L1098.07 922.13C1096.44 926.97 1088.89 947.82 1077.43 958.27C1068.32 966.58 1055.9 976.18 1052.74 985.44C1049.45 995.07 1070.03 998.31 1078.54 996.8C1088.42 995.05 1101.22 989.44 1108.18 980.88C1113.07 974.87 1116.19 967.74 1119.69 963.01C1123.18 958.28 1131.24 953 1133.13 947.53C1134.17 944.52 1132.93 937.93 1131.48 932.37C1130.14 927.26 1128.69 921.65 1126.94 922.13C1126.94 922.54 1126.94 923.59 1126.94 925.28C1124.85 927.6 1119.05 929.91 1112.51 930.16C1108.28 930.32 1098.03 929.48 1098.07 926.26Z" />
					<path id="&lt;Path&gt;" class="shp9" d="M1069.19 965.58C1072.01 963.06 1074.85 960.6 1077.43 958.25C1085.44 950.94 1091.54 938.56 1095.04 930.11C1097.04 925.29 1098.07 920.14 1098.07 914.92L1098.07 898.46L1126.94 898.46L1126.94 925.25L1126.94 925.25L1126.94 925.97L1126.8 926.04C1125.41 932.04 1112.16 948 1104.63 958.41C1099.58 965.39 1089.99 974.26 1078.54 975.79C1067.68 977.24 1062.13 973.82 1069.19 965.58Z" />
					<path id="&lt;Path&gt;" class="shp7" d="M1223.12 505.98C1238.04 538.58 1237.77 612.28 1222.31 727.1C1222.98 735.04 1232.06 750.65 1235.44 785.57C1238.1 813.07 1236.01 861.36 1229.17 930.43C1220.26 936.25 1210.53 936.64 1199.99 931.59C1181.64 827.57 1170.75 761.88 1167.3 734.53C1164.29 710.67 1159.89 672.49 1154.11 620.01L1140.18 734.34C1144.4 747.71 1147 759.49 1147.99 769.67C1149.54 785.76 1142.53 831.25 1126.94 906.15C1120.3 908.59 1110.68 908.88 1098.07 907.02C1092.56 807.63 1089.07 748.24 1087.62 728.86C1083.96 680.05 1086.22 527.73 1095.17 498.83L1223.12 505.98Z" />
					<path id="&lt;Path&gt;" class="shp2" d="M1154.11 620.01L1146.84 574.6C1126.35 570.35 1111.45 563.86 1102.15 555.12C1111.91 567.25 1124.03 575.31 1138.51 579.28L1146.68 614.24L1141.11 726.72L1154.11 620.01Z" />
				</g>
				<path id="&lt;Path&gt;" class="shp0" d="M1183.63 336.13L1183.63 336.13C1192.15 336.71 1194.99 336.51 1201.16 337.14C1213.5 338.41 1216.48 356.46 1221.53 367.12C1226.99 378.66 1227.06 392.04 1222.88 404.11L1202.88 461.96C1209.13 477.05 1215.87 491.73 1223.12 505.98C1172.93 533.99 1110.26 519.27 1095.17 498.83C1094.53 494.49 1098.41 460.6 1100.8 438.45C1091.96 416.28 1089.63 402.23 1093.36 387.57C1100.28 360.36 1125.08 335.33 1132.18 335.36L1183.63 336.13Z" />
				<g id="&lt;Group&gt;">
					<path id="&lt;Path&gt;" class="shp7" d="M1226.53 226.31L1216.15 225.41C1217.4 224.69 1218.49 223.67 1219.24 222.3C1221.49 218.22 1220 212.93 1215.91 210.5L1209.21 222.66C1198.13 203.68 1177.13 191.38 1153.67 192.63L1148.31 192.91C1114.9 194.69 1089.26 223.21 1091.04 256.62C1092.27 279.63 1093.56 304 1094.91 329.74L1157.24 326.42C1192.59 324.54 1219.72 294.35 1217.84 259L1217.38 249.89C1217.07 244.07 1215.9 238.5 1214.07 233.25C1214.99 233.72 1216 234.04 1217.09 234.13C1221.74 234.54 1225.97 231.03 1226.53 226.31Z" />
					<g id="&lt;Group&gt;">
						<path id="&lt;Path&gt;" class="shp9" d="M1102.23 260.67C1101.8 267.58 1102.04 271.36 1102.74 280.52C1105.12 311.58 1115.6 318.72 1120.78 320.67C1125.96 322.61 1135.65 320.74 1145.05 318.66L1145.05 337.02C1137.51 347.84 1134.17 356.09 1135.03 361.76C1136.31 370.28 1154.52 371.33 1166.35 362.32C1174.24 356.31 1179.78 348.2 1182.97 337.98L1182.97 295.06C1187.54 300.53 1193.2 300.76 1199.93 295.75C1210.04 288.24 1209.52 271 1203.1 265.14C1196.68 259.28 1183.41 261.76 1181.42 270.43C1166.83 269.21 1158.61 256.59 1156.76 232.56C1136.43 259.08 1103.52 239.95 1102.23 260.67Z" />
					</g>
					<path id="&lt;Path&gt;" class="shp7" d="M1181.29 268.03L1182.11 283.42C1176.33 283.72 1171.39 279.29 1171.08 273.5L1170.17 256.33L1181.29 268.03Z" />
					<g id="&lt;Group&gt;">
						<path id="&lt;Path&gt;" class="shp3" d="M1141.14 269.9C1141.14 272.15 1142.9 273.96 1145.06 273.95C1147.23 273.94 1148.97 272.11 1148.97 269.86C1148.96 267.61 1147.2 265.8 1145.04 265.81C1142.88 265.83 1141.13 267.66 1141.14 269.9Z" />
					</g>
					<g id="&lt;Group&gt;">
						<path id="&lt;Path&gt;" class="shp10" d="M1140.88 297.46L1130.4 301.42C1131.45 304.43 1134.64 305.97 1137.54 304.88C1140.43 303.78 1141.92 300.46 1140.88 297.46Z" />
					</g>
					<g id="&lt;Group&gt;">
						<path id="&lt;Path&gt;" class="shp7" d="M1145.42 252.35L1154.59 255.31C1155.51 252.78 1154.2 250.08 1151.67 249.26C1149.14 248.44 1146.34 249.82 1145.42 252.35Z" />
					</g>
					<g id="&lt;Group&gt;">
						<path id="&lt;Path&gt;" class="shp3" d="M1107.53 271.6C1107.53 273.84 1109.29 275.65 1111.45 275.64C1113.62 275.63 1115.36 273.8 1115.36 271.55C1115.35 269.3 1113.59 267.49 1111.43 267.51C1109.27 267.52 1107.52 269.35 1107.53 271.6Z" />
					</g>
					<g id="&lt;Group&gt;">
						<path id="&lt;Path&gt;" class="shp10" d="M1130.37 268.28L1131 291.85L1118.41 288.67L1130.37 268.28Z" />
					</g>
					<g id="&lt;Group&gt;">
						<path id="&lt;Path&gt;" class="shp10" d="M1145.05 318.66C1154.98 316.81 1175.24 309.81 1178.01 301.5C1177.48 304.95 1175.26 308.54 1171.35 312.27C1167.44 316 1158.68 320.2 1145.05 324.88L1145.05 318.66Z" />
					</g>
				</g>
				<path id="&lt;Path&gt;" class="shp11" d="M1170.8 511.41C1187.28 507.51 1190.42 501.3 1186.06 484.93C1185.9 484.3 1185.72 483.77 1185.55 483.35C1183.4 478.18 1178.03 477.13 1169.44 480.2C1172.96 475.82 1176.68 470.84 1180.63 465.26C1186.55 456.89 1189.19 443.04 1189.98 433.32C1190.51 426.84 1191.3 417.12 1192.36 404.15C1200.91 399.03 1203.52 391.79 1200.18 382.43L1219.98 370.27C1220.95 370.94 1222.19 371.8 1223.71 372.86C1226.85 382.96 1226.38 393.99 1222.88 404.11L1202.88 461.96C1210.76 475.83 1217.51 490.51 1223.12 505.98C1186.13 526.63 1142.39 524.05 1115.88 513.09C1136.82 516.33 1156.22 514.86 1170.8 511.41Z" />
				<path id="&lt;Compound Path&gt;" fill-rule="evenodd" class="shp3" d="M1182.77 267.31L1162.49 268.39C1162.51 268.55 1162.56 268.69 1162.57 268.85C1162.94 275.82 1157.57 281.79 1150.6 282.16L1148.65 282.27C1141.68 282.64 1135.71 277.27 1135.34 270.3C1135.29 269.43 1135.34 268.56 1135.46 267.73L1135.36 267.8C1134.09 265.94 1131.4 264.75 1128.5 264.75C1126.21 264.76 1124.24 265.58 1123.1 266.93C1123.6 268.18 1123.96 269.49 1124.03 270.9C1124.4 277.87 1119.04 283.84 1112.07 284.21L1110.11 284.32C1103.15 284.69 1097.18 279.32 1096.81 272.35C1096.43 265.38 1101.8 259.41 1108.77 259.04L1110.72 258.94C1115.48 258.69 1119.72 261.14 1122.08 264.91C1123.64 263.47 1125.88 262.62 1128.5 262.62C1131.5 262.61 1134.22 263.69 1136.04 265.44C1137.7 260.75 1142.04 257.27 1147.3 256.99L1149.25 256.89C1155.33 256.56 1160.65 260.61 1162.15 266.27L1184.82 265.06C1184.38 265.42 1183.59 266.15 1182.77 267.31ZM1121.9 271.02C1121.59 265.22 1116.63 260.76 1110.83 261.07L1108.88 261.17C1103.09 261.48 1098.63 266.45 1098.94 272.24C1099.25 278.03 1104.21 282.49 1110 282.19L1111.95 282.08C1117.75 281.77 1122.21 276.81 1121.9 271.02ZM1160.43 268.97C1160.13 263.17 1155.16 258.71 1149.37 259.02L1147.42 259.12C1141.62 259.43 1137.16 264.39 1137.47 270.19C1137.78 275.98 1142.74 280.44 1148.53 280.13L1150.49 280.03C1156.28 279.72 1160.74 274.76 1160.43 268.97Z" />
			</g>
			<g id="&lt;Group&gt;">
				<g id="&lt;Group&gt;">
					<path id="&lt;Path&gt;" class="shp12" d="M998.33 431.79L1099.69 458.48L1127.59 573.16L1031.22 545.18L998.33 431.79Z" />
					<path id="&lt;Path&gt;" class="shp13" d="M998.33 431.79L1099.69 458.48L1127.59 573.16L1031.22 545.18L998.33 431.79Z" />
					<path id="&lt;Path&gt;" class="shp14" d="M1066.63 526.51C1067.27 532.71 1071.62 539.89 1084.28 545.94C1092.73 549.97 1105.17 550.86 1121.61 548.61L1118.18 534.5L1066.63 526.51Z" />
				</g>
				<g id="&lt;Group&gt;" style="opacity: 0.2">
					<path id="&lt;Path&gt;" class="shp5" d="M1044.13 513C1043.19 515.57 1038.65 524.26 1025.47 525.32L1024.44 521.79L1044.13 513Z" />
				</g>
				<g id="&lt;Group&gt;" style="opacity: 0.102">
					<path id="&lt;Path&gt;" class="shp5" d="M1028.86 450C1028.61 448.85 1028.34 447.56 1028.03 446.14C1027.57 444 1033.51 443.91 1041.31 445.93L1056.25 449.81C1064.05 451.83 1070.74 455.2 1071.2 457.33L1072.04 461.2L1028.86 450Z" />
				</g>
				<g id="&lt;Group&gt;">
					<path id="&lt;Path&gt;" class="shp2" d="M1021.08 435.47C1020.79 434.14 1023.2 433.79 1026.46 434.69L1032.38 436.32C1031.2 430.75 1034.99 428.94 1043.74 430.89C1052.48 432.83 1057.81 436.97 1059.73 443.3C1061.61 443.84 1063.71 444.43 1066.04 445.09C1069.53 446.08 1072.69 447.96 1073.1 449.29L1073.85 451.7L1021.64 437.95C1021.46 437.19 1021.28 436.36 1021.08 435.47Z" />
				</g>
				<g id="&lt;Group&gt;">
					<path id="&lt;Path&gt;" class="shp2" d="M1028.27 439.6C1033.06 440.75 1035.04 441.38 1035.76 444.68C1036.3 447.18 1036.68 449.35 1036.91 451.19L1060.01 457.3C1059.27 454.13 1058.78 451.92 1058.54 450.69C1058.18 448.83 1058.97 447.71 1062.65 448.69L1062.96 447.21L1026.75 437.99L1028.27 439.6Z" />
				</g>
				<g id="&lt;Group&gt;">
					<path id="&lt;Path&gt;" class="shp2" d="M1027.48 450.37C1027.23 449.21 1026.95 447.92 1026.64 446.5C1026.18 444.37 1032.13 444.27 1039.93 446.3L1054.86 450.17C1062.66 452.19 1069.35 455.56 1069.82 457.7L1070.65 461.56L1027.48 450.37Z" />
				</g>
				<g id="&lt;Group&gt;">
					<path id="&lt;Path&gt;" class="shp9" d="M1009.01 468.6C1011.54 477.25 1013.09 482.6 1013.67 484.66C1014.54 487.75 1025.89 493.31 1033.34 495.35C1040.79 497.4 1048.94 499.83 1045.42 510.24C1042.17 519.85 1029.91 522.04 1023.66 521.77C1017.42 521.5 1008.88 515.53 1005.51 505.92C1001.22 493.65 1003.53 480.55 1001.83 473.38C1000.12 466.22 1005.28 464.33 1009.01 468.6Z" />
				</g>
			</g>
			<g id="&lt;Group&gt;">
				<path id="&lt;Path&gt;" class="shp9" d="M1198.87 336.93C1212.01 337.76 1225.6 344.88 1227.66 360.67C1229.72 376.45 1242.5 459.55 1237.48 468.9C1225.89 490.53 1149.38 531.67 1141.78 535.19C1134.18 538.71 1121.54 544.49 1106.48 544.66C1094.55 544.79 1078.68 544.4 1070.65 533.61C1063.53 524.04 1059.5 506.37 1075.6 509.41C1086.32 511.44 1098.62 511.98 1112.47 511.03L1110.6 503.33C1113.43 503.07 1117.53 503.74 1122.88 505.33C1130.91 507.72 1138.2 500.82 1152.38 492.06C1164.57 484.53 1179.93 472.81 1198.48 456.89L1187.14 387.51C1186.88 367.51 1190.79 350.65 1198.87 336.93Z" />
				<path id="&lt;Path&gt;" class="shp1" d="M1196.49 336.93C1201.18 335.85 1206.1 336.29 1211.25 338.25C1218.97 341.2 1225.83 345.11 1229.04 360.67C1231.17 371.04 1234.36 395.18 1238.59 433.09C1227.37 441.21 1212.62 443.34 1194.35 439.48L1184.5 387.88C1179.38 363.79 1183.38 346.81 1196.49 336.93Z" />
			</g>
		</g>
	</g>
	<g id="Analysis">
		<g id="Analysis">
			<g id="&lt;Group&gt;">
				<g id="&lt;Group&gt;">
					<path id="&lt;Path&gt;" class="shp7" d="M259.85 611.67L580.56 426.5L580.57 470.94L259.85 656.11L259.85 611.67Z" />
					<path id="&lt;Path&gt;" class="shp3" d="M272.68 619.08L272.68 633.89L567.74 463.54L567.74 448.72L272.68 619.08Z" />
					<path id="&lt;Path&gt;" class="shp2" d="M259.85 611.67L247.02 604.26L567.74 419.1L580.56 426.5L259.85 611.67Z" />
					<path id="&lt;Path&gt;" class="shp3" d="M247.02 604.26L259.85 611.67L259.85 656.11L247.02 648.7L247.02 604.26Z" />
				</g>
				<g id="&lt;Group&gt;">
					<g id="&lt;Group&gt;">
						<path id="&lt;Path&gt;" class="shp2" d="M1183.52 1189.47L901.26 1352.33L901.26 1345.09L1183.49 1182.24L1183.52 1189.47Z" />
					</g>
					<path id="&lt;Path&gt;" class="shp15" d="M631.88 744.31L569.71 780.21L531.49 802.25C530.26 802.88 529.06 803.58 527.89 804.34C513.65 813.12 503.61 828.75 503.61 847.92L503.57 1026.57C503.57 1043.94 495.3 1058.47 483.08 1067.56C474.27 1074.16 463.4 1077.95 452.16 1077.95C443.63 1077.95 434.89 1075.77 426.61 1071C378.99 1043.5 349.65 992.68 349.65 937.7L349.65 752.38C349.65 724.88 342.32 698.41 329.02 675.42C315.73 652.4 296.49 632.82 272.68 619.08L554.91 456.13C578.75 469.9 597.99 489.54 611.28 512.53C624.58 535.56 631.9 561.99 631.9 589.5L631.9 670.22C631.9 685.61 631.9 710.31 631.88 744.31Z" />
					<path id="&lt;Path&gt;" class="shp7" d="M734.52 1248.79C686.89 1221.32 657.55 1170.5 657.55 1115.52L657.54 936.76C657.54 915.85 653.3 895.61 645.44 876.97C642.94 871.07 640.1 865.35 636.91 859.79C623.62 836.8 604.38 817.22 580.57 803.48L580.57 803.48C546.36 783.75 503.62 808.46 503.64 847.95L503.65 866.16L503.61 847.92L503.57 1026.57L503.58 989.4L503.58 1026.5C503.58 1066 460.84 1090.71 426.61 1071C378.99 1043.5 349.65 992.68 349.65 937.7L349.65 752.38C349.65 724.88 342.32 698.41 329.02 675.42C315.73 652.4 296.49 632.82 272.68 619.08L272.68 626.47C316.36 653.19 343.33 701.03 343.33 752.38L343.33 937.7C343.33 994.77 374.03 1047.92 423.45 1076.47C441.49 1086.89 463.02 1086.89 481.09 1076.47C482.19 1075.84 483.27 1075.17 484.34 1074.45L484.44 1074.38C500.45 1063.68 509.89 1046.05 509.89 1026.57L509.92 847.92C509.92 831.65 518.32 817.06 532.41 808.95C546.49 800.8 563.33 800.8 577.41 808.95C605.87 825.37 627.6 850.67 639.88 880.16C647.24 897.85 651.22 917.05 651.22 936.76L651.22 978.23L651.23 1115.52C651.23 1172.55 681.93 1225.74 731.36 1254.29L901.26 1352.33L901.26 1345.1L734.52 1248.79Z" />
					<path id="&lt;Path&gt;" class="shp16" d="M1183.49 1182.24L901.26 1345.09L734.52 1248.79C686.89 1221.32 657.55 1170.5 657.55 1115.52L657.54 936.76C657.54 915.85 653.3 895.61 645.44 876.97C642.94 871.07 640.1 865.35 636.91 859.79C623.62 836.8 604.38 817.22 580.57 803.48C564.31 794.07 546.12 794.73 531.49 802.25L569.71 780.21L646.59 735.82L811.16 640.82L811.57 640.57C826.51 631.94 845.71 630.74 862.8 640.6C886.61 654.34 905.84 673.92 919.14 696.94C932.44 719.96 939.76 746.43 939.76 773.9L939.78 952.63C939.78 1007.62 969.12 1058.43 1016.74 1085.94L1183.49 1182.24Z" />
					<g id="&lt;Group&gt;">
						<path id="&lt;Path&gt;" class="shp1" d="M651.22 936.76C651.22 917.05 647.24 897.85 639.88 880.16C627.6 850.67 605.87 825.37 577.41 808.95C563.33 800.8 546.49 800.8 532.41 808.95C518.32 817.06 509.92 831.65 509.92 847.92L509.89 1026.57C509.89 1046.05 500.45 1063.68 484.44 1074.38L484.34 1074.45C483.27 1075.17 482.19 1075.84 481.09 1076.47L651.22 978.23L651.22 936.76Z" />
					</g>
					<path id="&lt;Path&gt;" class="shp17" d="M651.22 936.76C651.22 917.05 647.24 897.85 639.88 880.16C627.6 850.67 605.87 825.37 577.41 808.95C563.33 800.8 546.49 800.8 532.41 808.95C518.32 817.06 509.92 831.65 509.92 847.92L509.89 1026.57C509.89 1046.05 500.45 1063.68 484.44 1074.38L484.34 1074.45C483.27 1075.17 482.19 1075.84 481.09 1076.47L651.22 978.23L651.22 936.76Z" />
				</g>
			</g>
			<g id="&lt;Clip Group&gt;" clip-path="url(#cp1)">
				<g id="&lt;Group&gt;">
					<path id="&lt;Path&gt;" class="shp18" d="M322.81 619.97C328.75 625.04 339.22 626.13 346.77 621.77L548.16 505.5C555.71 501.14 557.5 492.98 551.59 487.88C545.68 482.79 534.36 482.7 526.8 487.06L325.31 603.4C317.76 607.76 316.87 614.89 322.81 619.97Z" />
					<g id="&lt;Group&gt;">
						<path id="&lt;Path&gt;" class="shp19" d="M485.18 575.99C484.41 575.99 483.65 575.59 483.24 574.87C482.62 573.8 482.99 572.43 484.06 571.81L578.22 517.44C579.29 516.83 580.66 517.19 581.28 518.26C581.9 519.33 581.53 520.7 580.46 521.32L486.3 575.68C485.95 575.89 485.56 575.99 485.18 575.99Z" />
					</g>
					<g id="&lt;Group&gt;">
						<path id="&lt;Path&gt;" class="shp19" d="M492.45 588.11C491.67 588.11 490.92 587.71 490.51 586.99C489.89 585.92 490.25 584.55 491.32 583.93L585.49 529.57C586.56 528.95 587.93 529.32 588.54 530.38C589.16 531.46 588.79 532.82 587.72 533.44L493.56 587.81C493.21 588.01 492.83 588.11 492.45 588.11Z" />
					</g>
					<g id="&lt;Group&gt;">
						<path id="&lt;Path&gt;" class="shp19" d="M498.55 600.74C497.78 600.74 497.03 600.34 496.61 599.62C495.99 598.55 496.36 597.18 497.43 596.56L591.59 542.19C592.67 541.58 594.04 541.94 594.65 543.01C595.27 544.08 594.9 545.45 593.83 546.07L499.67 600.44C499.32 600.64 498.93 600.74 498.55 600.74Z" />
					</g>
					<g id="&lt;Group&gt;">
						<path id="&lt;Path&gt;" class="shp19" d="M503.46 613.87C502.68 613.87 501.93 613.47 501.52 612.75C500.9 611.68 501.26 610.31 502.33 609.69L596.49 555.33C597.57 554.71 598.93 555.07 599.55 556.14C600.17 557.21 599.8 558.58 598.73 559.2L504.57 613.56C504.22 613.77 503.84 613.87 503.46 613.87Z" />
					</g>
					<g id="&lt;Group&gt;">
						<path id="&lt;Path&gt;" class="shp19" d="M507.04 626.74C506.27 626.74 505.51 626.34 505.1 625.62C504.48 624.55 504.85 623.18 505.92 622.56L600.08 568.2C601.15 567.58 602.52 567.94 603.13 569.01C603.75 570.08 603.39 571.45 602.32 572.07L508.16 626.43C507.81 626.64 507.42 626.74 507.04 626.74Z" />
					</g>
					<g id="&lt;Group&gt;">
						<path id="&lt;Path&gt;" class="shp19" d="M509.46 640.57C508.69 640.57 507.94 640.17 507.52 639.45C506.9 638.38 507.27 637.01 508.34 636.39L602.5 582.03C603.57 581.41 604.94 581.78 605.55 582.84C606.17 583.91 605.81 585.28 604.74 585.9L510.58 640.27C510.23 640.47 509.84 640.57 509.46 640.57Z" />
					</g>
					<g id="&lt;Group&gt;">
						<path id="&lt;Path&gt;" class="shp19" d="M510.78 655.33C510 655.33 509.25 654.93 508.84 654.21C508.22 653.14 508.59 651.77 509.66 651.15L603.82 596.79C604.89 596.17 606.26 596.54 606.87 597.61C607.49 598.68 607.13 600.05 606.06 600.66L511.9 655.03C511.54 655.23 511.16 655.33 510.78 655.33Z" />
					</g>
					<g id="&lt;Group&gt;">
						<path id="&lt;Path&gt;" class="shp19" d="M376.53 760.59C375.98 760.59 375.45 760.3 375.16 759.8C374.72 759.04 374.98 758.07 375.74 757.64L604.21 625.73C604.96 625.29 605.93 625.55 606.37 626.3C606.8 627.06 606.54 628.03 605.79 628.46L377.32 760.37C377.07 760.52 376.79 760.59 376.53 760.59Z" />
						<path id="&lt;Path&gt;" class="shp19" d="M376.53 774.69C375.98 774.69 375.45 774.41 375.16 773.9C374.72 773.14 374.98 772.18 375.74 771.74L604.21 639.83C604.96 639.39 605.93 639.65 606.37 640.41C606.8 641.16 606.54 642.13 605.79 642.56L377.32 774.48C377.07 774.62 376.79 774.69 376.53 774.69Z" />
						<path id="&lt;Path&gt;" class="shp19" d="M376.53 788.79C375.98 788.79 375.45 788.51 375.16 788C374.72 787.24 374.98 786.28 375.74 785.84L604.21 653.93C604.96 653.49 605.93 653.75 606.37 654.51C606.8 655.26 606.54 656.23 605.79 656.66L377.32 788.58C377.07 788.72 376.79 788.79 376.53 788.79Z" />
						<path id="&lt;Path&gt;" class="shp19" d="M376.53 802.89C375.98 802.89 375.45 802.61 375.16 802.1C374.72 801.35 374.98 800.38 375.74 799.95L604.21 668.04C604.96 667.6 605.93 667.86 606.37 668.61C606.8 669.37 606.54 670.33 605.79 670.77L377.32 802.68C377.07 802.83 376.79 802.89 376.53 802.89Z" />
					</g>
					<g id="&lt;Group&gt;">
						<g id="&lt;Group&gt;">
							<g id="&lt;Group&gt;">
								<path id="&lt;Path&gt;" class="shp19" d="M376.53 740.08C375.98 740.08 375.45 739.8 375.16 739.29C374.72 738.54 374.98 737.57 375.74 737.14L496.69 667.3C497.45 666.86 498.41 667.11 498.85 667.87C499.29 668.63 499.03 669.59 498.27 670.03L377.32 739.87C377.07 740.01 376.79 740.08 376.53 740.08Z" />
							</g>
						</g>
						<g id="&lt;Group&gt;">
							<path id="&lt;Path&gt;" class="shp20" d="M373.11 659.11C377.91 668.67 381.83 678.2 384.32 687.69C387.03 696.38 388.61 707.11 389.55 718.98C389.73 721.15 391.37 722.03 393.26 720.94L399.99 717.06C401.87 715.97 403.31 713.32 403.15 711.14C402.31 700.13 400.48 689.38 397.49 678.95C394.24 668.55 390.71 659.08 386.66 651.29C385.66 649.35 383.24 648.71 381.35 649.8L374.73 653.62C372.85 654.71 372.14 657.16 373.11 659.11Z" />
						</g>
						<g id="&lt;Group&gt;">
							<path id="&lt;Path&gt;" class="shp20" d="M393.07 631.19C399.21 640.74 404.62 652.19 409.25 665.69C412.98 676.53 415.44 689.06 416.48 703.45C416.63 705.63 418.25 706.51 420.14 705.42L426.86 701.54C428.75 700.45 430.21 697.8 430.05 695.62C429.14 682.79 426.63 670.24 422.7 657.93C418.49 645.25 413.09 633.87 406.62 623.65C405.45 621.81 402.92 621.21 401.01 622.27L394.32 625.99C392.42 627.05 391.89 629.35 393.07 631.19Z" />
						</g>
						<path id="&lt;Path&gt;" class="shp20" d="M446.16 644.38L439.55 648.2C437.66 649.29 436.71 651.84 437.35 653.93C440.4 663.88 442.43 675.17 443.36 687.94C443.51 690.11 445.13 690.99 447.02 689.9L453.74 686.02C455.63 684.93 457.09 682.28 456.93 680.1C456.11 668.58 454 657.29 450.74 646.19C450.12 644.09 448.05 643.29 446.16 644.38Z" />
						<path id="&lt;Path&gt;" class="shp20" d="M473.05 617.55C472.24 615.53 470.01 614.78 468.11 615.85L461.45 619.64C459.56 620.72 458.72 623.22 459.53 625.25C460.73 628.26 461.89 631.4 463.01 634.65C466.74 645.5 469.19 658.02 470.23 672.41C470.39 674.59 472.01 675.47 473.9 674.38L480.62 670.5C482.51 669.41 483.97 666.76 483.81 664.58C482.9 651.76 480.39 639.2 476.46 626.89C475.4 623.7 474.26 620.58 473.05 617.55Z" />
						<path id="&lt;Path&gt;" class="shp19" d="M381.17 712.99C380.86 712.45 380.17 712.27 379.64 712.58L376.83 714.2C376.21 710.32 375.49 706.48 374.6 702.7L378.41 700.5C378.94 700.19 379.13 699.51 378.82 698.97C378.51 698.43 377.81 698.25 377.29 698.56L374.03 700.44C373.08 696.64 372.03 692.87 370.81 689.18L374.43 687.09C374.96 686.78 375.14 686.1 374.84 685.56C374.52 685.02 373.84 684.84 373.31 685.15L370.05 687.03C368.8 683.44 367.46 679.88 365.95 676.4C365.91 676.31 365.87 676.21 365.83 676.12L369.42 674.04C369.95 673.74 370.14 673.05 369.83 672.52C369.52 671.97 368.83 671.8 368.3 672.11L364.91 674.06C363.35 670.55 361.62 667.05 359.72 663.58L363.3 661.51C363.84 661.2 364.02 660.51 363.71 659.98C363.4 659.44 362.71 659.26 362.19 659.57L358.64 661.62C356.74 658.27 354.68 654.95 352.48 651.65L356.51 649.33C357.05 649.02 357.23 648.33 356.92 647.8C356.61 647.26 355.92 647.08 355.39 647.39L351.23 649.8C348.85 646.35 346.34 642.93 343.64 639.56C343.26 639.08 342.55 639 342.07 639.39C341.59 639.77 341.51 640.48 341.89 640.96C344.52 644.24 346.97 647.56 349.28 650.92L345.44 653.13C344.91 653.44 344.73 654.13 345.03 654.66C345.24 655.02 345.62 655.22 346 655.22C346.19 655.22 346.38 655.17 346.56 655.07L350.54 652.77C352.74 656.07 354.8 659.39 356.7 662.74L352.24 665.32C351.7 665.62 351.52 666.31 351.83 666.84C352.03 667.2 352.41 667.4 352.8 667.4C352.99 667.4 353.18 667.35 353.35 667.25L357.78 664.7C359.68 668.17 361.41 671.67 362.96 675.19L358.35 677.85C357.81 678.16 357.63 678.85 357.94 679.38C358.14 679.74 358.52 679.94 358.91 679.94C359.1 679.94 359.29 679.89 359.46 679.79L363.88 677.24C363.88 677.26 363.89 677.27 363.9 677.28C365.44 680.84 366.81 684.48 368.08 688.17L363.36 690.9C362.82 691.21 362.64 691.89 362.95 692.43C363.15 692.79 363.53 692.99 363.91 692.99C364.11 692.99 364.3 692.94 364.47 692.84L368.83 690.32C370.04 694.02 371.09 697.79 372.02 701.61L367.34 704.31C366.8 704.62 366.62 705.3 366.93 705.84C367.13 706.2 367.51 706.4 367.9 706.4C368.09 706.4 368.28 706.35 368.45 706.25L372.59 703.86C373.46 707.65 374.16 711.51 374.75 715.4L369.69 718.32C369.15 718.63 368.97 719.32 369.28 719.85C369.48 720.21 369.86 720.41 370.25 720.41C370.44 720.41 370.63 720.36 370.8 720.26L375.13 717.76C375.79 722.48 376.24 727.27 376.49 732.12C376.53 732.72 377.02 733.18 377.61 733.18C377.63 733.18 377.65 733.18 377.67 733.18C378.29 733.15 378.76 732.62 378.73 732C378.46 726.78 377.94 721.64 377.21 716.56L380.76 714.51C381.29 714.21 381.48 713.52 381.17 712.99Z" />
					</g>
					<g id="&lt;Group&gt;">
						<g id="&lt;Group&gt;" style="opacity: 0.149">
							<g id="&lt;Group&gt;">
								<path id="&lt;Path&gt;" class="shp20" d="M392.62 932.25C391.69 923.82 391.35 915.28 391.61 906.81C392.53 903.56 406.15 856.79 431.22 842.22C433 841.17 434.66 840.47 436.16 840.15C436.89 839.99 437.57 839.91 438.21 839.91C444.86 839.91 447.84 849.15 450.72 858.1C451.92 861.82 453.16 865.67 454.68 868.85C456.38 872.44 459.29 877.22 464.82 877.22C466.93 877.22 469.18 876.53 471.7 875.1C483.75 868.23 487.21 849.64 490.88 829.95C492.54 821.07 494.25 811.88 496.8 803.87C500.46 792.38 505.2 785.27 511.72 781.49C513.82 780.28 515.69 779.66 517.3 779.66C524.28 779.66 526.93 792.11 529.48 804.14C530.88 810.73 532.33 817.55 534.56 822.57C537.11 828.37 540.46 831.19 544.79 831.19C547 831.19 549.37 830.45 552.02 828.92C566.81 820.39 571.28 805.91 575.61 791.92C579.29 780.03 582.76 768.81 592.51 763.14C595.1 761.62 597.54 760.86 599.77 760.86C600.87 760.86 601.94 761.04 602.96 761.42C603.42 765.26 603.43 768.09 603.43 768.12L603.59 796.46C603.85 801.87 604.22 806.14 604.72 809.8L392.62 932.25Z" />
							</g>
							<g id="&lt;Group&gt;">
								<path id="&lt;Compound Path&gt;" class="shp5" d="M606.43 810.63C605.8 806.4 605.42 801.59 605.17 796.45L605.01 768.12C605.01 765.89 604.81 763.29 604.41 760.32C603 759.65 601.45 759.28 599.77 759.28C597.37 759.28 594.7 760.03 591.71 761.77C569.95 774.43 578.26 811.95 551.23 827.56C548.76 828.97 546.64 829.61 544.79 829.61C540.76 829.61 538.04 826.57 536 821.93C529.64 807.58 529.81 778.09 517.3 778.09C515.47 778.09 513.36 778.72 510.93 780.12C503.19 784.6 498.55 793.16 495.3 803.4C487.24 828.66 487.72 864.16 470.91 873.73C468.58 875.05 466.57 875.64 464.82 875.64C460.83 875.64 458.19 872.56 456.1 868.17C450.9 857.27 449.08 838.33 438.21 838.33C437.46 838.33 436.67 838.42 435.83 838.61C434.22 838.96 432.42 839.68 430.43 840.85C412.61 851.21 399.15 873.12 390.03 906.57C389.73 916.22 390.19 925.62 391.33 934.81L394.43 933.03C394.27 932.15 394.12 931.39 393.94 929.66C393.22 922.16 392.96 914.58 393.18 907.06C394.45 902.63 407.84 857.64 432.03 843.57C433.66 842.61 435.16 841.98 436.52 841.69C437.12 841.55 437.69 841.49 438.21 841.49C443.71 841.49 446.51 850.18 449.22 858.58C450.43 862.36 451.69 866.26 453.25 869.52C454.34 871.82 457.66 878.8 464.82 878.8C467.21 878.8 469.72 878.04 472.48 876.47C485.16 869.25 488.69 850.3 492.43 830.24C494.08 821.41 495.78 812.27 498.31 804.35C501.83 793.26 506.35 786.43 512.5 782.86C514.36 781.79 515.97 781.24 517.3 781.24C523 781.24 525.63 793.58 527.94 804.47C529.36 811.14 530.82 818.04 533.11 823.2C535.9 829.55 539.83 832.77 544.79 832.77C547.29 832.77 549.91 831.96 552.81 830.29C568.13 821.44 572.91 806 577.12 792.38C580.7 780.8 584.08 769.87 593.31 764.5C595.65 763.13 597.82 762.44 599.77 762.44C600.37 762.44 600.94 762.5 601.51 762.63C601.84 765.83 601.85 768.1 601.85 768.14L602.01 796.6C602.25 801.49 602.58 805.48 603.01 808.95C603.21 810.46 603.42 811.6 603.62 812.25L606.43 810.63Z" />
							</g>
						</g>
						<g id="&lt;Group&gt;" style="opacity: 0.4">
							<path id="&lt;Path&gt;" class="shp20" d="M390.04 892.28L390.04 906.57C389.76 916.34 390.16 925.62 391.33 934.81L606.42 810.63C605.8 806.41 605.41 801.6 605.15 796.43L605 768.12C605 739.92 596.04 730.99 578.12 741.33C549.87 757.65 557.86 809.44 537.8 821.02C517.57 832.71 524.36 786.47 497.48 801.99C470.6 817.51 484.04 852.06 457.16 867.58C430.28 883.1 443.72 804.83 416.84 820.34C389.97 835.86 389.97 874.41 390.04 892.28Z" />
						</g>
						<g id="&lt;Group&gt;">
							<path id="&lt;Path&gt;" class="shp19" d="M380.2 956.64C379.81 956.64 379.43 956.43 379.23 956.07C378.92 955.54 379.11 954.86 379.64 954.55L608.42 823.55C608.95 823.25 609.64 823.43 609.94 823.97C610.25 824.51 610.06 825.19 609.53 825.5L380.75 956.49C380.58 956.59 380.39 956.64 380.2 956.64Z" />
						</g>
						<g id="&lt;Group&gt;">
							<g id="&lt;Group&gt;">
								<path id="&lt;Path&gt;" class="shp8" d="M416.84 827.88C416.22 827.88 415.72 827.38 415.72 826.76L415.73 824.53C415.73 823.91 416.23 823.41 416.84 823.41C417.46 823.41 417.96 823.91 417.96 824.53L417.96 826.76C417.96 827.38 417.46 827.88 416.84 827.88Z" />
							</g>
							<g id="&lt;Group&gt;">
								<path id="&lt;Compound Path&gt;" class="shp8" d="M417.49 913.93C416.91 913.93 416.43 913.49 416.37 912.91C416.24 911.48 416.13 910.04 416.04 908.59C416 907.98 416.47 907.44 417.09 907.41C417.82 907.33 418.24 907.84 418.27 908.45C418.36 909.88 418.47 911.3 418.6 912.71C418.66 913.32 418.21 913.87 417.59 913.92C417.55 913.93 417.52 913.93 417.49 913.93ZM416.96 905.35C416.35 905.35 415.85 904.86 415.84 904.24C415.82 903 415.81 901.56 415.8 899.93C415.79 899.31 416.29 898.81 416.91 898.8C417.58 898.68 418.03 899.29 418.04 899.91C418.05 901.53 418.06 902.97 418.08 904.21C418.09 904.83 417.6 905.34 416.98 905.35C416.97 905.35 416.97 905.35 416.96 905.35ZM416.89 896.74C416.27 896.74 415.77 896.24 415.77 895.63L415.75 891.32C415.74 890.7 416.24 890.2 416.86 890.2L416.87 890.2C417.48 890.2 417.98 890.7 417.99 891.31L418.01 895.62C418.01 896.23 417.51 896.73 416.89 896.74C416.89 896.74 416.89 896.74 416.89 896.74ZM416.85 888.13C416.23 888.13 415.73 887.63 415.73 887.02L415.72 882.71C415.72 882.09 416.22 881.59 416.84 881.59L416.84 881.59C417.46 881.59 417.96 882.09 417.96 882.71L417.97 887.01C417.97 887.63 417.47 888.13 416.85 888.13L416.85 888.13ZM416.83 879.53C416.21 879.53 415.71 879.02 415.71 878.41L415.71 874.1C415.71 873.49 416.21 872.98 416.83 872.98C417.44 872.98 417.95 873.49 417.95 874.1L417.95 878.41C417.95 879.02 417.45 879.53 416.83 879.53ZM416.82 870.92C416.2 870.92 415.7 870.41 415.7 869.8L415.7 865.5C415.7 864.88 416.2 864.38 416.82 864.38C417.44 864.38 417.94 864.88 417.94 865.5L417.94 869.8C417.94 870.41 417.44 870.92 416.82 870.92ZM416.82 862.31C416.2 862.31 415.7 861.81 415.7 861.19L415.7 856.89C415.7 856.27 416.2 855.77 416.82 855.77C417.44 855.77 417.94 856.27 417.94 856.89L417.94 861.19C417.94 861.81 417.44 862.31 416.82 862.31ZM416.82 853.7L416.82 853.7C416.2 853.7 415.7 853.2 415.7 852.58L415.7 848.28C415.7 847.67 416.21 847.16 416.82 847.16C417.44 847.16 417.94 847.67 417.94 848.28L417.94 852.59C417.94 853.21 417.44 853.7 416.82 853.7ZM416.83 845.1L416.82 845.1C416.21 845.1 415.71 844.6 415.71 843.98L415.71 839.68C415.71 839.06 416.21 838.56 416.83 838.56C417.45 838.56 417.95 839.06 417.95 839.68L417.95 843.98C417.94 844.6 417.44 845.1 416.83 845.1ZM416.83 836.5C416.22 836.5 415.71 835.99 415.71 835.38L415.72 831.09C415.72 830.47 416.22 829.96 416.84 829.96C416.84 829.96 416.84 829.96 416.84 829.96C417.46 829.96 417.96 830.45 417.96 831.07L417.95 835.38C417.95 835.99 417.45 836.5 416.83 836.5Z" />
							</g>
							<g id="&lt;Group&gt;">
								<path id="&lt;Path&gt;" class="shp8" d="M418.21 920.41C417.66 920.41 417.18 920 417.1 919.44C417.01 918.7 416.91 917.95 416.82 917.2C416.75 916.59 417.19 916.04 417.8 915.96C418.42 915.9 418.98 916.33 419.04 916.95C419.13 917.68 419.23 918.41 419.32 919.14C419.4 919.75 418.98 920.32 418.36 920.4C418.31 920.41 418.26 920.41 418.21 920.41Z" />
							</g>
						</g>
						<g id="&lt;Group&gt;">
							<g id="&lt;Group&gt;">
								<path id="&lt;Path&gt;" class="shp8" d="M578.15 744.69C577.53 744.69 577.03 744.19 577.03 743.57L577.03 741.33C577.03 740.71 577.53 740.21 578.15 740.21L578.15 740.21C578.77 740.22 579.27 740.72 579.27 741.34L579.27 743.57C579.27 744.19 578.76 744.69 578.15 744.69Z" />
							</g>
							<g id="&lt;Group&gt;">
								<path id="&lt;Compound Path&gt;" class="shp8" d="M578.79 830.74C578.22 830.74 577.73 830.3 577.68 829.72C577.54 828.29 577.43 826.85 577.34 825.4C577.3 824.78 577.77 824.25 578.39 824.21C579.08 824.18 579.54 824.65 579.58 825.26C579.67 826.69 579.78 828.11 579.9 829.52C579.96 830.13 579.51 830.68 578.89 830.73C578.86 830.73 578.82 830.74 578.79 830.74ZM578.27 822.16C577.66 822.16 577.16 821.67 577.15 821.05C577.13 819.81 577.11 818.37 577.1 816.74C577.1 816.12 577.59 815.62 578.21 815.61C578.21 815.61 578.22 815.61 578.22 815.61C578.83 815.61 579.33 816.11 579.34 816.72C579.35 818.35 579.37 819.78 579.39 821.02C579.39 821.64 578.9 822.15 578.28 822.16C578.28 822.16 578.27 822.16 578.27 822.16ZM578.19 813.55C577.57 813.55 577.08 813.05 577.07 812.43L577.05 808.12C577.04 807.51 577.54 807 578.16 807L578.17 807C578.78 807 579.28 807.5 579.29 808.12L579.31 812.42C579.31 813.04 578.81 813.54 578.19 813.55C578.19 813.55 578.19 813.55 578.19 813.55ZM578.15 804.94C577.53 804.94 577.04 804.44 577.03 803.82L577.02 799.52C577.02 798.9 577.52 798.4 578.14 798.4L578.14 798.4C578.76 798.4 579.26 798.9 579.26 799.51L579.27 803.82C579.27 804.44 578.77 804.94 578.15 804.94L578.15 804.94ZM578.13 796.33C577.52 796.33 577.01 795.83 577.01 795.21L577.01 790.91C577.01 790.29 577.51 789.79 578.13 789.79C578.75 789.79 579.25 790.29 579.25 790.91L579.25 795.21C579.25 795.83 578.75 796.33 578.13 796.33ZM578.12 787.73C577.51 787.73 577 787.22 577 786.61L577 782.3C577 781.69 577.51 781.18 578.12 781.18C578.74 781.18 579.24 781.69 579.24 782.3L579.24 786.61C579.24 787.22 578.74 787.73 578.12 787.73ZM578.12 779.12C577.51 779.12 577 778.62 577 778L577 773.7C577 773.09 577.51 772.58 578.12 772.58C578.74 772.58 579.24 773.09 579.24 773.7L579.24 778C579.24 778.62 578.74 779.12 578.12 779.12ZM578.12 770.51L578.12 770.51C577.5 770.51 577 770.01 577 769.39L577.01 765.09C577.01 764.47 577.51 763.97 578.13 763.97C578.74 763.97 579.25 764.47 579.25 765.09L579.24 769.4C579.24 770.01 578.74 770.51 578.12 770.51ZM578.13 761.91L578.12 761.91C577.51 761.91 577.01 761.41 577.01 760.79L577.01 756.48C577.01 755.87 577.51 755.36 578.13 755.36C578.75 755.36 579.25 755.87 579.25 756.48L579.25 760.79C579.24 761.41 578.74 761.91 578.13 761.91ZM578.14 753.3L578.13 753.3C577.52 753.3 577.02 752.8 577.02 752.18L577.02 747.88C577.02 747.26 577.52 746.76 578.14 746.76C578.76 746.76 579.26 747.26 579.26 747.88L579.26 752.19C579.25 752.8 578.75 753.3 578.14 753.3Z" />
							</g>
							<g id="&lt;Group&gt;">
								<path id="&lt;Path&gt;" class="shp8" d="M579.52 837.22C578.97 837.22 578.48 836.81 578.41 836.25C578.31 835.51 578.21 834.76 578.12 834.02C578.05 833.4 578.49 832.85 579.1 832.77C579.76 832.68 580.27 833.14 580.34 833.75C580.43 834.48 580.53 835.22 580.63 835.95C580.71 836.56 580.28 837.13 579.67 837.21C579.62 837.22 579.57 837.22 579.52 837.22Z" />
							</g>
						</g>
						<g id="&lt;Group&gt;">
							<g id="&lt;Group&gt;">
								<path id="&lt;Path&gt;" class="shp8" d="M497.48 809.23C496.87 809.23 496.36 808.73 496.36 808.11L496.36 805.87C496.36 805.26 496.87 804.75 497.48 804.75C498.1 804.75 498.6 805.26 498.6 805.87L498.6 808.11C498.6 808.73 498.1 809.23 497.48 809.23Z" />
							</g>
							<g id="&lt;Group&gt;">
								<path id="&lt;Compound Path&gt;" class="shp8" d="M498.13 867.97C497.56 867.97 497.07 867.54 497.02 866.96C496.88 865.56 496.78 864.15 496.69 862.74C496.65 862.12 497.12 861.59 497.73 861.55C498.45 861.5 498.88 861.98 498.92 862.6C499.01 863.99 499.12 865.37 499.24 866.75C499.3 867.36 498.85 867.91 498.24 867.97C498.2 867.97 498.16 867.97 498.13 867.97ZM497.6 859.59C496.99 859.59 496.49 859.1 496.48 858.48L496.43 854.28C496.42 853.66 496.92 853.16 497.54 853.15C497.54 853.15 497.55 853.15 497.55 853.15C498.16 853.15 498.66 853.65 498.67 854.26L498.72 858.46C498.73 859.07 498.23 859.58 497.61 859.59C497.61 859.59 497.6 859.59 497.6 859.59ZM497.52 851.2C496.9 851.2 496.4 850.71 496.4 850.09L496.38 845.89C496.37 845.27 496.87 844.77 497.49 844.76C497.49 844.76 497.49 844.76 497.5 844.76C498.11 844.76 498.61 845.26 498.61 845.88L498.64 850.08C498.64 850.69 498.14 851.2 497.52 851.2C497.52 851.2 497.52 851.2 497.52 851.2ZM497.48 842.81C496.87 842.81 496.37 842.31 496.36 841.69L496.35 837.49C496.35 836.87 496.85 836.37 497.47 836.37L497.47 836.37C498.09 836.37 498.59 836.87 498.59 837.49L498.6 841.68C498.6 842.3 498.1 842.8 497.49 842.81L497.48 842.81ZM497.47 834.41C496.85 834.41 496.35 833.91 496.35 833.29L496.35 829.09C496.35 828.48 496.85 827.97 497.47 827.97C498.09 827.97 498.59 828.48 498.59 829.09L498.59 833.29C498.59 833.91 498.09 834.41 497.47 834.41ZM497.47 826.02L497.47 826.02C496.85 826.02 496.35 825.52 496.35 824.9L496.35 820.7C496.35 820.08 496.86 819.58 497.47 819.58C498.09 819.58 498.59 820.08 498.59 820.7L498.59 824.9C498.59 825.52 498.09 826.02 497.47 826.02ZM497.48 817.62L497.47 817.62C496.86 817.62 496.36 817.12 496.36 816.5L496.36 812.31C496.36 811.69 496.86 811.19 497.48 811.19C498.1 811.19 498.6 811.69 498.6 812.31L498.6 816.51C498.59 817.12 498.09 817.62 497.48 817.62Z" />
							</g>
							<g id="&lt;Group&gt;">
								<path id="&lt;Path&gt;" class="shp8" d="M498.85 874.36C498.3 874.36 497.82 873.95 497.74 873.39C497.64 872.65 497.55 871.9 497.46 871.16C497.38 870.54 497.82 869.99 498.44 869.91C499.04 869.82 499.6 870.28 499.68 870.89C499.77 871.63 499.86 872.36 499.96 873.09C500.04 873.71 499.61 874.27 499 874.35C498.95 874.36 498.9 874.36 498.85 874.36Z" />
							</g>
						</g>
						<g id="&lt;Group&gt;">
							<path id="&lt;Path&gt;" class="shp19" d="M416.82 815.92C418.96 814.68 420.69 815.5 420.69 817.74C420.69 819.98 418.96 822.8 416.82 824.03C414.68 825.27 412.95 824.45 412.95 822.21C412.95 819.97 414.68 817.15 416.82 815.92Z" />
						</g>
						<path id="&lt;Path&gt;" class="shp19" d="M497.48 797.26C499.62 796.02 501.35 796.84 501.35 799.08C501.35 801.32 499.62 804.14 497.48 805.37C495.35 806.61 493.61 805.79 493.61 803.55C493.61 801.31 495.35 798.49 497.48 797.26Z" />
						<path id="&lt;Path&gt;" class="shp19" d="M578.12 737.27C580.26 736.04 581.99 736.86 581.99 739.1C581.99 741.34 580.26 744.16 578.12 745.39C575.98 746.63 574.25 745.81 574.25 743.57C574.25 741.32 575.98 738.51 578.12 737.27Z" />
						<path id="&lt;Path&gt;" class="shp19" d="M381.69 841.96C382.22 841.66 382.4 840.97 382.1 840.44C381.78 839.9 381.1 839.72 380.57 840.03L377.65 841.71L377.65 830.16L381.69 827.83C382.23 827.52 382.41 826.84 382.1 826.3C381.79 825.76 381.1 825.58 380.57 825.89L377.65 827.58L377.65 815.42C377.65 814.8 377.14 814.3 376.53 814.3C375.91 814.3 375.41 814.8 375.41 815.42L375.41 828.88L371.35 831.22C370.82 831.52 370.63 832.21 370.94 832.74C371.15 833.1 371.53 833.3 371.91 833.3C372.1 833.3 372.29 833.25 372.47 833.15L375.41 831.46L375.41 843.01L371.35 845.35C370.81 845.66 370.63 846.34 370.94 846.87C371.15 847.23 371.52 847.43 371.91 847.43C372.1 847.43 372.29 847.39 372.47 847.28L375.41 845.59L375.41 857.14L371.35 859.48C370.81 859.79 370.63 860.47 370.94 861.01C371.14 861.37 371.52 861.57 371.91 861.57C372.1 861.57 372.29 861.52 372.46 861.42L375.41 859.72L375.41 871.27L371.34 873.61C370.81 873.92 370.63 874.61 370.93 875.14C371.14 875.5 371.52 875.7 371.9 875.7C372.09 875.7 372.29 875.65 372.46 875.55L375.41 873.85L375.41 885.4L371.34 887.74C370.8 888.05 370.62 888.74 370.93 889.27C371.14 889.63 371.51 889.83 371.9 889.83C372.09 889.83 372.28 889.78 372.46 889.68L375.41 887.98L375.41 899.53L371.34 901.88C370.8 902.19 370.62 902.87 370.93 903.41C371.14 903.77 371.51 903.97 371.9 903.97C372.09 903.97 372.28 903.92 372.45 903.82L375.41 902.11L375.41 913.66L371.33 916.01C370.8 916.32 370.62 917 370.93 917.54C371.13 917.9 371.51 918.1 371.89 918.1C372.08 918.1 372.28 918.05 372.45 917.95L375.38 916.25C375.32 920.09 375.35 923.92 375.52 927.73L371.33 930.14C370.8 930.45 370.61 931.14 370.92 931.67C371.13 932.03 371.5 932.23 371.89 932.23C372.08 932.23 372.27 932.18 372.45 932.08L375.66 930.23C375.9 934.43 376.25 938.61 376.78 942.72C376.85 943.28 377.33 943.7 377.89 943.7C377.94 943.7 377.98 943.69 378.03 943.69C378.64 943.61 379.08 943.05 379 942.44C378.44 938.01 378.05 933.51 377.82 928.98L381.67 926.76C382.2 926.45 382.39 925.77 382.08 925.23C381.77 924.69 381.08 924.51 380.55 924.82L377.72 926.45C377.58 922.64 377.54 918.8 377.64 914.95L381.67 912.62C382.21 912.32 382.39 911.63 382.08 911.1C381.77 910.55 381.08 910.38 380.55 910.69L377.65 912.37L377.65 900.82L381.67 898.49C382.21 898.18 382.39 897.5 382.08 896.97C381.77 896.43 381.09 896.24 380.56 896.56L377.65 898.24L377.65 886.69L381.68 884.36C382.21 884.05 382.4 883.37 382.09 882.83C381.78 882.29 381.09 882.12 380.56 882.42L377.65 884.11L377.65 872.56L381.68 870.23C382.22 869.92 382.4 869.23 382.09 868.7C381.78 868.16 381.09 867.98 380.56 868.29L377.65 869.97L377.65 858.43L381.68 856.1C382.22 855.79 382.4 855.1 382.09 854.57C381.78 854.03 381.1 853.85 380.57 854.16L377.65 855.84L377.65 844.3L381.69 841.96Z" />
					</g>
					<path id="&lt;Path&gt;" class="shp18" d="M661.99 911.25L447.11 1035.31C439.56 1039.67 428.61 1039.15 423.2 1033.59C417.79 1028.02 420 1019.53 427.56 1015.17L642.37 891.15C649.92 886.79 659.97 888.2 665.4 893.75C670.83 899.31 669.54 906.89 661.99 911.25Z" />
					<g id="&lt;Group&gt;">
						<g id="&lt;Group&gt;">
							<path id="&lt;Path&gt;" class="shp19" d="M384.17 971.6C383.63 971.6 383.1 971.32 382.81 970.81C382.37 970.05 382.63 969.09 383.38 968.65L625.42 828.91C626.17 828.47 627.14 828.73 627.57 829.49C628.01 830.25 627.75 831.21 627 831.65L384.96 971.39C384.71 971.53 384.44 971.6 384.17 971.6Z" />
						</g>
						<g id="&lt;Group&gt;">
							<path id="&lt;Path&gt;" class="shp19" d="M389.12 984.69C388.58 984.69 388.05 984.4 387.76 983.9C387.32 983.14 387.58 982.17 388.33 981.74L630.4 841.98C631.15 841.53 632.12 841.79 632.56 842.55C632.99 843.31 632.73 844.27 631.98 844.71L389.91 984.47C389.66 984.62 389.39 984.69 389.12 984.69Z" />
						</g>
						<g id="&lt;Group&gt;">
							<path id="&lt;Path&gt;" class="shp19" d="M395.23 997.23C394.69 997.23 394.15 996.95 393.86 996.44C393.42 995.69 393.68 994.72 394.44 994.29L636.54 854.51C637.29 854.07 638.26 854.32 638.69 855.08C639.13 855.84 638.87 856.8 638.12 857.24L396.02 997.02C395.77 997.16 395.5 997.23 395.23 997.23Z" />
						</g>
						<g id="&lt;Group&gt;">
							<path id="&lt;Path&gt;" class="shp19" d="M402.44 1009.17C401.9 1009.17 401.36 1008.89 401.07 1008.38C400.63 1007.63 400.89 1006.66 401.65 1006.23L643.78 866.43C644.53 865.99 645.51 866.25 645.94 867C646.38 867.76 646.12 868.72 645.36 869.16L403.23 1008.96C402.98 1009.11 402.71 1009.17 402.44 1009.17Z" />
						</g>
					</g>
				</g>
			</g>
			<g id="&lt;Group&gt;">
				<path id="&lt;Path&gt;" class="shp18" d="M613.74 777.69L812.91 662.72C820.46 658.36 832.49 655.77 839.26 658.51C846.03 661.24 844.74 668.32 837.18 672.68L635.7 788.99C628.15 793.35 617.4 793.8 611.39 790.56C605.37 787.31 606.19 782.05 613.74 777.69Z" />
				<path id="&lt;Path&gt;" class="shp19" d="M636.84 809.31C636.3 809.31 635.76 809.02 635.47 808.52C635.04 807.76 635.29 806.8 636.05 806.36L865.61 673.85C866.36 673.41 867.33 673.67 867.77 674.42C868.21 675.18 867.95 676.14 867.19 676.58L637.63 809.09C637.38 809.24 637.11 809.31 636.84 809.31Z" />
				<path id="&lt;Path&gt;" class="shp19" d="M646.35 819.57C645.81 819.57 645.27 819.29 644.98 818.78C644.54 818.02 644.8 817.06 645.56 816.62L875.48 683.91C876.23 683.47 877.2 683.73 877.63 684.49C878.07 685.24 877.81 686.21 877.05 686.64L647.14 819.36C646.89 819.5 646.62 819.57 646.35 819.57Z" />
				<g id="&lt;Group&gt;">
					<path id="&lt;Path&gt;" class="shp19" d="M684.42 936.94L684.41 936.94C683.8 936.93 683.3 936.43 683.3 935.81L683.34 923.63C683.38 914.46 683.38 914.46 683.11 908.26L683.06 907.24C682.19 892.37 679.44 878.4 674.89 865.73C670.89 853.68 664.12 841.86 654.19 829.57C653.8 829.09 653.88 828.38 654.36 828C654.84 827.61 655.55 827.68 655.93 828.16C666.03 840.67 672.92 852.72 677 865C681.62 877.85 684.41 892.03 685.3 907.12L685.35 908.17C685.62 914.42 685.62 914.42 685.58 923.64L685.54 935.82C685.53 936.44 685.03 936.94 684.42 936.94Z" />
				</g>
				<path id="&lt;Path&gt;" class="shp18" d="M682.11 842.13C681.09 840.33 679.99 838.57 678.81 836.83C677.59 835.03 678.06 832.73 679.95 831.64L767.67 781C769.56 779.91 772.12 780.46 773.26 782.32C774.31 784.05 775.31 785.86 776.29 787.76C777.28 789.7 776.51 792.19 774.62 793.28L687.39 843.63C685.5 844.72 683.19 844.02 682.11 842.13Z" />
				<path id="&lt;Path&gt;" class="shp20" d="M690.65 861.33C691.3 863.35 691.91 865.34 692.45 867.31C693.04 869.42 694.98 870.25 696.87 869.16L904.99 749.03C906.88 747.94 907.98 745.34 907.41 743.24C906.83 741.15 906.24 739.15 905.63 737.23C904.97 735.15 902.84 734.37 900.96 735.46L692.8 855.62C690.91 856.71 689.97 859.26 690.65 861.33Z" />
				<path id="&lt;Path&gt;" class="shp21" d="M690.65 861.33C691.3 863.35 691.91 865.34 692.45 867.31C693.04 869.42 694.98 870.25 696.87 869.16L904.99 749.03C906.88 747.94 907.98 745.34 907.41 743.24C906.83 741.15 906.24 739.15 905.63 737.23C904.97 735.15 902.84 734.37 900.96 735.46L692.8 855.62C690.91 856.71 689.97 859.26 690.65 861.33Z" />
				<path id="&lt;Path&gt;" class="shp18" d="M696.71 889.03C696.98 891.24 697.2 893.41 697.37 895.49C697.55 897.67 699.16 898.55 701.04 897.46L842.03 816.08C843.92 814.99 845.36 812.34 845.18 810.16C845.01 808 844.78 805.86 844.52 803.72C844.25 801.56 842.45 800.69 840.56 801.78L699.61 883.15C697.73 884.24 696.44 886.87 696.71 889.03Z" />
				<path id="&lt;Path&gt;" class="shp22" d="M696.71 889.03C696.98 891.24 697.2 893.41 697.37 895.49C697.55 897.67 699.16 898.55 701.04 897.46L842.03 816.08C843.92 814.99 845.36 812.34 845.18 810.16C845.01 808 844.78 805.86 844.52 803.72C844.25 801.56 842.45 800.69 840.56 801.78L699.61 883.15C697.73 884.24 696.44 886.87 696.71 889.03Z" />
				<path id="&lt;Path&gt;" class="shp8" d="M697.85 917.78L697.85 924.12C697.86 926.3 699.39 927.18 701.27 926.09L761.63 891.25C763.52 890.16 765.05 887.51 765.05 885.33L765.05 878.98C765.05 876.8 763.52 875.92 761.63 877.01L701.27 911.86C699.38 912.95 697.85 915.6 697.85 917.78Z" />
				<path id="&lt;Path&gt;" class="shp23" d="M697.85 917.78L697.85 924.12C697.86 926.3 699.39 927.18 701.27 926.09L761.63 891.25C763.52 890.16 765.05 887.51 765.05 885.33L765.05 878.98C765.05 876.8 763.52 875.92 761.63 877.01L701.27 911.86C699.38 912.95 697.85 915.6 697.85 917.78Z" />
				<path id="&lt;Path&gt;" class="shp19" d="M912.89 817.55C912.27 817.55 911.77 818.06 911.77 818.67L911.77 824.1L895.68 833.39L895.68 829.32C895.68 828.71 895.18 828.21 894.56 828.21C893.94 828.21 893.44 828.71 893.44 829.32L893.44 834.68L877.35 843.96L877.35 839.97C877.35 839.36 876.85 838.85 876.23 838.85C875.62 838.85 875.11 839.36 875.11 839.97L875.11 845.26L859.03 854.54L859.03 850.62C859.03 850.01 858.52 849.5 857.91 849.5C857.29 849.5 856.79 850.01 856.79 850.62L856.79 855.83L840.7 865.12L840.7 861.28C840.7 860.66 840.2 860.16 839.58 860.16C838.96 860.16 838.46 860.66 838.46 861.28L838.46 866.41L822.37 875.7L822.37 871.93C822.37 871.31 821.87 870.81 821.25 870.81C820.64 870.81 820.13 871.31 820.13 871.93L820.13 876.99L804.05 886.28L804.05 882.58C804.05 881.96 803.54 881.46 802.93 881.46C802.31 881.46 801.81 881.96 801.81 882.58L801.81 887.57L785.72 896.85L785.72 893.23C785.72 892.61 785.22 892.11 784.6 892.11C783.98 892.11 783.48 892.61 783.48 893.23L783.48 898.15L767.39 907.43L767.39 903.88C767.39 903.26 766.89 902.76 766.27 902.76C765.66 902.76 765.16 903.26 765.16 903.88L765.16 908.72L749.07 918.01L749.07 914.53C749.07 913.91 748.57 913.41 747.95 913.41C747.33 913.41 746.83 913.91 746.83 914.53L746.83 919.3L730.74 928.59L730.74 925.18C730.74 924.56 730.24 924.06 729.62 924.06C729.01 924.06 728.5 924.56 728.5 925.18L728.5 929.88L712.41 939.17L712.41 935.83C712.41 935.21 711.91 934.71 711.29 934.71C710.68 934.71 710.17 935.21 710.17 935.83L710.17 940.46L696.21 948.52C695.68 948.83 695.49 949.51 695.8 950.04C696.01 950.41 696.39 950.61 696.77 950.61C696.96 950.61 697.15 950.56 697.33 950.45L710.17 943.04L710.17 947.58C710.17 948.2 710.68 948.7 711.29 948.7C711.91 948.7 712.41 948.2 712.41 947.58L712.41 941.75L728.5 932.46L728.5 936.93C728.5 937.55 729.01 938.05 729.62 938.05C730.24 938.05 730.74 937.55 730.74 936.93L730.74 931.17L746.83 921.88L746.83 926.28C746.83 926.9 747.33 927.4 747.95 927.4C748.57 927.4 749.07 926.9 749.07 926.28L749.07 920.59L765.16 911.31L765.16 915.63C765.16 916.25 765.66 916.75 766.27 916.75C766.89 916.75 767.39 916.25 767.39 915.63L767.39 910.01L783.48 900.73L783.48 904.98C783.48 905.6 783.98 906.1 784.6 906.1C785.22 906.1 785.72 905.6 785.72 904.98L785.72 899.43L801.81 890.15L801.81 894.33C801.81 894.95 802.31 895.45 802.93 895.45C803.54 895.45 804.05 894.95 804.05 894.33L804.05 888.86L820.13 879.57L820.13 883.68C820.13 884.3 820.64 884.8 821.25 884.8C821.87 884.8 822.37 884.3 822.37 883.68L822.37 878.28L838.46 868.99L838.46 873.03C838.46 873.65 838.96 874.15 839.58 874.15C840.2 874.15 840.7 873.65 840.7 873.03L840.7 867.7L856.79 858.41L856.79 862.38C856.79 863 857.29 863.5 857.91 863.5C858.52 863.5 859.03 863 859.03 862.38L859.03 857.12L875.11 847.84L875.11 851.73C875.11 852.35 875.62 852.85 876.23 852.85C876.85 852.85 877.35 852.35 877.35 851.73L877.35 846.54L893.44 837.26L893.44 841.08C893.44 841.7 893.94 842.2 894.56 842.2C895.18 842.2 895.68 841.7 895.68 841.08L895.68 835.97L911.77 826.68L911.77 830.43C911.77 831.05 912.27 831.55 912.89 831.55C913.5 831.55 914.01 831.05 914.01 830.43L914.01 818.67C914.01 818.06 913.5 817.55 912.89 817.55Z" />
				<g id="&lt;Group&gt;">
					<g id="&lt;Group&gt;">
						<path id="&lt;Path&gt;" class="shp18" d="M736.48 965.12C732.79 965.91 728.84 967.46 724.77 969.86C702.5 982.94 684.47 1015.66 684.47 1042.94C684.47 1043.67 684.47 1044.36 684.5 1045.06L724.74 1026.65L736.48 965.12Z" />
						<path id="&lt;Path&gt; copy" class="shp18" d="M736.48 965.12C732.79 965.91 728.84 967.46 724.77 969.86C702.5 982.94 684.47 1015.66 684.47 1042.94C684.47 1043.67 684.47 1044.36 684.5 1045.06L724.74 1026.65L736.48 965.12Z" />
						<path id="&lt;Path&gt;" class="shp20" d="M736.48 965.12L724.74 1026.65L764.62 1003.5C764.91 1001 765.07 998.51 765.07 996.04C765.07 973.59 753.03 961.65 736.48 965.12Z" />
						<path id="&lt;Path&gt;" class="shp18" d="M759.57 1024.25C762.13 1017.39 763.9 1010.35 764.62 1003.5L724.74 1026.65L759.57 1024.25Z" />
						<path id="&lt;Path&gt;" class="shp20" d="M684.5 1045.06C685.42 1070.86 703.1 1081.63 724.77 1069.12C739.64 1060.53 752.62 1043.1 759.57 1024.25L724.74 1026.65L684.5 1045.06Z" />
					</g>
					<g id="&lt;Group&gt;">
						<path id="&lt;Path&gt;" class="shp24" d="M736.48 965.12L724.74 1026.65L764.62 1003.5C764.91 1001 765.07 998.51 765.07 996.04C765.07 973.59 753.03 961.65 736.48 965.12Z" />
						<path id="&lt;Path&gt;" class="shp25" d="M759.57 1024.25C762.13 1017.39 763.9 1010.35 764.62 1003.5L724.74 1026.65L759.57 1024.25Z" />
						<path id="&lt;Path&gt;" class="shp26" d="M684.5 1045.06C685.42 1070.86 703.1 1081.63 724.77 1069.12C739.64 1060.53 752.62 1043.1 759.57 1024.25L724.74 1026.65L684.5 1045.06Z" />
					</g>
					<g id="&lt;Group&gt;">
						<path id="&lt;Path&gt;" class="shp27" d="M736.48 965.12C732.79 965.91 728.84 967.46 724.77 969.86C702.5 982.94 684.47 1015.66 684.47 1042.94C684.47 1043.67 684.47 1044.36 684.5 1045.06L724.74 1026.65L736.48 965.12Z" />
						<path id="&lt;Path&gt;" class="shp27" d="M736.48 965.12L724.74 1026.65L764.62 1003.5C764.91 1001 765.07 998.51 765.07 996.04C765.07 973.59 753.03 961.65 736.48 965.12Z" />
						<path id="&lt;Path&gt;" class="shp27" d="M759.57 1024.25C762.13 1017.39 763.9 1010.35 764.62 1003.5L724.74 1026.65L759.57 1024.25Z" />
						<path id="&lt;Path&gt;" class="shp27" d="M684.5 1045.06C685.42 1070.86 703.1 1081.63 724.77 1069.12C739.64 1060.53 752.62 1043.1 759.57 1024.25L724.74 1026.65L684.5 1045.06Z" />
					</g>
				</g>
				<g id="&lt;Group&gt;">
					<path id="&lt;Path&gt;" class="shp18" d="M854.35 900.03C841.24 915.83 832.27 937.87 832.27 957.26C832.27 966.07 834.13 973.3 837.36 978.61L872.57 933.95L854.35 900.03Z" />
					<path id="&lt;Path&gt;" class="shp18" d="M890.76 878.91C885.3 878.65 879.11 880.3 872.57 884.09C866 887.88 859.81 893.4 854.35 900.03L872.57 933.95L890.76 878.91Z" />
					<path id="&lt;Path&gt;" class="shp18" d="M909.14 891.79C905.32 883.83 898.81 879.29 890.76 878.91L872.57 933.95L909.14 891.79Z" />
					<path id="&lt;Path&gt;" class="shp20" d="M909.14 891.79L872.57 933.95L837.36 978.61C844.27 989.85 857.44 992.57 872.57 983.82C894.83 970.97 912.9 938.22 912.9 910.65C912.9 903.13 911.54 896.78 909.14 891.79Z" />
				</g>
				<g id="&lt;Group&gt;">
					<path id="&lt;Path&gt;" class="shp21" d="M890.76 878.91C885.3 878.65 879.11 880.3 872.57 884.09C866 887.88 859.81 893.4 854.35 900.03L872.57 933.95L890.76 878.91Z" />
					<path id="&lt;Path&gt;" class="shp25" d="M909.14 891.79C905.32 883.83 898.81 879.29 890.76 878.91L872.57 933.95L909.14 891.79Z" />
					<path id="&lt;Path&gt;" class="shp26" d="M909.14 891.79L872.57 933.95L837.36 978.61C844.27 989.85 857.44 992.57 872.57 983.82C894.83 970.97 912.9 938.22 912.9 910.65C912.9 903.13 911.54 896.78 909.14 891.79Z" />
				</g>
				<g id="&lt;Group&gt;">
					<path id="&lt;Path&gt;" class="shp27" d="M854.35 900.03C841.24 915.83 832.27 937.87 832.27 957.26C832.27 966.07 834.13 973.3 837.36 978.61L872.57 933.95L854.35 900.03Z" />
					<path id="&lt;Path&gt;" class="shp27" d="M890.76 878.91C885.3 878.65 879.11 880.3 872.57 884.09C866 887.88 859.81 893.4 854.35 900.03L872.57 933.95L890.76 878.91Z" />
					<path id="&lt;Path&gt;" class="shp27" d="M909.14 891.79C905.32 883.83 898.81 879.29 890.76 878.91L872.57 933.95L909.14 891.79Z" />
					<path id="&lt;Path&gt;" class="shp27" d="M909.14 891.79L872.57 933.95L837.36 978.61C844.27 989.85 857.44 992.57 872.57 983.82C894.83 970.97 912.9 938.22 912.9 910.65C912.9 903.13 911.54 896.78 909.14 891.79Z" />
				</g>
				<g id="&lt;Group&gt;">
					<g id="&lt;Group&gt;">
						<path id="&lt;Path&gt;" class="shp18" d="M781.92 936.53L788.52 932.72C790.41 931.63 791.94 932.52 791.94 934.7L791.94 941.04C791.94 943.22 790.41 945.87 788.53 946.96L781.92 950.77C780.04 951.86 778.5 950.97 778.5 948.79L778.5 942.45C778.5 940.27 780.03 937.62 781.92 936.53Z" />
					</g>
					<g id="&lt;Group&gt;">
						<path id="&lt;Path&gt;" class="shp20" d="M781.92 964.98L788.52 961.17C790.41 960.08 791.94 960.97 791.94 963.15L791.94 969.49C791.94 971.67 790.41 974.32 788.53 975.41L781.92 979.22C780.04 980.31 778.5 979.42 778.5 977.24L778.5 970.9C778.5 968.72 780.03 966.07 781.92 964.98Z" />
						<path id="&lt;Path&gt;" class="shp21" d="M781.92 964.98L788.52 961.17C790.41 960.08 791.94 960.97 791.94 963.15L791.94 969.49C791.94 971.67 790.41 974.32 788.53 975.41L781.92 979.22C780.04 980.31 778.5 979.42 778.5 977.24L778.5 970.9C778.5 968.72 780.03 966.07 781.92 964.98Z" />
					</g>
					<g id="&lt;Group&gt;">
						<path id="&lt;Path&gt;" class="shp20" d="M781.92 993.43L788.52 989.62C790.41 988.53 791.94 989.42 791.94 991.6L791.94 997.94C791.94 1000.12 790.41 1002.77 788.53 1003.86L781.92 1007.67C780.04 1008.76 778.5 1007.87 778.5 1005.69L778.5 999.35C778.5 997.17 780.03 994.52 781.92 993.43Z" />
						<path id="&lt;Path&gt;" class="shp17" d="M781.92 993.43L788.52 989.62C790.41 988.53 791.94 989.42 791.94 991.6L791.94 997.94C791.94 1000.12 790.41 1002.77 788.53 1003.86L781.92 1007.67C780.04 1008.76 778.5 1007.87 778.5 1005.69L778.5 999.35C778.5 997.17 780.03 994.52 781.92 993.43Z" />
					</g>
					<g id="&lt;Group&gt;">
						<path id="&lt;Path&gt;" class="shp20" d="M781.92 1021.88L788.52 1018.07C790.41 1016.98 791.94 1017.87 791.94 1020.05L791.94 1026.39C791.94 1028.57 790.41 1031.22 788.53 1032.31L781.92 1036.12C780.04 1037.21 778.5 1036.32 778.5 1034.14L778.5 1027.8C778.5 1025.62 780.03 1022.97 781.92 1021.88Z" />
						<path id="&lt;Path&gt;" class="shp26" d="M781.92 1021.88L788.52 1018.07C790.41 1016.98 791.94 1017.87 791.94 1020.05L791.94 1026.39C791.94 1028.57 790.41 1031.22 788.53 1032.31L781.92 1036.12C780.04 1037.21 778.5 1036.32 778.5 1034.14L778.5 1027.8C778.5 1025.62 780.03 1022.97 781.92 1021.88Z" />
					</g>
				</g>
				<g id="&lt;Group&gt;">
					<path id="&lt;Path&gt;" class="shp19" d="M798.73 935.88C797.95 935.88 797.2 935.48 796.79 934.76C796.17 933.69 796.53 932.32 797.6 931.7L817.69 920.11C818.76 919.49 820.14 919.85 820.75 920.92C821.37 921.99 821 923.36 819.93 923.98L799.84 935.58C799.49 935.78 799.11 935.88 798.73 935.88Z" />
				</g>
				<g id="&lt;Group&gt;">
					<path id="&lt;Path&gt;" class="shp19" d="M798.42 964.61C797.64 964.61 796.89 964.21 796.48 963.49C795.86 962.42 796.23 961.05 797.3 960.44L817.39 948.84C818.46 948.22 819.83 948.59 820.44 949.66C821.06 950.73 820.69 952.1 819.62 952.72L799.53 964.31C799.18 964.52 798.8 964.61 798.42 964.61Z" />
				</g>
				<g id="&lt;Group&gt;">
					<path id="&lt;Path&gt;" class="shp19" d="M798.11 993.35C797.34 993.35 796.58 992.95 796.17 992.23C795.55 991.16 795.92 989.79 796.99 989.17L817.08 977.58C818.15 976.96 819.52 977.32 820.13 978.39C820.75 979.46 820.39 980.83 819.32 981.45L799.23 993.05C798.87 993.25 798.49 993.35 798.11 993.35Z" />
				</g>
				<g id="&lt;Group&gt;">
					<path id="&lt;Path&gt;" class="shp19" d="M797.8 1022.08C797.02 1022.08 796.27 1021.68 795.86 1020.96C795.24 1019.89 795.61 1018.52 796.68 1017.9L816.77 1006.31C817.85 1005.7 819.21 1006.06 819.83 1007.13C820.44 1008.2 820.07 1009.57 819 1010.19L798.91 1021.78C798.56 1021.98 798.18 1022.08 797.8 1022.08Z" />
				</g>
				<g id="&lt;Group&gt;">
					<g id="&lt;Group&gt;">
						<path id="&lt;Path&gt;" class="shp19" d="M686.98 1123.17C686.2 1123.17 685.45 1122.77 685.04 1122.05C684.42 1120.98 684.78 1119.61 685.85 1118.99L779.93 1064.7C781.01 1064.09 782.37 1064.45 782.99 1065.52C783.61 1066.59 783.24 1067.96 782.17 1068.58L688.09 1122.87C687.74 1123.07 687.36 1123.17 686.98 1123.17Z" />
					</g>
					<g id="&lt;Group&gt;">
						<path id="&lt;Path&gt;" class="shp19" d="M690.01 1137.1C689.23 1137.1 688.48 1136.7 688.06 1135.98C687.45 1134.91 687.81 1133.54 688.88 1132.92L782.96 1078.63C784.04 1078.01 785.4 1078.38 786.02 1079.45C786.64 1080.52 786.27 1081.89 785.2 1082.51L691.12 1136.8C690.77 1137 690.39 1137.1 690.01 1137.1Z" />
					</g>
					<g id="&lt;Group&gt;">
						<path id="&lt;Path&gt;" class="shp19" d="M694.34 1150.57C693.57 1150.57 692.81 1150.17 692.4 1149.45C691.78 1148.38 692.15 1147.01 693.22 1146.39L787.29 1092.1C788.38 1091.48 789.73 1091.85 790.35 1092.92C790.97 1093.99 790.6 1095.36 789.53 1095.98L695.46 1150.27C695.1 1150.47 694.72 1150.57 694.34 1150.57Z" />
					</g>
				</g>
				<g id="&lt;Group&gt;">
					<g id="&lt;Group&gt;">
						<path id="&lt;Path&gt;" class="shp19" d="M834.64 1037.95C833.87 1037.95 833.11 1037.55 832.7 1036.84C832.08 1035.77 832.45 1034.4 833.52 1033.78L927.59 979.48C928.68 978.87 930.04 979.23 930.65 980.3C931.27 981.37 930.9 982.74 929.83 983.36L835.76 1037.65C835.4 1037.86 835.02 1037.95 834.64 1037.95Z" />
					</g>
					<g id="&lt;Group&gt;">
						<path id="&lt;Path&gt;" class="shp19" d="M837.67 1051.88C836.9 1051.88 836.14 1051.48 835.73 1050.76C835.11 1049.69 835.48 1048.32 836.55 1047.7L930.62 993.41C931.71 992.79 933.07 993.15 933.68 994.22C934.3 995.29 933.93 996.66 932.86 997.28L838.79 1051.58C838.43 1051.78 838.05 1051.88 837.67 1051.88Z" />
					</g>
					<g id="&lt;Group&gt;">
						<path id="&lt;Path&gt;" class="shp19" d="M842.01 1065.35C841.23 1065.35 840.48 1064.95 840.06 1064.23C839.45 1063.16 839.81 1061.79 840.88 1061.17L934.96 1006.88C936.04 1006.26 937.4 1006.63 938.02 1007.7C938.64 1008.77 938.27 1010.14 937.2 1010.76L843.12 1065.05C842.77 1065.25 842.39 1065.35 842.01 1065.35Z" />
					</g>
				</g>
				<path id="&lt;Path&gt;" class="shp18" d="M720.16 1165.84L934.64 1042.06C942.19 1037.7 951.52 1039.63 956.13 1045.92C960.73 1052.2 958.85 1060.43 951.3 1064.79L736.75 1188.6C729.19 1192.96 718.8 1191.82 714.22 1185.52C709.63 1179.23 712.61 1170.2 720.16 1165.84Z" />
				<g id="&lt;Group&gt;">
					<g id="&lt;Group&gt;">
						<path id="&lt;Path&gt;" class="shp19" d="M755.55 1226.49C754.78 1226.49 754.03 1226.09 753.61 1225.37C752.99 1224.3 753.36 1222.94 754.43 1222.32L848.5 1168.03C849.57 1167.42 850.94 1167.78 851.55 1168.85C852.17 1169.92 851.8 1171.29 850.73 1171.91L756.67 1226.2C756.31 1226.4 755.93 1226.49 755.55 1226.49Z" />
					</g>
					<g id="&lt;Group&gt;">
						<path id="&lt;Path&gt;" class="shp19" d="M743.78 1218.19C743.01 1218.19 742.26 1217.79 741.84 1217.07C741.22 1216 741.59 1214.63 742.66 1214.01L836.73 1159.73C837.81 1159.12 839.17 1159.48 839.79 1160.55C840.4 1161.62 840.04 1162.99 838.97 1163.61L744.9 1217.89C744.54 1218.09 744.16 1218.19 743.78 1218.19Z" />
					</g>
					<g id="&lt;Group&gt;">
						<path id="&lt;Path&gt;" class="shp19" d="M767.92 1233.81C767.15 1233.81 766.4 1233.41 765.98 1232.69C765.36 1231.62 765.73 1230.25 766.8 1229.63L860.87 1175.35C861.95 1174.74 863.31 1175.1 863.93 1176.17C864.55 1177.24 864.18 1178.61 863.11 1179.23L769.04 1233.51C768.68 1233.71 768.3 1233.81 767.92 1233.81Z" />
					</g>
				</g>
				<g id="&lt;Group&gt;">
					<g id="&lt;Group&gt;">
						<path id="&lt;Path&gt;" class="shp19" d="M889.86 1148.99C889.09 1148.99 888.33 1148.59 887.92 1147.87C887.3 1146.8 887.67 1145.43 888.74 1144.81L982.81 1090.52C983.89 1089.91 985.25 1090.27 985.87 1091.34C986.48 1092.41 986.12 1093.78 985.05 1094.4L890.98 1148.69C890.62 1148.89 890.24 1148.99 889.86 1148.99Z" />
					</g>
					<g id="&lt;Group&gt;">
						<path id="&lt;Path&gt;" class="shp19" d="M878.09 1140.68C877.32 1140.68 876.56 1140.28 876.15 1139.56C875.53 1138.49 875.9 1137.13 876.97 1136.51L971.03 1082.22C972.11 1081.61 973.47 1081.97 974.09 1083.04C974.71 1084.11 974.34 1085.48 973.27 1086.1L879.21 1140.39C878.85 1140.59 878.47 1140.68 878.09 1140.68Z" />
					</g>
					<g id="&lt;Group&gt;">
						<path id="&lt;Path&gt;" class="shp19" d="M902.23 1156.31C901.46 1156.31 900.7 1155.9 900.29 1155.19C899.67 1154.12 900.04 1152.75 901.11 1152.13L995.18 1097.84C996.26 1097.23 997.62 1097.59 998.24 1098.66C998.85 1099.73 998.49 1101.1 997.42 1101.72L903.35 1156.01C902.99 1156.21 902.61 1156.31 902.23 1156.31Z" />
					</g>
				</g>
				<g id="&lt;Group&gt;">
					<g id="&lt;Group&gt;">
						<path id="&lt;Compound Path&gt;" fill-rule="evenodd" class="shp18" d="M900.31 1268.61C878.04 1281.46 843.44 1282.32 823.01 1270.52C802.59 1258.73 804.08 1238.75 826.35 1225.9C848.61 1213.05 883.22 1212.19 903.64 1223.99C924.07 1235.79 922.58 1255.76 900.31 1268.61ZM892.13 1230.64C877.54 1222.21 852.82 1222.82 836.91 1232C821.01 1241.18 819.94 1255.45 834.53 1263.87C849.12 1272.3 873.84 1271.69 889.74 1262.51C905.65 1253.33 906.71 1239.06 892.13 1230.64Z" />
						<path id="&lt;Path&gt;" class="shp4" d="M847.48 1238.1C857.02 1232.6 871.85 1232.23 880.61 1237.28C889.36 1242.34 888.72 1250.9 879.18 1256.41C869.64 1261.92 854.8 1262.28 846.05 1257.23C837.3 1252.17 837.94 1243.61 847.48 1238.1Z" />
					</g>
					<path id="&lt;Path&gt;" class="shp28" d="M847.48 1238.1C857.02 1232.6 871.85 1232.23 880.61 1237.28C889.36 1242.34 888.72 1250.9 879.18 1256.41C869.64 1261.92 854.8 1262.28 846.05 1257.23C837.3 1252.17 837.94 1243.61 847.48 1238.1Z" />
					<path id="&lt;Compound Path&gt;" fill-rule="evenodd" class="shp17" d="M900.31 1268.61C878.04 1281.46 843.44 1282.32 823.01 1270.52C802.59 1258.73 804.08 1238.75 826.35 1225.9C848.61 1213.05 883.22 1212.19 903.64 1223.99C924.07 1235.79 922.58 1255.76 900.31 1268.61ZM892.13 1230.64C877.54 1222.21 852.82 1222.82 836.91 1232C821.01 1241.18 819.94 1255.45 834.53 1263.87C849.12 1272.3 873.84 1271.69 889.74 1262.51C905.65 1253.33 906.71 1239.06 892.13 1230.64Z" />
					<g id="&lt;Group&gt;">
						<path id="&lt;Path&gt;" class="shp20" d="M846.95 1218.07L851.62 1226.41C860.61 1224.35 870.35 1224.15 878.99 1225.9L885.29 1217.36C873.19 1214.91 859.54 1215.18 846.95 1218.07Z" />
						<path id="&lt;Path&gt;" class="shp21" d="M846.95 1218.07L851.62 1226.41C860.61 1224.35 870.35 1224.15 878.99 1225.9L885.29 1217.36C873.19 1214.91 859.54 1215.18 846.95 1218.07Z" />
					</g>
					<g id="&lt;Group&gt;">
						<path id="&lt;Path&gt;" class="shp19" d="M866.13 1213.94C866.08 1213.94 866.04 1213.94 865.99 1213.94C864.76 1213.86 863.82 1212.8 863.89 1211.57L864.5 1201.3L905.86 1177.43C906.94 1176.82 908.3 1177.18 908.92 1178.25C909.53 1179.32 909.17 1180.69 908.1 1181.31L868.82 1203.97L868.36 1211.84C868.29 1213.02 867.3 1213.94 866.13 1213.94Z" />
					</g>
				</g>
				<g id="&lt;Group&gt;">
					<g id="&lt;Group&gt;">
						<g id="&lt;Group&gt;">
							<path id="&lt;Compound Path&gt;" fill-rule="evenodd" class="shp18" d="M1021.23 1198.86C998.96 1211.71 964.35 1212.56 943.93 1200.77C923.5 1188.97 925 1169 947.26 1156.15C969.53 1143.3 1004.14 1142.44 1024.56 1154.24C1044.99 1166.03 1043.49 1186.01 1021.23 1198.86ZM1013.04 1160.89C998.45 1152.46 973.73 1153.07 957.83 1162.25C941.93 1171.43 940.86 1185.7 955.45 1194.12C970.04 1202.55 994.76 1201.94 1010.66 1192.76C1026.57 1183.58 1027.63 1169.31 1013.04 1160.89Z" />
							<path id="&lt;Path&gt;" class="shp4" d="M968.4 1168.35C977.94 1162.84 992.77 1162.48 1001.52 1167.53C1010.28 1172.59 1009.64 1181.15 1000.09 1186.66C990.55 1192.16 975.72 1192.53 966.97 1187.47C958.21 1182.42 958.85 1173.86 968.4 1168.35Z" />
						</g>
						<path id="&lt;Path&gt;" class="shp28" d="M968.4 1168.35C977.94 1162.84 992.77 1162.48 1001.52 1167.53C1010.28 1172.59 1009.64 1181.15 1000.09 1186.66C990.55 1192.16 975.72 1192.53 966.97 1187.47C958.21 1182.42 958.85 1173.86 968.4 1168.35Z" />
						<path id="&lt;Compound Path&gt;" fill-rule="evenodd" class="shp17" d="M1021.23 1198.86C998.96 1211.71 964.35 1212.56 943.93 1200.77C923.5 1188.97 925 1169 947.26 1156.15C969.53 1143.3 1004.14 1142.44 1024.56 1154.24C1044.99 1166.03 1043.49 1186.01 1021.23 1198.86ZM1013.04 1160.89C998.45 1152.46 973.73 1153.07 957.83 1162.25C941.93 1171.43 940.86 1185.7 955.45 1194.12C970.04 1202.55 994.76 1201.94 1010.66 1192.76C1026.57 1183.58 1027.63 1169.31 1013.04 1160.89Z" />
						<g id="&lt;Group&gt;">
							<path id="&lt;Path&gt;" class="shp20" d="M1024.56 1154.24C1007.3 1144.27 979.94 1143.37 958.43 1151.07L965.81 1158.62C981.18 1153.12 1000.72 1153.77 1013.04 1160.89C1015.3 1162.19 1017.13 1163.64 1018.64 1165.18L1032.41 1160.26C1030.3 1158.1 1027.72 1156.06 1024.56 1154.24Z" />
							<path id="&lt;Path&gt;" class="shp21" d="M1024.56 1154.24C1007.3 1144.27 979.94 1143.37 958.43 1151.07L965.81 1158.62C981.18 1153.12 1000.72 1153.77 1013.04 1160.89C1015.3 1162.19 1017.13 1163.64 1018.64 1165.18L1032.41 1160.26C1030.3 1158.1 1027.72 1156.06 1024.56 1154.24Z" />
						</g>
						<g id="&lt;Group&gt;">
							<path id="&lt;Path&gt;" class="shp19" d="M987.39 1143.97C987.34 1143.97 987.3 1143.96 987.25 1143.96C986.02 1143.89 985.08 1142.83 985.15 1141.59L985.76 1131.32L1027.12 1107.45C1028.2 1106.85 1029.56 1107.2 1030.18 1108.27C1030.8 1109.34 1030.43 1110.71 1029.36 1111.33L990.09 1133.99L989.62 1141.86C989.55 1143.05 988.56 1143.97 987.39 1143.97Z" />
						</g>
					</g>
				</g>
				<g id="&lt;Group&gt;">
					<g id="&lt;Group&gt;">
						<path id="&lt;Path&gt;" class="shp19" d="M878.87 1297.89C878.09 1297.89 877.34 1297.49 876.93 1296.77C876.31 1295.7 876.68 1294.33 877.75 1293.71L1106.21 1161.87C1107.29 1161.26 1108.65 1161.62 1109.27 1162.69C1109.89 1163.76 1109.52 1165.13 1108.45 1165.75L879.98 1297.59C879.63 1297.79 879.25 1297.89 878.87 1297.89Z" />
					</g>
					<g id="&lt;Group&gt;">
						<path id="&lt;Path&gt;" class="shp19" d="M891.22 1304.99C890.45 1304.99 889.7 1304.59 889.28 1303.87C888.66 1302.8 889.03 1301.43 890.1 1300.81L1118.56 1168.98C1119.65 1168.37 1121 1168.73 1121.62 1169.8C1122.24 1170.87 1121.87 1172.24 1120.8 1172.86L892.34 1304.69C891.98 1304.89 891.6 1304.99 891.22 1304.99Z" />
					</g>
					<g id="&lt;Group&gt;">
						<path id="&lt;Path&gt;" class="shp19" d="M903.55 1312.11C902.78 1312.11 902.03 1311.71 901.61 1310.99C900.99 1309.92 901.36 1308.55 902.43 1307.93L1130.89 1176.09C1131.98 1175.49 1133.33 1175.84 1133.95 1176.91C1134.57 1177.98 1134.2 1179.35 1133.13 1179.97L904.67 1311.81C904.32 1312.01 903.93 1312.11 903.55 1312.11Z" />
					</g>
				</g>
			</g>
		</g>
	</g>
</svg>